<?xml version="1.0" encoding="utf-8"?>
<!-- Generator: Adobe Illustrator 17.1.0, SVG Export Plug-In . SVG Version: 6.00 Build 0)  -->
<!DOCTYPE svg PUBLIC "-//W3C//DTD SVG 1.1//EN" "http://www.w3.org/Graphics/SVG/1.1/DTD/svg11.dtd">
<svg version="1.1" id="Layer_1" xmlns="http://www.w3.org/2000/svg" xmlns:xlink="http://www.w3.org/1999/xlink" x="0px" y="0px"
	 viewBox="0 0 250 59.8" enable-background="new 0 0 250 59.8" xml:space="preserve">
<g>
	<g>
		<g>
			<path fill="#CCCCCC" d="M21.8,10l0.3,0c0.7-0.1,0.7-0.1,0.7-1.7V3.2c0-1.5,0-1.5-0.7-1.6l-0.3,0V1.2h4.1c0.7,0,3,0,3,1.9
				c0,1.5-1.2,2-1.9,2.2v0c0.9,0.1,2.3,0.7,2.3,2.4c0,2-1.9,2.6-3.9,2.6h-3.6V10z M24.6,5.3h0.5c1.1,0,2-0.3,2-1.8
				c0-1.1-0.7-1.7-1.8-1.7c-0.2,0-0.5,0-0.7,0.1V5.3z M24.6,9.6c0.4,0.1,0.7,0.2,1.1,0.2c1.3,0,1.8-0.8,1.8-1.9
				c0-1.1-0.7-2.2-2.4-2.2h-0.6V9.6z"/>
			<path fill="#CCCCCC" d="M37.2,10.2c-0.2,0.1-0.6,0.3-1.2,0.3c-0.9,0-1.1-0.4-1.4-0.7c-0.4,0.3-1,0.7-1.9,0.7
				c-1.1,0-1.8-0.6-1.8-1.5c0-1.8,2.4-2.2,3.6-2.5V6.2c0-0.8-0.2-1.6-1.2-1.6c-1.1,0-1.5,1-1.7,1.4h-0.1c-0.2-0.3-0.3-0.4-0.4-0.7
				c0.6-0.7,1.6-1.5,3-1.5c1.8,0,2.1,0.9,2.1,2.5V8c0,1,0,2,0.9,2c0,0,0.1,0,0.1,0L37.2,10.2z M34.5,7.2c-0.1,0-0.1,0-0.2,0
				c-0.8,0-1.7,0.4-1.7,1.4c0,0.7,0.4,1.2,1,1.2c0.5,0,0.7-0.2,0.8-0.3c0-0.1-0.1-0.5-0.1-0.8V7.2z"/>
			<path fill="#CCCCCC" d="M43.8,9.9c-0.4,0.3-1.2,0.7-2.5,0.7c-1.5,0-3.3-1-3.3-3.1c0-2.6,2.1-3.7,3.7-3.7c1,0,1.5,0.2,1.9,0.5
				c-0.1,0.5-0.2,0.7-0.5,1.1H43c-0.3-0.3-0.8-0.9-1.6-0.9c-0.9,0-1.5,0.8-1.5,2.3c0,2.1,1.2,3,2.6,3c0.5,0,1.1-0.2,1.3-0.2
				L43.8,9.9z"/>
			<path fill="#CCCCCC" d="M45.3,2.8c0-1.2,0-1.8-0.5-1.8c-0.2,0-0.3,0-0.4,0V0.7c1.2-0.2,1.8-0.3,2.5-0.3v4.3
				c0.4-0.4,1.1-0.8,2.2-0.8c2.2,0,2.2,1.8,2.2,2.8v2.4c0,0.7,0.1,0.9,0.6,0.9l0.3,0v0.4h-3.4V10l0.3,0c0.5-0.1,0.6-0.2,0.6-0.9V6.4
				c0-1.1-0.5-1.8-1.4-1.8c-0.6,0-1,0.4-1.2,0.6v3.8c0,0.7,0.1,0.9,0.6,0.9l0.3,0v0.4h-3.4V10l0.3,0c0.5-0.1,0.6-0.2,0.6-0.9V2.8z"
				/>
			<path fill="#CCCCCC" d="M59.2,9.7c-0.4,0.3-1.2,0.9-2.6,0.9c-1.6,0-3.3-1-3.3-3.3c0-2.2,1.6-3.5,3.2-3.5c2.2,0,2.6,1.5,2.8,2.3
				c-1.2,0.6-2.7,1-4.2,1.3c0.2,0.8,0.6,2.3,2.5,2.3c0.7,0,1.3-0.3,1.5-0.4L59.2,9.7z M57.5,6.2c-0.1-1-0.5-1.8-1.4-1.8
				c-1.2,0-1.2,2.2-1.2,2.4C55.8,6.7,56.7,6.5,57.5,6.2z"/>
			<path fill="#CCCCCC" d="M60.2,10l0.3,0c0.5-0.1,0.6-0.2,0.6-0.9V2.8c0-1.2,0-1.8-0.5-1.8c-0.2,0-0.3,0-0.4,0V0.7
				c1.2-0.2,1.8-0.3,2.5-0.3v8.7c0,0.7,0.1,0.9,0.6,0.9l0.3,0v0.4h-3.4V10z"/>
			<path fill="#CCCCCC" d="M65.1,7.3c0-2.4,1.8-3.4,3.5-3.4c1.8,0,3.5,1,3.5,3.2c0,2.5-1.8,3.5-3.6,3.5S65.1,9.6,65.1,7.3z
				 M68.7,10.1c1.3,0,1.6-1.6,1.6-2.7c0-1.5-0.4-3-1.8-3c-1.3,0-1.6,1.5-1.6,2.6C66.9,8.5,67.4,10.1,68.7,10.1z"/>
			<path fill="#CCCCCC" d="M74.4,5.8c0-0.5,0-1.1-0.4-1.1c-0.2,0-0.4,0.1-0.4,0.1V4.4c1-0.3,1.3-0.4,2.3-0.6c0,0.2,0.1,0.5,0.1,1
				c0.3-0.3,0.9-1,1.6-1c0.6,0,0.9,0.4,1.1,0.6c-0.2,0.4-0.4,0.7-0.8,1c-0.2-0.1-1-0.4-1.2-0.4c-0.2,0-0.4,0.1-0.6,0.3v3.4
				c0,1,0,1.2,0.6,1.2l0.6,0.1v0.4h-3.7V10l0.3,0c0.5,0,0.6-0.2,0.6-0.9V5.8z"/>
			<path fill="#CCCCCC" d="M83.3,8.7c0-1.8,1.3-3.6,3-3.6c1,0,1.7,0.4,1.7,1.7c0,2-1.4,3.7-3,3.7C84,10.6,83.3,10.1,83.3,8.7z
				 M85.4,10.1c0.9,0,1.3-2,1.3-3.1c0-1-0.1-1.4-0.8-1.4c-0.8,0-1.3,1.8-1.3,3C84.7,9.4,84.8,10.1,85.4,10.1z"/>
			<path fill="#CCCCCC" d="M90.7,8.4c-0.4,2.3-0.8,4.6-2.6,4.6c-0.4,0-0.5-0.1-0.7-0.2c0.1-0.3,0.2-0.5,0.4-0.8h0.1
				c0.2,0.1,0.5,0.4,0.8,0.4c0.5,0,0.5-1.5,0.7-2.8L90,5.8l-1-0.1l0-0.3l1.1-0.1c0.1-0.8,0.6-3.1,2.7-3.1c0.4,0,0.8,0.1,0.9,0.3
				c-0.1,0.4-0.2,0.5-0.5,0.9h-0.1c-0.3-0.4-0.5-0.6-1-0.6c-0.6,0-0.7,2-0.9,2.6l1.4,0.1l0,0.3l-1.4,0.1L90.7,8.4z"/>
			<path fill="#CCCCCC" d="M96.4,10l0.3,0c0.7-0.1,0.7-0.3,0.7-1.6V3.3c0-1.4,0-1.6-0.7-1.7l-0.3,0V1.2h3.7c1.7,0,3.7,0.3,3.7,2.5
				c0,2.3-2.3,2.9-3.7,3V6.1c1-0.1,1.9-0.6,1.9-2.3c0-1.5-1-2.1-2.1-2.1c-0.2,0-0.5,0-0.7,0.1v6.5c0,1.4,0,1.6,0.7,1.6l0.5,0v0.4h-4
				V10z"/>
			<path fill="#CCCCCC" d="M105.7,5.8c0-0.5,0-1.1-0.4-1.1c-0.2,0-0.4,0.1-0.4,0.1V4.4c1-0.3,1.3-0.4,2.3-0.6c0,0.2,0.1,0.5,0.1,1
				c0.3-0.3,0.9-1,1.6-1c0.6,0,0.9,0.4,1.1,0.6c-0.2,0.4-0.4,0.7-0.8,1c-0.2-0.1-1-0.4-1.2-0.4c-0.2,0-0.4,0.1-0.6,0.3v3.4
				c0,1,0,1.2,0.6,1.2l0.6,0.1v0.4h-3.7V10l0.3,0c0.5,0,0.6-0.2,0.6-0.9V5.8z"/>
			<path fill="#CCCCCC" d="M110.8,7.3c0-2.4,1.8-3.4,3.5-3.4c1.8,0,3.5,1,3.5,3.2c0,2.5-1.8,3.5-3.6,3.5S110.8,9.6,110.8,7.3z
				 M114.4,10.1c1.3,0,1.6-1.6,1.6-2.7c0-1.5-0.4-3-1.8-3c-1.3,0-1.6,1.5-1.6,2.6C112.5,8.5,113,10.1,114.4,10.1z"/>
			<path fill="#CCCCCC" d="M120.1,4.7c-0.3,0-0.7-0.1-1-0.1V4.2c0.2,0,0.7-0.1,1-0.1c0-1.9,1-3.9,3.1-3.9c0.7,0,1.2,0.2,1.5,0.5
				c-0.1,0.4-0.2,0.7-0.6,1h-0.1c-0.3-0.2-0.9-0.8-1.4-0.8c-0.8,0-0.9,1.1-0.9,2.4v0.8c0.4,0,1.3,0.1,1.7,0.1v0.4
				c-0.6,0.1-1.1,0.1-1.7,0.1v4.4c0,0.7,0.1,0.9,0.6,0.9l0.6,0v0.4h-3.7V10l0.3,0c0.5-0.1,0.6-0.2,0.6-0.9V4.7z"/>
			<path fill="#CCCCCC" d="M130.2,9.7c-0.4,0.3-1.2,0.9-2.6,0.9c-1.6,0-3.3-1-3.3-3.3c0-2.2,1.6-3.5,3.2-3.5c2.2,0,2.6,1.5,2.8,2.3
				c-1.2,0.6-2.7,1-4.2,1.3c0.2,0.8,0.6,2.3,2.5,2.3c0.7,0,1.3-0.3,1.5-0.4L130.2,9.7z M128.5,6.2c-0.1-1-0.5-1.8-1.4-1.8
				c-1.2,0-1.2,2.2-1.2,2.4C126.8,6.7,127.7,6.5,128.5,6.2z"/>
			<path fill="#CCCCCC" d="M134.9,6c0-0.5-0.3-1.6-1.4-1.6c-0.4,0-0.8,0.4-0.8,0.9c0,1.5,3.1,1.2,3.1,3.3c0,1.1-0.8,2-2.6,2
				c-0.8,0-1.4-0.2-1.9-0.4c-0.1-0.6-0.2-1.1-0.2-2h0.6c0.1,0.8,0.7,1.9,1.8,1.9c0.6,0,0.9-0.4,0.9-0.9c0-1.7-3.1-1.3-3.1-3.5
				c0-0.1,0-1.8,2.5-1.8c0.7,0,1.3,0.2,1.7,0.4c0.1,0.5,0.2,1.2,0.2,1.7H134.9z"/>
			<path fill="#CCCCCC" d="M141,6c0-0.5-0.3-1.6-1.4-1.6c-0.4,0-0.8,0.4-0.8,0.9c0,1.5,3.1,1.2,3.1,3.3c0,1.1-0.8,2-2.6,2
				c-0.8,0-1.4-0.2-1.9-0.4c-0.1-0.6-0.2-1.1-0.2-2h0.6c0.1,0.8,0.7,1.9,1.8,1.9c0.6,0,0.9-0.4,0.9-0.9c0-1.7-3.1-1.3-3.1-3.5
				c0-0.1,0-1.8,2.5-1.8c0.7,0,1.3,0.2,1.7,0.4c0.1,0.5,0.2,1.2,0.2,1.7H141z"/>
			<path fill="#CCCCCC" d="M143.3,10l0.3,0c0.5-0.1,0.6-0.2,0.6-0.9V5.8c0-0.5,0-1.1-0.4-1.1c-0.2,0-0.4,0.1-0.4,0.1V4.4
				c1-0.3,1.8-0.5,2.5-0.5v5.2c0,0.7,0.1,0.9,0.6,0.9l0.3,0v0.4h-3.4V10z M144,1.7c0-0.5,0.4-1,1-1c0.5,0,1,0.4,1,1c0,0.6-0.4,1-1,1
				C144.4,2.7,144,2.3,144,1.7z"/>
			<path fill="#CCCCCC" d="M148.1,7.3c0-2.4,1.8-3.4,3.5-3.4c1.8,0,3.5,1,3.5,3.2c0,2.5-1.8,3.5-3.6,3.5S148.1,9.6,148.1,7.3z
				 M151.7,10.1c1.3,0,1.6-1.6,1.6-2.7c0-1.5-0.4-3-1.8-3c-1.3,0-1.6,1.5-1.6,2.6C149.9,8.5,150.4,10.1,151.7,10.1z"/>
			<path fill="#CCCCCC" d="M157.4,5.8c0-0.5,0-1.1-0.4-1.1c-0.2,0-0.4,0.1-0.4,0.1V4.4c1-0.3,1.8-0.5,2.5-0.5v0.8
				c0.3-0.3,1-0.8,2.2-0.8c1.3,0,2.1,0.6,2.1,2.5v2.7c0,0.7,0.1,0.9,0.6,0.9l0.3,0v0.4h-3.4V10l0.3,0c0.5,0,0.6-0.2,0.6-0.9v-2
				c0-1.1,0-2.4-1.4-2.4c-0.6,0-0.9,0.3-1.2,0.5v3.9c0,0.7,0.1,0.9,0.6,0.9l0.3,0v0.4h-3.4V10l0.3,0c0.5,0,0.5-0.2,0.5-0.9V5.8z"/>
			<path fill="#CCCCCC" d="M171.8,10.2c-0.2,0.1-0.6,0.3-1.2,0.3c-0.9,0-1.1-0.4-1.4-0.7c-0.4,0.3-1,0.7-1.9,0.7
				c-1.1,0-1.8-0.6-1.8-1.5c0-1.8,2.4-2.2,3.6-2.5V6.2c0-0.8-0.2-1.6-1.2-1.6c-1.1,0-1.5,1-1.7,1.4h-0.1c-0.2-0.3-0.3-0.4-0.4-0.7
				c0.6-0.7,1.6-1.5,3-1.5c1.8,0,2.1,0.9,2.1,2.5V8c0,1,0,2,0.9,2c0,0,0.1,0,0.1,0L171.8,10.2z M169.1,7.2c-0.1,0-0.1,0-0.2,0
				c-0.8,0-1.7,0.4-1.7,1.4c0,0.7,0.4,1.2,1,1.2c0.5,0,0.7-0.2,0.8-0.3c0-0.1-0.1-0.5-0.1-0.8V7.2z"/>
			<path fill="#CCCCCC" d="M172.7,10l0.3,0c0.5-0.1,0.6-0.2,0.6-0.9V2.8c0-1.2,0-1.8-0.5-1.8c-0.2,0-0.3,0-0.4,0V0.7
				c1.2-0.2,1.8-0.3,2.5-0.3v8.7c0,0.7,0.1,0.9,0.6,0.9l0.3,0v0.4h-3.4V10z"/>
			<path fill="#CCCCCC" d="M187,3.6c-0.2-0.7-0.4-2.1-2-2.1c-0.8,0-1.4,0.5-1.4,1.4c0,2.1,4.4,2,4.4,5c0,2-1.8,2.7-3.4,2.7
				c-1.2,0-2-0.3-2.4-0.6c-0.3-0.9-0.4-1.5-0.4-2.6l0.7-0.1c0.2,0.8,0.7,2.8,2.4,2.8c0.9,0,1.5-0.6,1.5-1.5c0-2.3-4.3-2.2-4.3-5
				c0-1.8,1.3-2.5,3.1-2.5c1,0,1.7,0.2,2.2,0.5c0.1,0.7,0.2,1.4,0.2,2.1H187z"/>
			<path fill="#CCCCCC" d="M193.8,10c-0.3,0.2-1.1,0.6-2.1,0.6c-1.6,0-1.6-1.4-1.6-2.4V4.7c-0.3,0-0.8-0.1-1.1-0.1V4.2
				c0.3-0.1,0.7-0.1,1.1-0.1V3.5c0.6-0.5,1-0.8,1.7-1.2l0.2,0.1c0,0.2-0.2,1.3-0.2,1.7c0.3,0,1.2,0.1,1.5,0.1v0.4
				c-0.5,0.1-1,0.1-1.5,0.1v2.6c0,1.4,0,2.5,1.2,2.5c0.4,0,0.5-0.1,0.7-0.1L193.8,10z"/>
			<path fill="#CCCCCC" d="M199.4,9.9c-0.4,0.3-1.1,0.7-2.1,0.7c-2.2,0-2.3-1.3-2.3-2.8v-2c0-0.5,0-1.1-0.4-1.1
				c-0.2,0-0.4,0.1-0.4,0.1V4.4c1-0.3,1.8-0.5,2.5-0.5v3.9c0,1.1,0.2,2,1.6,2c0.5,0,0.8-0.2,1-0.3V5.8c0-0.5,0-1.1-0.4-1.1
				c-0.2,0-0.4,0.1-0.4,0.1V4.4c1-0.3,1.8-0.5,2.5-0.5V8c0,1.1,0,1.7,0.5,1.7c0.1,0,0.2,0,0.4,0l0,0.4c-0.6,0.2-1.4,0.4-2.1,0.6
				L199.4,9.9z"/>
			<path fill="#CCCCCC" d="M208,2.8c0-1.2,0-1.8-0.5-1.8c-0.2,0-0.3,0-0.4,0V0.7c1.2-0.2,1.8-0.3,2.5-0.3v7.8c0,1.1,0,1.4,0.6,1.4
				h0.3l0,0.4c-0.7,0.3-1.5,0.4-2.2,0.6l-0.4-0.6c-0.3,0.2-1,0.6-1.9,0.6c-1.5,0-3.1-1-3.1-3.1c0-3.2,2.8-3.6,4-3.6
				c0.4,0,0.7,0,0.9,0.1V2.8z M208,4.9c-0.3-0.2-0.5-0.5-1.2-0.5c-1.2,0-1.9,1-1.9,2.4c0,1.9,1.2,3,2.3,3c0.4,0,0.7-0.1,0.8-0.2V4.9
				z"/>
			<path fill="#CCCCCC" d="M211.7,10l0.3,0c0.5-0.1,0.6-0.2,0.6-0.9V5.8c0-0.5,0-1.1-0.4-1.1c-0.2,0-0.4,0.1-0.4,0.1V4.4
				c1-0.3,1.8-0.5,2.5-0.5v5.2c0,0.7,0.1,0.9,0.6,0.9l0.3,0v0.4h-3.4V10z M212.3,1.7c0-0.5,0.4-1,1-1c0.5,0,1,0.4,1,1
				c0,0.6-0.4,1-1,1C212.7,2.7,212.3,2.3,212.3,1.7z"/>
			<path fill="#CCCCCC" d="M222.3,9.7c-0.4,0.3-1.2,0.9-2.6,0.9c-1.6,0-3.3-1-3.3-3.3c0-2.2,1.6-3.5,3.2-3.5c2.2,0,2.6,1.5,2.8,2.3
				c-1.2,0.6-2.7,1-4.2,1.3c0.2,0.8,0.6,2.3,2.5,2.3c0.7,0,1.3-0.3,1.5-0.4L222.3,9.7z M220.7,6.2c-0.1-1-0.5-1.8-1.4-1.8
				c-1.2,0-1.2,2.2-1.2,2.4C219,6.7,219.8,6.5,220.7,6.2z"/>
			<path fill="#CCCCCC" d="M227.1,6c0-0.5-0.3-1.6-1.4-1.6c-0.4,0-0.8,0.4-0.8,0.9c0,1.5,3.1,1.2,3.1,3.3c0,1.1-0.8,2-2.6,2
				c-0.8,0-1.4-0.2-1.9-0.4c-0.1-0.6-0.2-1.1-0.2-2h0.6c0.1,0.8,0.7,1.9,1.8,1.9c0.6,0,0.9-0.4,0.9-0.9c0-1.7-3.1-1.3-3.1-3.5
				c0-0.1,0-1.8,2.5-1.8c0.7,0,1.3,0.2,1.7,0.4c0.1,0.5,0.2,1.2,0.2,1.7H227.1z"/>
			<path fill="#CCCCCC" d="M123,20.4c-0.2,0.3-1.1,1.2-1.9,1.2c-0.3,0-0.4-0.3-0.4-0.6c0-0.2,0.1-0.6,0.1-0.9l0.4-2.3
				c0-0.2,0.1-0.4,0.1-0.4c0-0.2,0-0.3-0.2-0.3c-0.2,0-0.6,0.4-0.7,0.5l-0.2-0.2c0.3-0.3,1.2-1.2,1.9-1.2c0.3,0,0.4,0.2,0.4,0.5
				c0,0.1,0,0.3-0.1,0.7l-0.4,2.3c0,0.2-0.1,0.5-0.1,0.6c0,0.1,0,0.3,0.2,0.3c0.2,0,0.5-0.4,0.6-0.6L123,20.4z M121.7,14.7
				c0-0.5,0.3-0.8,0.8-0.8c0.4,0,0.6,0.2,0.6,0.6c0,0.5-0.3,0.8-0.7,0.8C122,15.3,121.7,15.1,121.7,14.7z"/>
			<path fill="#CCCCCC" d="M124.7,18.5c0.1-0.4,0.1-0.9,0.1-1.1c0-0.2-0.1-0.3-0.2-0.3c-0.2,0-0.5,0.4-0.6,0.5l-0.2-0.2
				c0.3-0.3,1.2-1.2,1.9-1.2c0.2,0,0.4,0.2,0.4,0.5c0,0.4-0.2,1.1-0.3,1.3l0,0c0.2-0.4,1.5-1.8,2.6-1.8c0.4,0,0.6,0.2,0.6,0.6
				c0,0.3-0.1,0.5-0.1,0.8l-0.4,2.1c0,0.3-0.1,0.5-0.1,0.6c0,0.1,0,0.3,0.2,0.3c0.2,0,0.5-0.4,0.6-0.6l0.2,0.2
				c-0.2,0.3-1.1,1.2-1.9,1.2c-0.3,0-0.4-0.3-0.4-0.6c0-0.2,0.1-0.6,0.1-0.9l0.4-2.2c0-0.2,0.1-0.4,0.1-0.6c0-0.3-0.1-0.4-0.3-0.4
				c-0.9,0-1.8,2.3-1.9,3.3l-0.2,1.2l-1.2,0.2L124.7,18.5z"/>
			<path fill="#CCCCCC" d="M0,34.1c0-4.6,3.3-7.2,7.2-7.2c3.9,0,7,2.2,7,6.6c0,4.6-3.3,7.2-7.2,7.2C3.1,40.7,0,38.5,0,34.1z
				 M7.2,39.9c2.8,0,4.1-2.7,4.1-5.9c0-3.3-1.2-6.4-4.3-6.4c-2.8,0-4,2.7-4,5.9C2.9,36.9,4.1,39.9,7.2,39.9z"/>
			<path fill="#CCCCCC" d="M17.7,33.9c0-0.7,0-1.6-0.6-1.6c-0.3,0-0.5,0.1-0.6,0.1v-0.5c1.5-0.5,1.9-0.6,3.4-0.9
				c0.1,0.4,0.2,0.8,0.2,1.4c0.4-0.4,1.2-1.4,2.3-1.4c0.8,0,1.3,0.6,1.6,0.9c-0.3,0.6-0.6,1-1.2,1.4c-0.3-0.1-1.5-0.6-1.8-0.6
				c-0.3,0-0.5,0.1-0.8,0.4V38c0,1.4,0,1.7,0.8,1.8l0.8,0.1v0.5h-5.3v-0.5l0.4,0c0.7-0.1,0.8-0.3,0.8-1.3V33.9z"/>
			<path fill="#CCCCCC" d="M34.6,32.2c-0.5,0.1-1.3,0.2-1.8,0.3c0.2,0.2,0.5,0.7,0.5,1.6c0,2.2-1.8,3.2-4,3.2c-0.3,0-0.7,0-1-0.1
				c-0.3,0.1-0.9,0.3-0.9,0.8c0,0.3,0.3,0.7,1.1,0.7c1.9,0.1,3,0,3.9,0.3c1.2,0.4,2,1.1,2,2.4c0,2.3-2.4,3.6-5.5,3.6
				c-2.5,0-4.2-1-4.2-2.8c0-0.9,0.8-1.8,2.3-1.9v0c-0.6-0.2-1.7-0.6-1.7-1.6c0-0.8,1.4-1.4,2-1.7c-0.9-0.3-2.1-0.9-2.1-2.8
				c0-2.1,1.8-3.3,4-3.3c1.7,0,4.8,0.6,5.4,0.7V32.2z M29.7,44.4c1.5,0,2.7-1,2.7-2.2c0-1.2-1.4-1.6-2.9-1.6c-1.3,0-2.5,0.2-2.5,1.4
				C27,43.3,28.1,44.4,29.7,44.4z M29.2,36.6c1.3,0,1.7-1.2,1.7-2.6c0-1.5-0.7-2.3-1.8-2.3c-1,0-1.7,0.9-1.7,2.4
				C27.4,35.5,28.2,36.6,29.2,36.6z"/>
			<path fill="#CCCCCC" d="M44.8,40.2c-0.3,0.1-0.8,0.5-1.7,0.5c-1.3,0-1.6-0.5-2-1c-0.6,0.4-1.4,1-2.8,1c-1.6,0-2.6-0.9-2.6-2.2
				c0-2.5,3.5-3.2,5.2-3.6v-0.5c0-1.2-0.3-2.2-1.7-2.2c-1.5,0-2.1,1.4-2.4,2h-0.2c-0.3-0.4-0.4-0.5-0.5-1c0.9-1,2.3-2.1,4.3-2.1
				c2.5,0,3,1.3,3,3.6V37c0,1.4,0,2.9,1.3,2.9c0.1,0,0.1,0,0.2,0L44.8,40.2z M40.9,35.8c-0.1,0-0.1,0-0.2,0c-1.1,0-2.4,0.6-2.4,2.1
				c0,1,0.6,1.7,1.5,1.7c0.7,0,1.1-0.4,1.2-0.5c0-0.2-0.1-0.7-0.1-1.1V35.8z"/>
			<path fill="#CCCCCC" d="M47.4,33.8c0-0.7,0-1.6-0.6-1.6c-0.3,0-0.6,0.1-0.6,0.1v-0.6c1.5-0.5,2.6-0.7,3.6-0.7v1.2
				c0.5-0.4,1.5-1.2,3.2-1.2c1.8,0,3,0.9,3,3.6v3.9c0,1.1,0.1,1.3,0.8,1.3l0.4,0v0.5h-4.9v-0.5l0.4,0c0.7-0.1,0.8-0.3,0.8-1.3v-2.8
				c0-1.6,0-3.5-2.1-3.5c-0.8,0-1.3,0.4-1.7,0.8v5.6c0,1.1,0.1,1.3,0.8,1.3l0.4,0v0.5h-4.8v-0.5l0.4,0c0.7-0.1,0.8-0.3,0.8-1.3V33.8
				z"/>
			<path fill="#CCCCCC" d="M59,39.9l0.4,0c0.7-0.1,0.8-0.3,0.8-1.3v-4.7c0-0.7,0-1.6-0.6-1.6c-0.3,0-0.6,0.1-0.6,0.1v-0.6
				c1.5-0.5,2.6-0.7,3.6-0.7v7.5c0,1.1,0.1,1.3,0.8,1.3l0.4,0v0.5H59V39.9z M59.9,27.9c0-0.8,0.6-1.4,1.4-1.4c0.8,0,1.4,0.6,1.4,1.4
				c0,0.8-0.6,1.4-1.4,1.4C60.5,29.3,59.9,28.7,59.9,27.9z"/>
			<path fill="#CCCCCC" d="M65.3,40.1c0.9-1.1,5.3-6.9,6.1-8H69c-1.5,0-1.9,0.4-2.2,2.3H66c0-1.2,0.2-2.4,0.3-3.1h7.8l0.2,0.3
				c-0.8,1-5.2,6.9-5.9,7.9c0.6,0.1,1.2,0.1,1.8,0.1c2.9,0,3.1-0.9,3.6-2.7l0.7,0.1c-0.1,1-0.4,2.3-0.7,3.3h-8.3L65.3,40.1z"/>
			<path fill="#CCCCCC" d="M85,40.2c-0.3,0.1-0.8,0.5-1.7,0.5c-1.3,0-1.6-0.5-2-1c-0.6,0.4-1.4,1-2.8,1c-1.6,0-2.6-0.9-2.6-2.2
				c0-2.5,3.5-3.2,5.2-3.6v-0.5c0-1.2-0.3-2.2-1.7-2.2c-1.5,0-2.1,1.4-2.4,2h-0.2c-0.3-0.4-0.4-0.5-0.5-1c0.9-1,2.3-2.1,4.3-2.1
				c2.5,0,3,1.3,3,3.6V37c0,1.4,0,2.9,1.3,2.9c0.1,0,0.1,0,0.2,0L85,40.2z M81.1,35.8c-0.1,0-0.1,0-0.2,0c-1.1,0-2.4,0.6-2.4,2.1
				c0,1,0.6,1.7,1.5,1.7c0.7,0,1.1-0.4,1.2-0.5c0-0.2-0.1-0.7-0.1-1.1V35.8z"/>
			<path fill="#CCCCCC" d="M92.6,39.9c-0.4,0.2-1.5,0.8-3,0.8c-2.3,0-2.3-2-2.3-3.5v-5c-0.5-0.1-1.1-0.1-1.5-0.2v-0.5
				c0.4-0.1,1-0.1,1.5-0.2v-0.9c0.8-0.7,1.4-1.2,2.4-1.7l0.2,0.1c-0.1,0.3-0.2,1.8-0.2,2.4c0.4,0,1.7,0.1,2.2,0.2V32
				c-0.8,0.1-1.5,0.2-2.2,0.2V36c0,2,0,3.5,1.7,3.6c0.5,0,0.8-0.1,1-0.2L92.6,39.9z"/>
			<path fill="#CCCCCC" d="M93.6,39.9l0.4,0c0.7-0.1,0.8-0.3,0.8-1.3v-4.7c0-0.7,0-1.6-0.6-1.6c-0.3,0-0.6,0.1-0.6,0.1v-0.6
				c1.5-0.5,2.6-0.7,3.6-0.7v7.5c0,1.1,0.1,1.3,0.8,1.3l0.4,0v0.5h-4.9V39.9z M94.5,27.9c0-0.8,0.6-1.4,1.4-1.4
				c0.8,0,1.4,0.6,1.4,1.4c0,0.8-0.6,1.4-1.4,1.4C95.1,29.3,94.5,28.7,94.5,27.9z"/>
			<path fill="#CCCCCC" d="M100.5,36c0-3.4,2.6-5,5.1-5c2.6,0,5,1.4,5,4.7c0,3.6-2.6,5-5.1,5C102.9,40.7,100.5,39.3,100.5,36z
				 M105.7,39.9c1.9,0,2.3-2.3,2.3-3.9c0-2.1-0.6-4.3-2.6-4.3c-1.8,0-2.3,2.1-2.3,3.8C103,37.6,103.8,39.9,105.7,39.9z"/>
			<path fill="#CCCCCC" d="M113.9,33.8c0-0.7,0-1.6-0.6-1.6c-0.3,0-0.6,0.1-0.6,0.1v-0.6c1.5-0.5,2.6-0.7,3.6-0.7v1.2
				c0.5-0.4,1.5-1.2,3.2-1.2c1.8,0,3,0.9,3,3.6v3.9c0,1.1,0.1,1.3,0.8,1.3l0.4,0v0.5h-4.9v-0.5l0.4,0c0.7-0.1,0.8-0.3,0.8-1.3v-2.8
				c0-1.6,0-3.5-2.1-3.5c-0.8,0-1.3,0.4-1.7,0.8v5.6c0,1.1,0.1,1.3,0.8,1.3l0.4,0v0.5h-4.8v-0.5l0.4,0c0.7-0.1,0.8-0.3,0.8-1.3V33.8
				z"/>
			<path fill="#CCCCCC" d="M134.6,40.2c-0.3,0.1-0.8,0.5-1.7,0.5c-1.3,0-1.6-0.5-2-1c-0.6,0.4-1.4,1-2.8,1c-1.6,0-2.6-0.9-2.6-2.2
				c0-2.5,3.5-3.2,5.2-3.6v-0.5c0-1.2-0.3-2.2-1.7-2.2c-1.5,0-2.1,1.4-2.4,2h-0.2c-0.3-0.4-0.4-0.5-0.5-1c0.9-1,2.3-2.1,4.3-2.1
				c2.5,0,3,1.3,3,3.6V37c0,1.4,0,2.9,1.3,2.9c0.1,0,0.1,0,0.2,0L134.6,40.2z M130.7,35.8c-0.1,0-0.1,0-0.2,0
				c-1.1,0-2.4,0.6-2.4,2.1c0,1,0.6,1.7,1.5,1.7c0.7,0,1.1-0.4,1.2-0.5c0-0.2-0.1-0.7-0.1-1.1V35.8z"/>
			<path fill="#CCCCCC" d="M135.9,39.9l0.4,0c0.7-0.1,0.8-0.3,0.8-1.3v-9c0-1.8,0-2.5-0.7-2.5c-0.2,0-0.5,0-0.6,0v-0.5
				c1.7-0.3,2.6-0.5,3.6-0.5v12.5c0,1.1,0.1,1.3,0.8,1.3l0.4,0v0.5h-4.9V39.9z"/>
			<path fill="#CCCCCC" d="M148.9,39.9l0.5-0.1c0.9-0.2,0.9-0.1,0.9-2.4v-7.3c0-1.9,0-2.2-0.9-2.3l-0.5-0.1v-0.5h5.4v0.5l-0.5,0.1
				c-0.9,0.1-0.9,0.4-0.9,2.3v9.3c0.6,0.1,1.2,0.3,1.8,0.3c2.8,0,2.8-1.4,3.4-3l0.7,0.1c-0.1,1.3-0.3,2.4-0.7,3.6h-9.3V39.9z"/>
			<path fill="#CCCCCC" d="M168.6,39.4c-0.5,0.4-1.8,1.3-3.8,1.3c-2.4,0-4.7-1.5-4.7-4.7c0-3.2,2.3-5,4.6-5c3.2,0,3.7,2.1,4,3.3
				c-1.7,0.8-3.9,1.4-6,1.9c0.2,1.2,0.8,3.4,3.6,3.4c1.1,0,1.9-0.4,2.2-0.6L168.6,39.4z M166.3,34.4c-0.1-1.4-0.7-2.6-2-2.6
				c-1.7,0-1.7,3.1-1.7,3.5C163.8,35,165.1,34.8,166.3,34.4z"/>
			<path fill="#CCCCCC" d="M179.3,40.2c-0.3,0.1-0.8,0.5-1.7,0.5c-1.3,0-1.6-0.5-2-1c-0.6,0.4-1.4,1-2.8,1c-1.6,0-2.6-0.9-2.6-2.2
				c0-2.5,3.5-3.2,5.2-3.6v-0.5c0-1.2-0.3-2.2-1.7-2.2c-1.5,0-2.1,1.4-2.4,2h-0.2c-0.3-0.4-0.4-0.5-0.5-1c0.9-1,2.3-2.1,4.3-2.1
				c2.5,0,3,1.3,3,3.6V37c0,1.4,0,2.9,1.3,2.9c0.1,0,0.1,0,0.2,0L179.3,40.2z M175.4,35.8c-0.1,0-0.1,0-0.2,0
				c-1.1,0-2.4,0.6-2.4,2.1c0,1,0.6,1.7,1.5,1.7c0.7,0,1.1-0.4,1.2-0.5c0-0.2-0.1-0.7-0.1-1.1V35.8z"/>
			<path fill="#CCCCCC" d="M187.8,29.5c0-1.8,0-2.5-0.7-2.5c-0.2,0-0.5,0-0.6,0v-0.5c1.7-0.3,2.6-0.5,3.6-0.5v11.3
				c0,1.6,0,2,0.9,2.1h0.4l0.1,0.5c-1,0.4-2.1,0.6-3.2,0.8l-0.5-0.9c-0.5,0.3-1.5,0.9-2.7,0.9c-2.2,0-4.4-1.4-4.4-4.5
				c0-4.6,4.1-5.2,5.7-5.2c0.6,0,0.9,0.1,1.3,0.1V29.5z M187.8,32.5c-0.4-0.3-0.8-0.7-1.7-0.7c-1.8,0-2.8,1.5-2.8,3.5
				c0,2.7,1.7,4.3,3.3,4.3c0.5,0,0.9-0.2,1.2-0.4V32.5z"/>
			<path fill="#CCCCCC" d="M201.6,39.4c-0.5,0.4-1.8,1.3-3.8,1.3c-2.4,0-4.7-1.5-4.7-4.7c0-3.2,2.3-5,4.6-5c3.2,0,3.7,2.1,4,3.3
				c-1.7,0.8-3.9,1.4-6,1.9c0.2,1.2,0.8,3.4,3.6,3.4c1.1,0,1.9-0.4,2.2-0.6L201.6,39.4z M199.3,34.4c-0.1-1.4-0.7-2.6-2-2.6
				c-1.7,0-1.7,3.1-1.7,3.5C196.8,35,198.1,34.8,199.3,34.4z"/>
			<path fill="#CCCCCC" d="M204.4,33.9c0-0.7,0-1.6-0.6-1.6c-0.3,0-0.5,0.1-0.6,0.1v-0.5c1.5-0.5,1.9-0.6,3.4-0.9
				c0.1,0.4,0.2,0.8,0.2,1.4c0.4-0.4,1.2-1.4,2.3-1.4c0.8,0,1.3,0.6,1.6,0.9c-0.3,0.6-0.6,1-1.2,1.4c-0.3-0.1-1.5-0.6-1.8-0.6
				c-0.3,0-0.5,0.1-0.8,0.4V38c0,1.4,0,1.7,0.8,1.8l0.8,0.1v0.5h-5.3v-0.5l0.4,0c0.7-0.1,0.8-0.3,0.8-1.3V33.9z"/>
			<path fill="#CCCCCC" d="M216.8,34c-0.1-0.7-0.5-2.3-2-2.3c-0.6,0-1.1,0.5-1.1,1.2c0,2.1,4.5,1.8,4.5,4.8c0,1.5-1.1,2.9-3.8,2.9
				c-1.2,0-2-0.3-2.8-0.6c-0.2-0.8-0.4-1.6-0.4-2.8h0.8c0.1,1.1,1,2.7,2.5,2.7c0.8,0,1.3-0.6,1.3-1.3c0-2.4-4.5-1.8-4.5-5
				c0-0.2,0-2.6,3.6-2.6c1.1,0,1.9,0.3,2.4,0.6c0.2,0.8,0.2,1.7,0.2,2.5H216.8z"/>
			<path fill="#CCCCCC" d="M221.2,29.5c0-1.7,0-2.5-0.7-2.5c-0.2,0-0.5,0-0.6,0v-0.5c1.7-0.3,2.6-0.5,3.6-0.5v6.2
				c0.6-0.5,1.6-1.2,3.2-1.2c3.1,0,3.1,2.6,3.1,4v3.5c0,1.1,0.1,1.2,0.8,1.3l0.4,0v0.5h-4.9v-0.5l0.4,0c0.7-0.1,0.8-0.3,0.8-1.3
				v-3.8c0-1.5-0.7-2.5-2.1-2.5c-0.9,0-1.5,0.6-1.8,0.8v5.5c0,1.1,0.1,1.2,0.8,1.3l0.4,0v0.5h-4.9v-0.5l0.4,0
				c0.7-0.1,0.8-0.3,0.8-1.3V29.5z"/>
			<path fill="#CCCCCC" d="M232.9,39.9l0.4,0c0.7-0.1,0.8-0.3,0.8-1.3v-4.7c0-0.7,0-1.6-0.6-1.6c-0.3,0-0.6,0.1-0.6,0.1v-0.6
				c1.5-0.5,2.6-0.7,3.6-0.7v7.5c0,1.1,0.1,1.3,0.8,1.3l0.4,0v0.5h-4.9V39.9z M233.8,27.9c0-0.8,0.6-1.4,1.4-1.4
				c0.8,0,1.4,0.6,1.4,1.4c0,0.8-0.6,1.4-1.4,1.4C234.4,29.3,233.8,28.7,233.8,27.9z"/>
			<path fill="#CCCCCC" d="M240.7,33.8c0-0.7,0-1.6-0.6-1.6c-0.3,0-0.5,0.1-0.6,0.1v-0.5c1.1-0.4,2.3-0.8,3.4-0.8
				c0.1,0.3,0.2,0.8,0.2,0.8c0.4-0.3,1.3-0.8,2.6-0.8c2.4,0,4.3,1.7,4.3,4.5c0,3.8-3,5.2-5.5,5.2c-0.7,0-1.1-0.1-1.4-0.1v2.3
				c0,1,0.1,1.3,0.9,1.3l0.8,0.1v0.5h-5.3v-0.5l0.4-0.1c0.7-0.1,0.8-0.3,0.8-1.3V33.8z M243.1,39.2c0.4,0.3,0.8,0.7,1.8,0.7
				c1.7,0,2.5-1.6,2.5-3.8c0-2.1-1.3-3.9-3.4-3.9c-0.3,0-0.6,0-0.9,0.2V39.2z"/>
			<path fill="#CCCCCC" d="M42.7,58.2c-0.3,0.4-1,1.3-1.9,1.3c-0.2,0-0.4-0.2-0.4-0.5c0-0.2,0.1-0.8,0.2-1.1l0,0
				c-0.4,0.5-1.2,1.7-2.4,1.7c-0.6,0-0.8-0.4-0.8-1.1c0-2,1.7-4.3,4.2-4.3c0.2,0,0.6,0,0.8,0.1l-0.3,2c-0.1,0.7-0.3,2-0.3,2.2
				c0,0.1,0,0.2,0.2,0.2c0.2,0,0.6-0.5,0.7-0.6L42.7,58.2z M39.1,58.7c0.6,0,1.2-1.1,1.6-2.1c0.2-0.5,0.4-1.9,0.4-2.1
				c-0.2-0.1-0.4-0.1-0.5-0.1c-0.9,0-1.9,1.9-1.9,3.5C38.7,58.4,38.8,58.7,39.1,58.7z"/>
			<path fill="#CCCCCC" d="M44.3,56.3c0.1-0.4,0.1-0.9,0.1-1.1c0-0.2-0.1-0.3-0.2-0.3c-0.2,0-0.5,0.4-0.6,0.5l-0.2-0.2
				c0.3-0.3,1.2-1.2,1.9-1.2c0.2,0,0.4,0.2,0.4,0.5c0,0.4-0.2,1.1-0.3,1.3l0,0c0.2-0.4,1.5-1.8,2.6-1.8c0.4,0,0.6,0.2,0.6,0.6
				c0,0.3-0.1,0.5-0.1,0.8l-0.4,2.1c0,0.3-0.1,0.5-0.1,0.6c0,0.1,0,0.3,0.2,0.3c0.2,0,0.5-0.4,0.6-0.6l0.2,0.2
				c-0.2,0.3-1.1,1.2-1.9,1.2c-0.3,0-0.4-0.3-0.4-0.6c0-0.2,0.1-0.6,0.1-0.9l0.4-2.2c0-0.2,0.1-0.4,0.1-0.6c0-0.3-0.1-0.4-0.3-0.4
				c-0.9,0-1.8,2.3-1.9,3.3L45,59.3l-1.2,0.2L44.3,56.3z"/>
			<path fill="#CCCCCC" d="M55.2,58.3c-0.3,0.3-1.1,1.2-1.8,1.2c-0.3,0-0.5-0.2-0.5-0.4c0-0.4,0.2-1.2,0.2-1.5l0,0
				c-0.2,0.5-1.2,1.9-2.4,1.9c-0.6,0-0.9-0.6-0.9-1.3c0-1.8,1.4-4.1,3.6-4.1h0.2l0.2-1.2c0-0.2,0.1-0.4,0.1-0.6
				c0-0.3-0.1-0.3-0.2-0.3c-0.2,0-0.5,0.2-0.6,0.3L53,52.1c0.3-0.2,1.4-0.8,1.9-0.8c0.2,0,0.4,0,0.4,0.3c0,0.1,0,0.4-0.1,0.8l-1,5.5
				c0,0.1-0.1,0.3-0.1,0.4c0,0.2,0,0.3,0.2,0.3c0.2,0,0.6-0.4,0.7-0.6L55.2,58.3z M51.6,58.7c0.5,0,1-0.9,1.2-1.4
				c0.4-0.9,0.6-1.6,0.7-2.6c-0.1-0.1-0.2-0.2-0.6-0.2c-1,0-1.8,2-1.8,3.3C51.2,58.3,51.3,58.7,51.6,58.7z"/>
			<path fill="#CCCCCC" d="M72.4,55.2c-0.1,1.4-0.3,2.6-0.8,3.6c-0.8,0.3-2,0.8-4.2,0.8c-3.8,0-7.5-1.6-7.5-6.8c0-4.8,3.7-7,7.5-7
				c2.1,0,3.4,0.5,4.2,0.9c0.1,0.7,0.3,1.3,0.3,3.3l-0.7,0.1c-0.2-0.8-0.6-3.5-3.8-3.5c-2.8,0-4.5,2.4-4.5,5.9c0,0.7,0,6.4,4.6,6.4
				c3.6,0,4.1-3.6,4.2-3.7L72.4,55.2z"/>
			<path fill="#CCCCCC" d="M74.2,54.9c0-3.4,2.6-5,5.1-5c2.6,0,5,1.4,5,4.7c0,3.6-2.6,5-5.1,5C76.6,59.6,74.2,58.2,74.2,54.9z
				 M79.4,58.9c1.9,0,2.3-2.3,2.3-3.9c0-2.1-0.6-4.3-2.6-4.3c-1.8,0-2.3,2.1-2.3,3.8C76.7,56.5,77.5,58.9,79.4,58.9z"/>
			<path fill="#CCCCCC" d="M87.6,52.7c0-0.7,0-1.6-0.6-1.6c-0.3,0-0.6,0.1-0.6,0.1v-0.6c1.5-0.5,2.6-0.7,3.6-0.7v1.2
				c0.4-0.4,1.4-1.2,2.9-1.2c1.7,0,2.2,0.6,2.6,1.2c0.4-0.4,1.6-1.2,3-1.2c3.1,0,3.2,2.4,3.2,4.6v2.9c0,1.1,0.1,1.3,0.8,1.3l0.4,0
				v0.5h-4.9v-0.5l0.4,0c0.7-0.1,0.8-0.3,0.8-1.3v-2.8c0-1.5,0-3.5-1.9-3.5c-0.8,0-1.4,0.4-1.7,0.7c0.1,0.3,0.1,0.6,0.1,1v4.6
				c0,1.1,0.1,1.3,0.8,1.3l0.4,0v0.5h-4.9v-0.5l0.4,0c0.7-0.1,0.8-0.3,0.8-1.3v-3.7c0-0.9,0-2.5-1.8-2.6c-0.9,0-1.4,0.6-1.7,0.8v5.5
				c0,1.1,0.1,1.3,0.8,1.3l0.4,0v0.5h-4.8v-0.5l0.4,0c0.7-0.1,0.8-0.3,0.8-1.3V52.7z"/>
			<path fill="#CCCCCC" d="M105.9,52.7c0-0.7,0-1.6-0.6-1.6c-0.3,0-0.6,0.1-0.6,0.1v-0.6c1.5-0.5,2.6-0.7,3.6-0.7v1.2
				c0.4-0.4,1.4-1.2,2.9-1.2c1.7,0,2.2,0.6,2.6,1.2c0.4-0.4,1.6-1.2,3-1.2c3.1,0,3.2,2.4,3.2,4.6v2.9c0,1.1,0.1,1.3,0.8,1.3l0.4,0
				v0.5h-4.9v-0.5l0.4,0c0.7-0.1,0.8-0.3,0.8-1.3v-2.8c0-1.5,0-3.5-1.9-3.5c-0.8,0-1.4,0.4-1.7,0.7c0.1,0.3,0.1,0.6,0.1,1v4.6
				c0,1.1,0.1,1.3,0.8,1.3l0.4,0v0.5h-4.9v-0.5l0.4,0c0.7-0.1,0.8-0.3,0.8-1.3v-3.7c0-0.9,0-2.5-1.8-2.6c-0.9,0-1.4,0.6-1.7,0.8v5.5
				c0,1.1,0.1,1.3,0.8,1.3l0.4,0v0.5h-4.8v-0.5l0.4,0c0.7-0.1,0.8-0.3,0.8-1.3V52.7z"/>
			<path fill="#CCCCCC" d="M130,58.6c-0.6,0.4-1.5,1-3,1c-3.1,0-3.2-1.8-3.2-4v-2.9c0-0.7,0-1.6-0.6-1.6c-0.3,0-0.6,0.1-0.6,0.1
				v-0.6c1.5-0.5,2.6-0.7,3.6-0.7v5.6c0,1.6,0.3,2.9,2.3,2.9c0.8,0,1.2-0.4,1.5-0.5v-5.3c0-0.7,0-1.6-0.6-1.6
				c-0.3,0-0.6,0.1-0.6,0.1v-0.6c1.5-0.5,2.6-0.7,3.6-0.7v6c0,1.6,0,2.4,0.7,2.4c0.1,0,0.4,0,0.6,0l0,0.5c-0.9,0.3-2,0.6-3,0.8
				L130,58.6z"/>
			<path fill="#CCCCCC" d="M136.6,52.7c0-0.7,0-1.6-0.6-1.6c-0.3,0-0.6,0.1-0.6,0.1v-0.6c1.5-0.5,2.6-0.7,3.6-0.7v1.2
				c0.5-0.4,1.5-1.2,3.2-1.2c1.8,0,3,0.9,3,3.6v3.9c0,1.1,0.1,1.3,0.8,1.3l0.4,0v0.5h-4.9v-0.5l0.4,0c0.7-0.1,0.8-0.3,0.8-1.3v-2.8
				c0-1.6,0-3.5-2.1-3.5c-0.8,0-1.3,0.4-1.7,0.8v5.6c0,1.1,0.1,1.3,0.8,1.3l0.4,0v0.5h-4.8v-0.5l0.4,0c0.7-0.1,0.8-0.3,0.8-1.3V52.7
				z"/>
			<path fill="#CCCCCC" d="M148.2,58.8l0.4,0c0.7-0.1,0.8-0.3,0.8-1.3v-4.7c0-0.7,0-1.6-0.6-1.6c-0.3,0-0.6,0.1-0.6,0.1v-0.6
				c1.5-0.5,2.6-0.7,3.6-0.7v7.5c0,1.1,0.1,1.3,0.8,1.3l0.4,0v0.5h-4.9V58.8z M149.1,46.8c0-0.8,0.6-1.4,1.4-1.4
				c0.8,0,1.4,0.6,1.4,1.4c0,0.8-0.6,1.4-1.4,1.4C149.7,48.2,149.1,47.6,149.1,46.8z"/>
			<path fill="#CCCCCC" d="M163.1,58.6c-0.6,0.5-1.7,1-3.6,1c-2.2,0-4.7-1.5-4.7-4.4c0-3.7,3-5.3,5.3-5.3c1.4,0,2.2,0.3,2.7,0.7
				c-0.1,0.7-0.3,1-0.8,1.6h-0.2c-0.4-0.5-1.1-1.3-2.3-1.3c-1.3,0-2.2,1.2-2.2,3.2c0,3,1.7,4.3,3.7,4.3c0.7,0,1.5-0.2,1.8-0.3
				L163.1,58.6z"/>
			<path fill="#CCCCCC" d="M173.4,59.1c-0.3,0.1-0.8,0.5-1.7,0.5c-1.3,0-1.6-0.5-2-1c-0.6,0.4-1.4,1-2.8,1c-1.6,0-2.6-0.9-2.6-2.2
				c0-2.5,3.5-3.2,5.2-3.6v-0.5c0-1.2-0.3-2.2-1.7-2.2c-1.5,0-2.1,1.4-2.4,2h-0.2c-0.3-0.4-0.4-0.5-0.5-1c0.9-1,2.3-2.1,4.3-2.1
				c2.5,0,3,1.3,3,3.6v2.5c0,1.4,0,2.9,1.3,2.9c0.1,0,0.1,0,0.2,0L173.4,59.1z M169.5,54.7c-0.1,0-0.1,0-0.2,0
				c-1.1,0-2.4,0.6-2.4,2.1c0,1,0.6,1.7,1.5,1.7c0.7,0,1.1-0.4,1.2-0.5c0-0.2-0.1-0.7-0.1-1.1V54.7z"/>
			<path fill="#CCCCCC" d="M181,58.8c-0.4,0.2-1.5,0.8-3,0.8c-2.3,0-2.3-2-2.3-3.5v-5c-0.5-0.1-1.1-0.1-1.5-0.2v-0.5
				c0.4-0.1,1-0.1,1.5-0.2v-0.9c0.8-0.7,1.4-1.2,2.4-1.7l0.2,0.1c-0.1,0.3-0.2,1.8-0.2,2.4c0.4,0,1.7,0.1,2.2,0.2v0.5
				c-0.8,0.1-1.5,0.2-2.2,0.2v3.8c0,2,0,3.5,1.7,3.6c0.5,0,0.8-0.1,1-0.2L181,58.8z"/>
			<path fill="#CCCCCC" d="M182,58.8l0.4,0c0.7-0.1,0.8-0.3,0.8-1.3v-4.7c0-0.7,0-1.6-0.6-1.6c-0.3,0-0.6,0.1-0.6,0.1v-0.6
				c1.5-0.5,2.6-0.7,3.6-0.7v7.5c0,1.1,0.1,1.3,0.8,1.3l0.4,0v0.5H182V58.8z M182.9,46.8c0-0.8,0.6-1.4,1.4-1.4
				c0.8,0,1.4,0.6,1.4,1.4c0,0.8-0.6,1.4-1.4,1.4C183.5,48.2,182.9,47.6,182.9,46.8z"/>
			<path fill="#CCCCCC" d="M188.9,54.9c0-3.4,2.6-5,5.1-5c2.6,0,5,1.4,5,4.7c0,3.6-2.6,5-5.1,5S188.9,58.2,188.9,54.9z M194.1,58.9
				c1.9,0,2.3-2.3,2.3-3.9c0-2.1-0.6-4.3-2.6-4.3c-1.8,0-2.3,2.1-2.3,3.8C191.5,56.5,192.2,58.9,194.1,58.9z"/>
			<path fill="#CCCCCC" d="M202.3,52.7c0-0.7,0-1.6-0.6-1.6c-0.3,0-0.6,0.1-0.6,0.1v-0.6c1.5-0.5,2.6-0.7,3.6-0.7v1.2
				c0.5-0.4,1.5-1.2,3.2-1.2c1.8,0,3,0.9,3,3.6v3.9c0,1.1,0.1,1.3,0.8,1.3l0.4,0v0.5h-4.9v-0.5l0.4,0c0.7-0.1,0.8-0.3,0.8-1.3v-2.8
				c0-1.6,0-3.5-2.1-3.5c-0.8,0-1.3,0.4-1.7,0.8v5.6c0,1.1,0.1,1.3,0.8,1.3l0.4,0v0.5h-4.8v-0.5l0.4,0c0.7-0.1,0.8-0.3,0.8-1.3V52.7
				z"/>
		</g>
	</g>
	<g>
		<g>
			<line fill="none" stroke="#CCCCCC" stroke-width="1.0916" stroke-miterlimit="10" x1="118.1" y1="19.6" x2="42.5" y2="19.6"/>
			<line fill="none" stroke="#CCCCCC" stroke-width="1.0916" stroke-miterlimit="10" x1="207.2" y1="19.6" x2="131.6" y2="19.6"/>
		</g>
	</g>
</g>
</svg>
