<?xml version="1.0" encoding="utf-8"?>
<!-- Generator: Adobe Illustrator 19.1.0, SVG Export Plug-In . SVG Version: 6.00 Build 0)  -->
<svg version="1.1" id="Layer_1" xmlns="http://www.w3.org/2000/svg" xmlns:xlink="http://www.w3.org/1999/xlink" x="0px" y="0px"
	 viewBox="57 14.1 234.5 92.9" style="enable-background:new 57 14.1 234.5 92.9;" xml:space="preserve">
<style type="text/css">
	.st0{opacity:0.5;}
	.st1{fill:#6C6C6C;}
	.st2{fill:#BABABA;}
	.st3{fill:#B0B0B0;}
	.st4{fill:#808080;}
</style>
<g class="st0">
	<g>
		<polygon class="st1" points="118.8,86.9 96.4,73.9 83.2,95.6 61.7,84.7 61.7,101.4 131.4,101.4 131.4,55.1 		"/>
		<polygon class="st2" points="78.8,81.1 92.3,58.6 113.3,71 128.5,31.5 61.7,31.5 61.7,72.4 		"/>
		<polygon class="st3" points="136.7,19.7 119.7,26.2 136,21 144.2,38 135.1,33.6 116.9,81.2 94.8,68.1 81.7,90.1 61.7,80 
			61.7,85.1 83.3,95.9 96.5,74.1 118.9,87.2 137.8,39.2 151.7,45.5 		"/>
	</g>
	<g>
		<g>
			<g>
				<path class="st4" d="M159.5,97.7c0,1.9-1.1,2.9-2.8,2.9s-2.7-1-2.7-2.8v-3.7h1.1v3.6c0,1.2,0.6,1.8,1.6,1.8s1.6-0.6,1.6-1.8V94
					h1.1L159.5,97.7L159.5,97.7z"/>
				<path class="st4" d="M165.6,94.1h1.1v6.4h-0.9l-3.6-4.6v4.6h-1.1v-6.4h1l3.5,4.5V94.1z"/>
				<path class="st4" d="M169.6,94.1v6.4h-1.2v-6.4H169.6z"/>
				<path class="st4" d="M175.9,94.1h1.2l-2.7,6.5h-1l-2.7-6.5h1.3l1.9,5L175.9,94.1z"/>
				<path class="st4" d="M183,95.1h-3.6v1.6h3.2v1h-3.2v1.7h3.7v1h-4.8V94h4.8L183,95.1L183,95.1z"/>
				<path class="st4" d="M188.5,100.5l-1.6-2.2h-1.4v2.2h-1.1v-6.4h2.9c1.5,0,2.4,0.8,2.4,2c0,1.1-0.6,1.7-1.5,2l1.7,2.4H188.5z
					 M187.1,95.1h-1.6v2.2h1.7c0.8,0,1.3-0.4,1.3-1.1S188,95.1,187.1,95.1z"/>
				<path class="st4" d="M193.5,96.8c1.4,0.3,2.1,0.8,2.1,1.9c0,1.2-0.9,1.9-2.3,1.9c-1,0-1.9-0.3-2.7-1l0.7-0.8
					c0.6,0.5,1.2,0.8,2,0.8c0.7,0,1.1-0.3,1.1-0.8s-0.3-0.7-1.5-1c-1.4-0.3-2.1-0.7-2.1-1.9c0-1.1,0.9-1.9,2.2-1.9
					c0.9,0,1.7,0.3,2.3,0.8l-0.6,0.9c-0.6-0.4-1.2-0.7-1.7-0.7c-0.7,0-1,0.3-1,0.8C192,96.2,192.2,96.5,193.5,96.8z"/>
				<path class="st4" d="M198.1,94.1v6.4H197v-6.4H198.1z"/>
				<path class="st4" d="M202.5,100.5h-1.1v-5.4h-2v-1h5.2v1h-2L202.5,100.5L202.5,100.5z"/>
				<path class="st4" d="M208.8,100.5h-1.1V98l-2.6-3.9h1.3l1.8,2.9l1.8-2.9h1.3l-2.6,3.9v2.5H208.8z"/>
				<path class="st4" d="M218.2,100.6c-2,0-3.4-1.5-3.4-3.3s1.4-3.3,3.4-3.3s3.4,1.5,3.4,3.3S220.2,100.6,218.2,100.6z M218.2,95
					c-1.3,0-2.2,1-2.2,2.3s0.9,2.3,2.2,2.3s2.2-1,2.2-2.3S219.5,95,218.2,95z"/>
				<path class="st4" d="M227.7,95.1H224v1.8h3.2v1H224v2.6h-1.1v-6.4h4.8V95.1z"/>
				<path class="st4" d="M235.5,94h1l1.6,4.8l1.5-4.8h1.2l-2.2,6.5h-1l-1.6-4.6l-1.6,4.6h-1l-2.2-6.5h1.2l1.5,4.8L235.5,94z"/>
				<path class="st4" d="M243.1,94.1v6.4H242v-6.4H243.1z"/>
				<path class="st4" d="M247.3,96.8c1.4,0.3,2.1,0.8,2.1,1.9c0,1.2-0.9,1.9-2.3,1.9c-1,0-1.9-0.3-2.7-1l0.7-0.8
					c0.6,0.5,1.2,0.8,2,0.8c0.7,0,1.1-0.3,1.1-0.8s-0.3-0.7-1.5-1c-1.4-0.3-2.1-0.7-2.1-1.9c0-1.1,0.9-1.9,2.2-1.9
					c0.9,0,1.7,0.3,2.3,0.8l-0.6,0.9c-0.6-0.4-1.2-0.7-1.7-0.7c-0.7,0-1,0.3-1,0.8C245.8,96.2,246.1,96.5,247.3,96.8z"/>
				<path class="st4" d="M253.7,100.6c-1.9,0-3.3-1.5-3.3-3.3s1.4-3.3,3.3-3.3c1.2,0,1.9,0.4,2.5,1l-0.7,0.8
					c-0.5-0.5-1.1-0.8-1.8-0.8c-1.2,0-2.1,1-2.1,2.3s0.9,2.3,2.1,2.3c0.8,0,1.3-0.3,1.8-0.8l0.7,0.7
					C255.7,100.2,254.9,100.6,253.7,100.6z"/>
				<path class="st4" d="M260.4,100.6c-2,0-3.4-1.5-3.4-3.3s1.4-3.3,3.4-3.3s3.4,1.5,3.4,3.3S262.4,100.6,260.4,100.6z M260.4,95
					c-1.3,0-2.2,1-2.2,2.3s0.9,2.3,2.2,2.3s2.2-1,2.2-2.3S261.7,95,260.4,95z"/>
				<path class="st4" d="M269.7,94.1h1.1v6.4h-0.9l-3.6-4.6v4.6h-1.1v-6.4h1l3.5,4.5V94.1z"/>
				<path class="st4" d="M274.9,96.8c1.4,0.3,2.1,0.8,2.1,1.9c0,1.2-0.9,1.9-2.3,1.9c-1,0-1.9-0.3-2.7-1l0.7-0.8
					c0.6,0.5,1.2,0.8,2,0.8c0.7,0,1.1-0.3,1.1-0.8s-0.3-0.7-1.5-1c-1.4-0.3-2.1-0.7-2.1-1.9c0-1.1,0.9-1.9,2.2-1.9
					c0.9,0,1.7,0.3,2.3,0.8l-0.6,0.9c-0.6-0.4-1.2-0.7-1.7-0.7c-0.7,0-1,0.3-1,0.8C273.4,96.2,273.7,96.5,274.9,96.8z"/>
				<path class="st4" d="M279.5,94.1v6.4h-1.1v-6.4H279.5z"/>
				<path class="st4" d="M285.7,94.1h1.1v6.4h-0.9l-3.6-4.6v4.6h-1.1v-6.4h1l3.5,4.5V94.1z"/>
			</g>
		</g>
		<g>
			<g>
				<path class="st4" d="M165.7,58.9h-9.2V34.2h9.2c7.8,0,13.1,5.3,13.1,12.3S173.4,58.9,165.7,58.9z M165.7,38.1h-4.9v16.8h4.9
					c5.2,0,8.6-3.5,8.6-8.4C174.3,41.6,170.9,38.1,165.7,38.1z"/>
				<path class="st4" d="M206,58.9h-4.6l-2.5-6h-11.7l-2.5,6h-4.4L191.2,34h4L206,58.9z M193,39.2l-4.2,9.9h8.5L193,39.2z"/>
				<path class="st4" d="M217.5,58.9h-4.4V38.2h-7.8v-4h20v4h-7.8V58.9z"/>
				<path class="st4" d="M250.3,58.9h-4.6l-2.5-6h-11.7l-2.5,6h-4.4L235.4,34h4L250.3,58.9z M237.4,39.2l-4.2,9.9h8.5L237.4,39.2z"
					/>
				<path class="st4" d="M164.1,73.8c4.4,1.1,6.8,2.7,6.8,6.2c0,4-3.1,6.3-7.5,6.3c-3.2,0-6.2-1.1-8.8-3.4l2.2-2.6
					c2,1.7,4,2.7,6.6,2.7c2.3,0,3.7-1.1,3.7-2.7c0-1.5-0.8-2.3-4.7-3.2c-4.5-1.1-7-2.4-7-6.3c0-3.7,3-6.1,7.2-6.1
					c3.1,0,5.5,0.9,7.6,2.6l-2,2.8c-1.9-1.4-3.8-2.2-5.7-2.2c-2.2,0-3.4,1.1-3.4,2.5C159.1,72.1,160.1,72.8,164.1,73.8z"/>
				<path class="st4" d="M183.8,86.4c-6.1,0-10.7-4.8-10.7-10.8s4.5-10.9,10.8-10.9c3.9,0,6.2,1.4,8.2,3.3l-2.4,2.7
					c-1.7-1.6-3.5-2.6-5.9-2.6c-4,0-6.9,3.3-6.9,7.4s2.9,7.5,6.9,7.5c2.6,0,4.2-1.1,6-2.7l2.4,2.4C190.1,84.9,187.7,86.4,183.8,86.4
					z"/>
				<path class="st4" d="M199.5,65v21h-3.7V65H199.5z"/>
				<path class="st4" d="M220.1,68.3h-11.9v5.4h10.5V77h-10.5v5.7h12V86h-15.7V65h15.6L220.1,68.3L220.1,68.3z"/>
				<path class="st4" d="M239.3,65h3.6v21h-3.1l-11.6-15v15h-3.6V65h3.4l11.3,14.5L239.3,65L239.3,65z"/>
				<path class="st4" d="M257.5,86.4c-6.1,0-10.7-4.8-10.7-10.8s4.5-10.9,10.8-10.9c3.9,0,6.2,1.4,8.2,3.3l-2.4,2.7
					c-1.7-1.6-3.5-2.6-5.9-2.6c-4,0-6.9,3.3-6.9,7.4s2.9,7.5,6.9,7.5c2.6,0,4.2-1.1,6-2.7l2.4,2.4C263.8,84.9,261.4,86.4,257.5,86.4
					z"/>
				<path class="st4" d="M285.5,68.3h-11.9v5.4h10.5V77h-10.5v5.7h12V86h-15.7V65h15.6V68.3L285.5,68.3z"/>
			</g>
		</g>
	</g>
</g>
</svg>
