<?xml version="1.0" encoding="utf-8"?>
<!-- Generator: Adobe Illustrator 19.1.0, SVG Export Plug-In . SVG Version: 6.00 Build 0)  -->
<svg version="1.1" id="Layer_1" xmlns="http://www.w3.org/2000/svg" xmlns:xlink="http://www.w3.org/1999/xlink" x="0px" y="0px"
	 viewBox="0 0 234.5 92.9" style="enable-background:new 0 0 234.5 92.9;" xml:space="preserve">
<style type="text/css">
	.st0{fill:#6C6C6C;}
	.st1{fill:#BABABA;}
	.st2{fill:#B0B0B0;}
	.st3{fill:#808080;}
</style>
<g>
	<g>
		<polygon class="st0" points="61.4,73.2 39,60.2 25.8,81.9 4.3,71 4.3,87.7 74,87.7 74,41.4 		"/>
		<polygon class="st1" points="21.4,67.4 34.9,44.9 55.9,57.3 71.1,17.8 4.3,17.8 4.3,58.7 		"/>
		<polygon class="st2" points="79.3,6 62.3,12.5 78.6,7.3 86.8,24.3 77.7,19.9 59.5,67.5 37.4,54.4 24.3,76.4 4.3,66.3 4.3,71.4 
			25.9,82.2 39.1,60.4 61.5,73.5 80.4,25.5 94.3,31.8 		"/>
	</g>
	<g>
		<g>
			<g>
				<path class="st3" d="M102.1,84c0,1.9-1.1,2.9-2.8,2.9c-1.7,0-2.7-1-2.7-2.8v-3.7h1.1V84c0,1.2,0.6,1.8,1.6,1.8
					c1,0,1.6-0.6,1.6-1.8v-3.7h1.1V84z"/>
				<path class="st3" d="M108.2,80.4h1.1v6.4h-0.9l-3.6-4.6v4.6h-1.1v-6.4h1l3.5,4.5V80.4z"/>
				<path class="st3" d="M112.2,80.4v6.4H111v-6.4H112.2z"/>
				<path class="st3" d="M118.5,80.4h1.2l-2.7,6.5h-1l-2.7-6.5h1.3l1.9,5L118.5,80.4z"/>
				<path class="st3" d="M125.6,81.4h-3.6V83h3.2v1h-3.2v1.7h3.7v1h-4.8v-6.4h4.8V81.4z"/>
				<path class="st3" d="M131.1,86.8l-1.6-2.2h-1.4v2.2h-1.1v-6.4h2.9c1.5,0,2.4,0.8,2.4,2c0,1.1-0.6,1.7-1.5,2l1.7,2.4H131.1z
					 M129.7,81.4h-1.6v2.2h1.7c0.8,0,1.3-0.4,1.3-1.1C131.1,81.8,130.6,81.4,129.7,81.4z"/>
				<path class="st3" d="M136.1,83.1c1.4,0.3,2.1,0.8,2.1,1.9c0,1.2-0.9,1.9-2.3,1.9c-1,0-1.9-0.3-2.7-1l0.7-0.8
					c0.6,0.5,1.2,0.8,2,0.8c0.7,0,1.1-0.3,1.1-0.8c0-0.5-0.3-0.7-1.5-1c-1.4-0.3-2.1-0.7-2.1-1.9c0-1.1,0.9-1.9,2.2-1.9
					c0.9,0,1.7,0.3,2.3,0.8l-0.6,0.9c-0.6-0.4-1.2-0.7-1.7-0.7c-0.7,0-1,0.3-1,0.8C134.6,82.5,134.8,82.8,136.1,83.1z"/>
				<path class="st3" d="M140.7,80.4v6.4h-1.1v-6.4H140.7z"/>
				<path class="st3" d="M145.1,86.8H144v-5.4h-2v-1h5.2v1h-2V86.8z"/>
				<path class="st3" d="M151.4,86.8h-1.1v-2.5l-2.6-3.9h1.3l1.8,2.9l1.8-2.9h1.3l-2.6,3.9V86.8z"/>
				<path class="st3" d="M160.8,86.9c-2,0-3.4-1.5-3.4-3.3c0-1.8,1.4-3.3,3.4-3.3c2,0,3.4,1.5,3.4,3.3
					C164.2,85.4,162.8,86.9,160.8,86.9z M160.8,81.3c-1.3,0-2.2,1-2.2,2.3s0.9,2.3,2.2,2.3c1.3,0,2.2-1,2.2-2.3
					S162.1,81.3,160.8,81.3z"/>
				<path class="st3" d="M170.3,81.4h-3.7v1.8h3.2v1h-3.2v2.6h-1.1v-6.4h4.8V81.4z"/>
				<path class="st3" d="M178.1,80.3h1l1.6,4.8l1.5-4.8h1.2l-2.2,6.5h-1l-1.6-4.6l-1.6,4.6h-1l-2.2-6.5h1.2l1.5,4.8L178.1,80.3z"/>
				<path class="st3" d="M185.7,80.4v6.4h-1.1v-6.4H185.7z"/>
				<path class="st3" d="M189.9,83.1c1.4,0.3,2.1,0.8,2.1,1.9c0,1.2-0.9,1.9-2.3,1.9c-1,0-1.9-0.3-2.7-1l0.7-0.8
					c0.6,0.5,1.2,0.8,2,0.8c0.7,0,1.1-0.3,1.1-0.8c0-0.5-0.3-0.7-1.5-1c-1.4-0.3-2.1-0.7-2.1-1.9c0-1.1,0.9-1.9,2.2-1.9
					c0.9,0,1.7,0.3,2.3,0.8l-0.6,0.9c-0.6-0.4-1.2-0.7-1.7-0.7c-0.7,0-1,0.3-1,0.8C188.4,82.5,188.7,82.8,189.9,83.1z"/>
				<path class="st3" d="M196.3,86.9c-1.9,0-3.3-1.5-3.3-3.3c0-1.8,1.4-3.3,3.3-3.3c1.2,0,1.9,0.4,2.5,1l-0.7,0.8
					c-0.5-0.5-1.1-0.8-1.8-0.8c-1.2,0-2.1,1-2.1,2.3s0.9,2.3,2.1,2.3c0.8,0,1.3-0.3,1.8-0.8l0.7,0.7
					C198.3,86.5,197.5,86.9,196.3,86.9z"/>
				<path class="st3" d="M203,86.9c-2,0-3.4-1.5-3.4-3.3c0-1.8,1.4-3.3,3.4-3.3c2,0,3.4,1.5,3.4,3.3C206.4,85.4,205,86.9,203,86.9z
					 M203,81.3c-1.3,0-2.2,1-2.2,2.3s0.9,2.3,2.2,2.3c1.3,0,2.2-1,2.2-2.3S204.3,81.3,203,81.3z"/>
				<path class="st3" d="M212.3,80.4h1.1v6.4h-0.9l-3.6-4.6v4.6h-1.1v-6.4h1l3.5,4.5V80.4z"/>
				<path class="st3" d="M217.5,83.1c1.4,0.3,2.1,0.8,2.1,1.9c0,1.2-0.9,1.9-2.3,1.9c-1,0-1.9-0.3-2.7-1l0.7-0.8
					c0.6,0.5,1.2,0.8,2,0.8c0.7,0,1.1-0.3,1.1-0.8c0-0.5-0.3-0.7-1.5-1c-1.4-0.3-2.1-0.7-2.1-1.9c0-1.1,0.9-1.9,2.2-1.9
					c0.9,0,1.7,0.3,2.3,0.8l-0.6,0.9c-0.6-0.4-1.2-0.7-1.7-0.7c-0.7,0-1,0.3-1,0.8C216,82.5,216.3,82.8,217.5,83.1z"/>
				<path class="st3" d="M222.1,80.4v6.4H221v-6.4H222.1z"/>
				<path class="st3" d="M228.3,80.4h1.1v6.4h-0.9l-3.6-4.6v4.6h-1.1v-6.4h1l3.5,4.5V80.4z"/>
			</g>
		</g>
		<g>
			<g>
				<path class="st3" d="M108.3,45.2h-9.2V20.5h9.2c7.8,0,13.1,5.3,13.1,12.3C121.4,39.8,116,45.2,108.3,45.2z M108.3,24.4h-4.9
					v16.8h4.9c5.2,0,8.6-3.5,8.6-8.4S113.5,24.4,108.3,24.4z"/>
				<path class="st3" d="M148.6,45.2H144l-2.5-6h-11.7l-2.5,6h-4.4l10.9-24.9h4L148.6,45.2z M135.6,25.5l-4.2,9.9h8.5L135.6,25.5z"
					/>
				<path class="st3" d="M160.1,45.2h-4.4V24.5h-7.8v-4h20v4h-7.8V45.2z"/>
				<path class="st3" d="M192.9,45.2h-4.6l-2.5-6h-11.7l-2.5,6h-4.4L178,20.3h4L192.9,45.2z M180,25.5l-4.2,9.9h8.5L180,25.5z"/>
				<path class="st3" d="M106.7,60.1c4.4,1.1,6.8,2.7,6.8,6.2c0,4-3.1,6.3-7.5,6.3c-3.2,0-6.2-1.1-8.8-3.4l2.2-2.6
					c2,1.7,4,2.7,6.6,2.7c2.3,0,3.7-1.1,3.7-2.7c0-1.5-0.8-2.3-4.7-3.2c-4.5-1.1-7-2.4-7-6.3c0-3.7,3-6.1,7.2-6.1
					c3.1,0,5.5,0.9,7.6,2.6l-2,2.8c-1.9-1.4-3.8-2.2-5.7-2.2c-2.2,0-3.4,1.1-3.4,2.5C101.7,58.4,102.7,59.1,106.7,60.1z"/>
				<path class="st3" d="M126.4,72.7c-6.1,0-10.7-4.8-10.7-10.8c0-6,4.5-10.9,10.8-10.9c3.9,0,6.2,1.4,8.2,3.3l-2.4,2.7
					c-1.7-1.6-3.5-2.6-5.9-2.6c-4,0-6.9,3.3-6.9,7.4c0,4.1,2.9,7.5,6.9,7.5c2.6,0,4.2-1.1,6-2.7l2.4,2.4
					C132.7,71.2,130.3,72.7,126.4,72.7z"/>
				<path class="st3" d="M142.1,51.3v21h-3.7v-21H142.1z"/>
				<path class="st3" d="M162.7,54.6h-11.9V60h10.5v3.3h-10.5V69h12v3.3h-15.7v-21h15.6V54.6z"/>
				<path class="st3" d="M181.9,51.3h3.6v21h-3.1l-11.6-15v15h-3.6v-21h3.4l11.3,14.5V51.3z"/>
				<path class="st3" d="M200.1,72.7c-6.1,0-10.7-4.8-10.7-10.8c0-6,4.5-10.9,10.8-10.9c3.9,0,6.2,1.4,8.2,3.3l-2.4,2.7
					c-1.7-1.6-3.5-2.6-5.9-2.6c-4,0-6.9,3.3-6.9,7.4c0,4.1,2.9,7.5,6.9,7.5c2.6,0,4.2-1.1,6-2.7l2.4,2.4
					C206.4,71.2,204,72.7,200.1,72.7z"/>
				<path class="st3" d="M228.1,54.6h-11.9V60h10.5v3.3h-10.5V69h12v3.3h-15.7v-21h15.6V54.6z"/>
			</g>
		</g>
	</g>
</g>
</svg>
