<svg id="Layer_1" data-name="Layer 1" xmlns="http://www.w3.org/2000/svg" viewBox="0 0 250 55.42"><defs><style>.cls-1{opacity:0.5;}.cls-2{fill:gray;}</style></defs><title>uls_logo</title><g class="cls-1"><path class="cls-2" d="M68.35,48.08V37.73h1v9.45h6v0.9h-7Z" transform="translate(0 -2.19)"/><path class="cls-2" d="M84.85,47.18v0.9h-7V37.73h6.82v0.9H78.9v3.73H84v0.86H78.9v4h5.95Z" transform="translate(0 -2.19)"/><path class="cls-2" d="M86.68,48.08L91,37.73h0.83l4.33,10.35H95.08l-1.34-3.24H89.09l-1.33,3.24H86.68Zm4.75-9.15L89.31,44h4.2Z" transform="translate(0 -2.19)"/><path class="cls-2" d="M98.42,48.08V37.73h4.36A2.73,2.73,0,0,1,104,38a3.21,3.21,0,0,1,1,.74,3.41,3.41,0,0,1,.63,1,3.25,3.25,0,0,1,.23,1.18,3.51,3.51,0,0,1-.17,1.09,3.24,3.24,0,0,1-.47.93,2.91,2.91,0,0,1-.73.7,2.55,2.55,0,0,1-.95.39l2.55,4h-1.15l-2.45-3.82H99.42v3.82h-1Zm1-4.72h3.4a1.73,1.73,0,0,0,.82-0.2,2,2,0,0,0,.63-0.53,2.58,2.58,0,0,0,.41-0.76,2.72,2.72,0,0,0,.15-0.89,2.45,2.45,0,0,0-.17-0.9,2.48,2.48,0,0,0-.45-0.75,2.17,2.17,0,0,0-.67-0.51,1.81,1.81,0,0,0-.81-0.19H99.42v4.72Z" transform="translate(0 -2.19)"/><path class="cls-2" d="M110,39.63v8.45h-1V37.73h0.79l6.85,8.61v-8.6h1V48.08h-0.87Z" transform="translate(0 -2.19)"/><path class="cls-2" d="M121.08,48.08V37.75h1V48.08h-1Z" transform="translate(0 -2.19)"/><path class="cls-2" d="M126.67,39.63v8.45h-1V37.73h0.79l6.85,8.61v-8.6h1V48.08h-0.87Z" transform="translate(0 -2.19)"/><path class="cls-2" d="M145.26,46.58A4.38,4.38,0,0,1,142,48.15,4.17,4.17,0,0,1,140,47.7a5.09,5.09,0,0,1-1.53-1.2,5.62,5.62,0,0,1-1-1.68,5.3,5.3,0,0,1-.36-1.93,5.58,5.58,0,0,1,.36-2,5.38,5.38,0,0,1,1-1.67A4.8,4.8,0,0,1,140,38.09a4.32,4.32,0,0,1,1.92-.43,5.28,5.28,0,0,1,1.38.17,4.22,4.22,0,0,1,1.11.47,3.69,3.69,0,0,1,.85.71,4.27,4.27,0,0,1,.61.91l-0.79.53A3.35,3.35,0,0,0,143.73,39a3.76,3.76,0,0,0-1.85-.45,3.28,3.28,0,0,0-1.55.36,3.73,3.73,0,0,0-1.18,1,4.45,4.45,0,0,0-.75,1.38,5,5,0,0,0-.26,1.61,4.64,4.64,0,0,0,.3,1.66,4.4,4.4,0,0,0,.82,1.38,4,4,0,0,0,1.23.94,3.43,3.43,0,0,0,1.54.35,3.63,3.63,0,0,0,1.69-.42,5.15,5.15,0,0,0,1.55-1.3V43.78H143V43h3.16v5.09h-0.87v-1.5Z" transform="translate(0 -2.19)"/><path class="cls-2" d="M160.58,39.67a3.14,3.14,0,0,0-1.17-.8,4.27,4.27,0,0,0-1.65-.31,3.15,3.15,0,0,0-2,.52,1.73,1.73,0,0,0-.63,1.41,1.56,1.56,0,0,0,.17.77,1.44,1.44,0,0,0,.53.52,3.78,3.78,0,0,0,.9.38q0.55,0.16,1.29.32a14.83,14.83,0,0,1,1.49.39,4.17,4.17,0,0,1,1.12.54,2.26,2.26,0,0,1,.71.8,2.51,2.51,0,0,1,.25,1.17,2.62,2.62,0,0,1-.28,1.24,2.46,2.46,0,0,1-.77.87,3.44,3.44,0,0,1-1.18.52,6.26,6.26,0,0,1-1.49.17,6.1,6.1,0,0,1-4.15-1.5l0.5-.83a4.58,4.58,0,0,0,1.53,1,5.34,5.34,0,0,0,2.14.42,3.6,3.6,0,0,0,1.94-.44,1.49,1.49,0,0,0,.7-1.35,1.54,1.54,0,0,0-.2-0.81,1.71,1.71,0,0,0-.59-0.57,4.14,4.14,0,0,0-1-.42q-0.59-.18-1.36-0.35t-1.43-.39a3.69,3.69,0,0,1-1-.51,2,2,0,0,1-.63-0.74,2.37,2.37,0,0,1-.21-1.06,2.92,2.92,0,0,1,.27-1.28,2.54,2.54,0,0,1,.76-0.93,3.52,3.52,0,0,1,1.17-.57,5.35,5.35,0,0,1,1.49-.2,5,5,0,0,1,1.83.31,5,5,0,0,1,1.46.88Z" transform="translate(0 -2.19)"/><path class="cls-2" d="M171.91,38.64h-3.69v9.45h-1V38.64h-3.69v-0.9h8.4v0.9Z" transform="translate(0 -2.19)"/><path class="cls-2" d="M178.59,48.15a4.38,4.38,0,0,1-2-.44,4.91,4.91,0,0,1-1.54-1.18,5.36,5.36,0,0,1-1-1.68,5.56,5.56,0,0,1-.35-1.94,5.39,5.39,0,0,1,.37-2,5.48,5.48,0,0,1,1-1.68,5,5,0,0,1,1.55-1.16,4.36,4.36,0,0,1,1.92-.43,4.27,4.27,0,0,1,2,.46,5,5,0,0,1,1.53,1.2,5.58,5.58,0,0,1,1,1.68,5.46,5.46,0,0,1,.35,1.92A5.5,5.5,0,0,1,182,46.57a4.92,4.92,0,0,1-1.54,1.15A4.35,4.35,0,0,1,178.59,48.15Zm-3.83-5.25a4.81,4.81,0,0,0,.28,1.63,4.42,4.42,0,0,0,.79,1.38,3.86,3.86,0,0,0,1.21,1,3.55,3.55,0,0,0,3.15,0,3.89,3.89,0,0,0,1.21-1,4.58,4.58,0,0,0,.77-1.38,4.76,4.76,0,0,0,0-3.2,4.44,4.44,0,0,0-.79-1.38,3.93,3.93,0,0,0-1.21-1,3.35,3.35,0,0,0-1.55-.36A3.38,3.38,0,0,0,177,39a3.79,3.79,0,0,0-1.21,1,4.57,4.57,0,0,0-.76,1.38A4.73,4.73,0,0,0,174.75,42.91Z" transform="translate(0 -2.19)"/><path class="cls-2" d="M186.12,48.08V37.73h4.36a2.73,2.73,0,0,1,1.24.28,3.21,3.21,0,0,1,1,.74,3.41,3.41,0,0,1,.63,1,3.25,3.25,0,0,1,.23,1.18,3.51,3.51,0,0,1-.17,1.09,3.24,3.24,0,0,1-.47.93,2.91,2.91,0,0,1-.73.7,2.55,2.55,0,0,1-.95.39l2.55,4h-1.15l-2.45-3.82h-3.06v3.82h-1Zm1-4.72h3.4a1.73,1.73,0,0,0,.82-0.2,2,2,0,0,0,.63-0.53,2.58,2.58,0,0,0,.41-0.76,2.72,2.72,0,0,0,.15-0.89,2.45,2.45,0,0,0-.17-0.9,2.48,2.48,0,0,0-.45-0.75,2.17,2.17,0,0,0-.67-0.51,1.81,1.81,0,0,0-.81-0.19h-3.31v4.72Z" transform="translate(0 -2.19)"/><path class="cls-2" d="M203.44,47.18v0.9h-7V37.73h6.82v0.9h-5.82v3.73h5.07v0.86h-5.07v4h5.95Z" transform="translate(0 -2.19)"/><path class="cls-2" d="M83,21.28c0,4.68-3.12,8.41-9,8.41s-9-3.7-9-8.41V9.08h4V20.21c0,3.85,1.71,5.67,4.94,5.67s5-1.85,5-5.67V9.08h4v12.2Z" transform="translate(0 -2.19)"/><path class="cls-2" d="M106,9.08V29.46h-2L91.84,16.63V29.46H87.7V9.08h2l12.14,12.84V9.08H106Z" transform="translate(0 -2.19)"/><path class="cls-2" d="M115.23,29.46h-4.16V9.08h4.16V29.46Z" transform="translate(0 -2.19)"/><path class="cls-2" d="M135.09,9.08h4.51l-9.51,20.38h-1.91L118.69,9.08h4.48l6,13.3Z" transform="translate(0 -2.19)"/><path class="cls-2" d="M158.56,25.88v3.59H142.92V9.08h15v3.59h-11v5.18h9.22v3.47h-9.22v4.57h11.62Z" transform="translate(0 -2.19)"/><path class="cls-2" d="M171.31,24.2a6.7,6.7,0,0,1-.78,0h-3.79v5.23h-4.14V9.08h9c6,0,8,3.53,8,7.34,0,3.5-1.45,5.81-4.13,7l4.74,6.07h-4.94Zm-4.57-3.38h3.64c3.3,0,4.86-1.68,4.86-4.08,0-2.11-1.1-4.08-4.31-4.08h-4.19v8.15Z" transform="translate(0 -2.19)"/><path class="cls-2" d="M199.06,23.48c0,3.93-3.15,6.25-7.89,6.25a15.74,15.74,0,0,1-8.47-1.94l1.5-3.21a14.46,14.46,0,0,0,7.11,1.56c2.23,0,3.56-.81,3.56-2.31s-1.36-2-4.34-2.69C186.34,20.18,183,19,183,15c0-3.59,2.86-6.13,7.52-6.13a19.79,19.79,0,0,1,7.81,1.65l-1.68,3.3a17.92,17.92,0,0,0-6.22-1.36c-2.08,0-3.24.93-3.24,2.2,0,1.45,1.45,2.05,4.51,2.75C196.06,18.36,199.06,19.75,199.06,23.48Z" transform="translate(0 -2.19)"/><path class="cls-2" d="M207.3,29.46h-4.16V9.08h4.16V29.46Z" transform="translate(0 -2.19)"/><path class="cls-2" d="M228.35,12.66h-6.51v16.8h-4.16V12.66H211.2V9.08h17.15v3.59Z" transform="translate(0 -2.19)"/><path class="cls-2" d="M250,9.08l-7.84,13.47v6.91H238V22.55L230.19,9.08h4.71l5.2,9,5.15-9H250Z" transform="translate(0 -2.19)"/><polygon class="cls-2" points="5.19 14.19 0.69 18.69 6.17 19.67 5.19 14.19"/><polygon class="cls-2" points="9.65 44.58 10.48 43.75 6.49 21.44 0 20.27 5.16 49.08 9.65 44.58 9.65 44.58"/><polygon class="cls-2" points="8.26 21.75 11.93 42.3 23.98 30.25 22.93 24.38 8.26 21.75"/><polygon class="cls-2" points="22.61 22.61 21.45 16.12 6.78 13.5 7.94 19.99 22.61 22.61"/><polygon class="cls-2" points="18.69 0.69 7.47 11.91 21.14 14.36 18.69 0.69"/><polygon class="cls-2" points="36.73 54.73 41.23 50.23 35.75 49.25 36.73 54.73"/><polygon class="cls-2" points="32.81 32.81 35.44 47.48 41.93 48.65 39.3 33.97 32.81 32.81"/><polygon class="cls-2" points="31.05 32.5 25.17 31.44 13.12 43.49 33.67 47.17 31.05 32.5"/><polygon class="cls-2" points="43.51 47.95 54.73 36.73 41.07 34.29 43.51 47.95"/><polygon class="cls-2" points="11.67 44.94 6.35 50.27 35.15 55.42 33.99 48.94 11.67 44.94"/><polygon class="cls-2" points="37.03 17.2 49.08 5.16 20.27 0 22.9 14.67 37.03 17.2"/><polygon class="cls-2" points="30.25 23.98 35.58 18.65 23.22 16.44 24.38 22.93 30.25 23.98"/><polygon class="cls-2" points="40.75 32.52 55.42 35.15 50.27 6.35 38.22 18.39 40.75 32.52"/><polygon class="cls-2" points="36.77 19.84 31.44 25.17 32.5 31.05 38.99 32.21 36.77 19.84"/></g></svg>