<?xml version="1.0" encoding="utf-8"?>
<!-- Generator: Adobe Illustrator 17.1.0, SVG Export Plug-In . SVG Version: 6.00 Build 0)  -->
<!DOCTYPE svg PUBLIC "-//W3C//DTD SVG 1.1//EN" "http://www.w3.org/Graphics/SVG/1.1/DTD/svg11.dtd">
<svg version="1.1" xmlns="http://www.w3.org/2000/svg" xmlns:xlink="http://www.w3.org/1999/xlink" x="0px" y="0px"
	 viewBox="0 0 340 124" enable-background="new 0 0 340 124" xml:space="preserve">
<g id="Layer_2" display="none">
	<rect display="inline" fill="#EBEBEB" width="150" height="62"/>
</g>
<g id="Layer_1">
	<g>
		<g>
			<path fill="#CCCCCC" d="M18.3,100.4c0.8,0.7,1.2,1.6,1.3,2.5h-1.5c-0.2-0.7-0.5-1.3-1-1.7c-0.5-0.4-1.2-0.6-2-0.6
				c-1.1,0-1.9,0.4-2.6,1.1c-0.7,0.8-1,1.9-1,3.5c0,1.3,0.3,2.4,0.9,3.2c0.6,0.8,1.5,1.2,2.7,1.2c1.1,0,1.9-0.4,2.5-1.3
				c0.3-0.4,0.5-1,0.7-1.8h1.5c-0.1,1.2-0.6,2.1-1.3,2.9c-0.9,0.9-2,1.4-3.5,1.4c-1.3,0-2.3-0.4-3.2-1.2c-1.1-1-1.7-2.6-1.7-4.8
				c0-1.6,0.4-3,1.3-4c0.9-1.1,2.2-1.7,3.8-1.7C16.5,99.3,17.6,99.6,18.3,100.4z"/>
			<path fill="#CCCCCC" d="M27.3,103.4c0.7,0.7,1.1,1.7,1.1,3.1c0,1.3-0.3,2.4-0.9,3.2c-0.6,0.8-1.6,1.3-2.9,1.3
				c-1.1,0-2-0.4-2.6-1.1c-0.6-0.8-1-1.8-1-3c0-1.4,0.3-2.4,1-3.2c0.7-0.8,1.6-1.2,2.8-1.2C25.7,102.3,26.6,102.7,27.3,103.4z
				 M26.5,108.7c0.3-0.7,0.5-1.4,0.5-2.3c0-0.7-0.1-1.4-0.4-1.8c-0.4-0.7-1-1.1-2-1.1c-0.8,0-1.4,0.3-1.8,0.9
				c-0.4,0.6-0.6,1.4-0.6,2.3c0,0.9,0.2,1.6,0.6,2.1c0.4,0.6,1,0.9,1.8,0.9C25.5,109.8,26.1,109.4,26.5,108.7z"/>
			<path fill="#CCCCCC" d="M30,102.6h1.3v1.1c0.4-0.5,0.8-0.8,1.2-1c0.4-0.2,0.9-0.3,1.4-0.3c1.1,0,1.9,0.4,2.3,1.2
				c0.2,0.4,0.3,1.1,0.3,1.9v5.2h-1.4v-5.1c0-0.5-0.1-0.9-0.2-1.2c-0.2-0.5-0.7-0.8-1.3-0.8c-0.3,0-0.6,0-0.8,0.1
				c-0.4,0.1-0.7,0.3-1,0.7c-0.2,0.3-0.4,0.5-0.4,0.8c-0.1,0.3-0.1,0.7-0.1,1.2v4.2H30V102.6z"/>
			<path fill="#CCCCCC" d="M38.9,100.3h1.4v2.3h1.3v1.1h-1.3v5.3c0,0.3,0.1,0.5,0.3,0.6c0.1,0.1,0.3,0.1,0.5,0.1c0.1,0,0.1,0,0.2,0
				c0.1,0,0.2,0,0.3,0v1.1c-0.2,0-0.3,0.1-0.5,0.1c-0.2,0-0.4,0-0.5,0c-0.6,0-1.1-0.2-1.3-0.5c-0.2-0.3-0.3-0.7-0.3-1.3v-5.3h-1.1
				v-1.1h1.1V100.3z"/>
			<path fill="#CCCCCC" d="M42.9,99.6h1.4v1.5h-1.4V99.6z M42.9,102.6h1.4v8h-1.4V102.6z"/>
			<path fill="#CCCCCC" d="M46.3,102.6h1.3v1.1c0.4-0.5,0.8-0.8,1.2-1c0.4-0.2,0.9-0.3,1.4-0.3c1.1,0,1.9,0.4,2.3,1.2
				c0.2,0.4,0.3,1.1,0.3,1.9v5.2h-1.4v-5.1c0-0.5-0.1-0.9-0.2-1.2c-0.2-0.5-0.7-0.8-1.3-0.8c-0.3,0-0.6,0-0.8,0.1
				c-0.4,0.1-0.7,0.3-1,0.7c-0.2,0.3-0.4,0.5-0.4,0.8c-0.1,0.3-0.1,0.7-0.1,1.2v4.2h-1.4V102.6z"/>
			<path fill="#CCCCCC" d="M56.3,102.6v5.4c0,0.4,0.1,0.7,0.2,1c0.2,0.5,0.7,0.7,1.3,0.7c0.9,0,1.5-0.4,1.9-1.3
				c0.2-0.4,0.3-1.1,0.3-1.9v-4h1.4v8.1H60l0-1.2c-0.2,0.3-0.4,0.6-0.6,0.8c-0.5,0.4-1.1,0.6-1.8,0.6c-1.1,0-1.9-0.4-2.3-1.2
				c-0.2-0.4-0.3-1-0.3-1.7v-5.5H56.3z"/>
			<path fill="#CCCCCC" d="M63.5,99.6h1.4v1.5h-1.4V99.6z M63.5,102.6h1.4v8h-1.4V102.6z"/>
			<path fill="#CCCCCC" d="M66.9,102.6h1.3v1.1c0.4-0.5,0.8-0.8,1.2-1c0.4-0.2,0.9-0.3,1.4-0.3c1.1,0,1.9,0.4,2.3,1.2
				c0.2,0.4,0.3,1.1,0.3,1.9v5.2h-1.4v-5.1c0-0.5-0.1-0.9-0.2-1.2c-0.2-0.5-0.7-0.8-1.3-0.8c-0.3,0-0.6,0-0.8,0.1
				c-0.4,0.1-0.7,0.3-1,0.7c-0.2,0.3-0.4,0.5-0.4,0.8c-0.1,0.3-0.1,0.7-0.1,1.2v4.2h-1.4V102.6z"/>
			<path fill="#CCCCCC" d="M80,102.9c0.3,0.2,0.5,0.4,0.8,0.8v-1H82v7.3c0,1-0.2,1.8-0.5,2.4c-0.6,1.1-1.6,1.6-3.2,1.6
				c-0.9,0-1.6-0.2-2.2-0.6c-0.6-0.4-0.9-1-1-1.8h1.4c0.1,0.4,0.2,0.6,0.4,0.8c0.3,0.3,0.8,0.4,1.4,0.4c1,0,1.7-0.4,2-1.1
				c0.2-0.4,0.3-1.2,0.3-2.3c-0.3,0.4-0.6,0.7-1,0.9c-0.4,0.2-0.9,0.3-1.5,0.3c-0.9,0-1.6-0.3-2.3-0.9c-0.7-0.6-1-1.6-1-3.1
				c0-1.3,0.3-2.4,1-3.2c0.7-0.8,1.5-1.1,2.4-1.1C79,102.4,79.5,102.6,80,102.9z M80.2,104.3c-0.4-0.5-0.9-0.7-1.6-0.7
				c-0.9,0-1.6,0.4-1.9,1.3c-0.2,0.5-0.3,1.1-0.3,1.9c0,0.9,0.2,1.6,0.6,2.1c0.4,0.5,0.9,0.7,1.5,0.7c1,0,1.7-0.4,2-1.3
				c0.2-0.5,0.3-1.1,0.3-1.7C80.8,105.6,80.6,104.8,80.2,104.3z"/>
			<path fill="#CCCCCC" d="M88.7,99.6h8v1.4h-6.6v3.4h6.1v1.3h-6.1v3.8h6.7v1.3h-8.1V99.6z"/>
			<path fill="#CCCCCC" d="M103.1,102.8c0.2,0.2,0.5,0.4,0.8,0.8v-4.1h1.3v11.1H104v-1.1c-0.3,0.5-0.7,0.9-1.1,1.1
				c-0.4,0.2-0.9,0.3-1.5,0.3c-0.9,0-1.7-0.4-2.3-1.1c-0.7-0.8-1-1.8-1-3c0-1.2,0.3-2.2,0.9-3.1c0.6-0.9,1.5-1.3,2.6-1.3
				C102.2,102.4,102.7,102.6,103.1,102.8z M100.1,108.9c0.4,0.6,1,0.9,1.8,0.9c0.6,0,1.1-0.3,1.5-0.8c0.4-0.5,0.6-1.3,0.6-2.3
				c0-1-0.2-1.8-0.6-2.3c-0.4-0.5-0.9-0.7-1.5-0.7c-0.7,0-1.2,0.3-1.7,0.8c-0.4,0.5-0.6,1.3-0.6,2.3
				C99.5,107.6,99.7,108.3,100.1,108.9z"/>
			<path fill="#CCCCCC" d="M108.6,102.6v5.4c0,0.4,0.1,0.7,0.2,1c0.2,0.5,0.7,0.7,1.3,0.7c0.9,0,1.5-0.4,1.9-1.3
				c0.2-0.4,0.3-1.1,0.3-1.9v-4h1.4v8.1h-1.3l0-1.2c-0.2,0.3-0.4,0.6-0.6,0.8c-0.5,0.4-1.1,0.6-1.8,0.6c-1.1,0-1.9-0.4-2.3-1.2
				c-0.2-0.4-0.3-1-0.3-1.7v-5.5H108.6z"/>
			<path fill="#CCCCCC" d="M121.1,103c0.6,0.4,0.9,1.2,1,2.3h-1.3c-0.1-0.5-0.3-0.9-0.5-1.2c-0.3-0.3-0.7-0.5-1.4-0.5
				c-0.9,0-1.5,0.4-1.9,1.3c-0.2,0.6-0.4,1.2-0.4,2c0,0.8,0.2,1.5,0.5,2c0.3,0.6,0.9,0.8,1.6,0.8c0.6,0,1-0.2,1.3-0.5
				c0.3-0.3,0.6-0.8,0.7-1.4h1.3c-0.2,1.1-0.5,1.8-1.1,2.3c-0.6,0.5-1.4,0.7-2.3,0.7c-1.1,0-1.9-0.4-2.5-1.2
				c-0.6-0.8-0.9-1.7-0.9-2.9c0-1.4,0.3-2.5,1-3.3c0.7-0.8,1.6-1.2,2.6-1.2C119.8,102.3,120.6,102.6,121.1,103z"/>
			<path fill="#CCCCCC" d="M127.9,105.7c0.3,0,0.5-0.2,0.6-0.4c0.1-0.1,0.1-0.3,0.1-0.5c0-0.5-0.2-0.8-0.5-1
				c-0.3-0.2-0.8-0.3-1.4-0.3c-0.7,0-1.2,0.2-1.5,0.6c-0.2,0.2-0.3,0.5-0.3,0.9h-1.3c0-1,0.3-1.7,1-2.1c0.6-0.4,1.3-0.6,2.2-0.6
				c0.9,0,1.7,0.2,2.3,0.5c0.6,0.4,0.9,0.9,0.9,1.7v4.6c0,0.1,0,0.3,0.1,0.3c0.1,0.1,0.2,0.1,0.4,0.1c0.1,0,0.1,0,0.2,0
				c0.1,0,0.2,0,0.2,0v1c-0.2,0.1-0.4,0.1-0.5,0.1c-0.1,0-0.3,0-0.5,0c-0.5,0-0.8-0.2-1-0.5c-0.1-0.2-0.2-0.4-0.2-0.7
				c-0.3,0.4-0.7,0.7-1.2,0.9c-0.5,0.3-1.1,0.4-1.7,0.4c-0.7,0-1.4-0.2-1.8-0.7c-0.5-0.5-0.7-1-0.7-1.7c0-0.7,0.2-1.3,0.7-1.7
				c0.5-0.4,1.1-0.7,1.8-0.8L127.9,105.7z M125,109.4c0.3,0.2,0.6,0.3,1,0.3c0.5,0,0.9-0.1,1.4-0.3c0.8-0.4,1.1-1,1.1-1.8v-1.1
				c-0.2,0.1-0.4,0.2-0.6,0.3c-0.3,0.1-0.5,0.1-0.8,0.1l-0.8,0.1c-0.5,0.1-0.9,0.2-1.1,0.3c-0.4,0.2-0.6,0.6-0.6,1.1
				C124.6,108.9,124.7,109.2,125,109.4z"/>
			<path fill="#CCCCCC" d="M132.4,100.3h1.4v2.3h1.3v1.1h-1.3v5.3c0,0.3,0.1,0.5,0.3,0.6c0.1,0.1,0.3,0.1,0.5,0.1c0.1,0,0.1,0,0.2,0
				c0.1,0,0.2,0,0.3,0v1.1c-0.2,0-0.3,0.1-0.5,0.1c-0.2,0-0.4,0-0.5,0c-0.6,0-1.1-0.2-1.3-0.5c-0.2-0.3-0.3-0.7-0.3-1.3v-5.3h-1.1
				v-1.1h1.1V100.3z"/>
			<path fill="#CCCCCC" d="M136.4,99.6h1.4v1.5h-1.4V99.6z M136.4,102.6h1.4v8h-1.4V102.6z"/>
			<path fill="#CCCCCC" d="M145.7,103.4c0.7,0.7,1.1,1.7,1.1,3.1c0,1.3-0.3,2.4-0.9,3.2c-0.6,0.8-1.6,1.3-2.9,1.3
				c-1.1,0-2-0.4-2.6-1.1c-0.6-0.8-1-1.8-1-3c0-1.4,0.3-2.4,1-3.2c0.7-0.8,1.6-1.2,2.8-1.2C144.1,102.3,145,102.7,145.7,103.4z
				 M144.8,108.7c0.3-0.7,0.5-1.4,0.5-2.3c0-0.7-0.1-1.4-0.4-1.8c-0.4-0.7-1-1.1-2-1.1c-0.8,0-1.4,0.3-1.8,0.9
				c-0.4,0.6-0.6,1.4-0.6,2.3c0,0.9,0.2,1.6,0.6,2.1c0.4,0.6,1,0.9,1.8,0.9C143.9,109.8,144.5,109.4,144.8,108.7z"/>
			<path fill="#CCCCCC" d="M148.4,102.6h1.3v1.1c0.4-0.5,0.8-0.8,1.2-1c0.4-0.2,0.9-0.3,1.4-0.3c1.1,0,1.9,0.4,2.3,1.2
				c0.2,0.4,0.3,1.1,0.3,1.9v5.2h-1.4v-5.1c0-0.5-0.1-0.9-0.2-1.2c-0.2-0.5-0.7-0.8-1.3-0.8c-0.3,0-0.6,0-0.8,0.1
				c-0.4,0.1-0.7,0.3-1,0.7c-0.2,0.3-0.4,0.5-0.4,0.8c-0.1,0.3-0.1,0.7-0.1,1.2v4.2h-1.4V102.6z"/>
			<path fill="#CCCCCC" d="M157.3,112.2c0.3-0.1,0.6-0.3,0.7-0.7c0.1-0.2,0.1-0.4,0.1-0.7c0,0,0-0.1,0-0.1c0,0,0-0.1,0-0.1h-0.8V109
				h1.6v1.5c0,0.6-0.1,1.1-0.4,1.6c-0.2,0.5-0.7,0.7-1.3,0.8V112.2z"/>
			<path fill="#CCCCCC" d="M174.9,101.1c0.7,1,1.1,2.2,1.1,3.8c0,1.7-0.4,3-1.3,4.1c-1,1.3-2.4,1.9-4.2,1.9c-1.7,0-3-0.6-4-1.7
				c-0.9-1.1-1.3-2.5-1.3-4.1c0-1.5,0.4-2.8,1.1-3.8c1-1.4,2.4-2,4.2-2C172.5,99.3,173.9,99.9,174.9,101.1z M173.5,108.2
				c0.6-0.9,0.9-2,0.9-3.3c0-1.3-0.3-2.4-1-3.1c-0.7-0.8-1.6-1.2-2.8-1.2c-1.1,0-2.1,0.4-2.8,1.2c-0.7,0.8-1.1,2-1.1,3.5
				c0,1.2,0.3,2.3,0.9,3.1c0.6,0.8,1.6,1.3,3,1.3C172,109.6,172.9,109.1,173.5,108.2z"/>
			<path fill="#CCCCCC" d="M178.9,102.6v5.4c0,0.4,0.1,0.7,0.2,1c0.2,0.5,0.7,0.7,1.3,0.7c0.9,0,1.5-0.4,1.9-1.3
				c0.2-0.4,0.3-1.1,0.3-1.9v-4h1.4v8.1h-1.3l0-1.2c-0.2,0.3-0.4,0.6-0.6,0.8c-0.5,0.4-1.1,0.6-1.8,0.6c-1.1,0-1.9-0.4-2.3-1.2
				c-0.2-0.4-0.3-1-0.3-1.7v-5.5H178.9z"/>
			<path fill="#CCCCCC" d="M186.4,100.3h1.4v2.3h1.3v1.1h-1.3v5.3c0,0.3,0.1,0.5,0.3,0.6c0.1,0.1,0.3,0.1,0.5,0.1c0.1,0,0.1,0,0.2,0
				c0.1,0,0.2,0,0.3,0v1.1c-0.2,0-0.3,0.1-0.5,0.1c-0.2,0-0.4,0-0.5,0c-0.6,0-1.1-0.2-1.3-0.5c-0.2-0.3-0.3-0.7-0.3-1.3v-5.3h-1.1
				v-1.1h1.1V100.3z"/>
			<path fill="#CCCCCC" d="M190.5,102.6h1.3v1.4c0.1-0.3,0.4-0.6,0.8-1c0.4-0.4,0.9-0.6,1.4-0.6c0,0,0.1,0,0.1,0c0.1,0,0.2,0,0.3,0
				v1.4c-0.1,0-0.2,0-0.2,0c-0.1,0-0.1,0-0.2,0c-0.7,0-1.2,0.2-1.6,0.7c-0.4,0.4-0.5,0.9-0.5,1.5v4.6h-1.4V102.6z"/>
			<path fill="#CCCCCC" d="M200.6,102.8c0.5,0.3,0.9,0.6,1.2,1c0.3,0.4,0.4,0.9,0.5,1.4c0.1,0.4,0.1,1,0.1,1.8h-5.9
				c0,0.8,0.2,1.5,0.6,2c0.4,0.5,0.9,0.7,1.7,0.7c0.7,0,1.3-0.2,1.7-0.7c0.2-0.3,0.4-0.6,0.5-0.9h1.3c0,0.3-0.2,0.6-0.4,1
				c-0.2,0.4-0.4,0.7-0.7,0.9c-0.4,0.4-0.9,0.7-1.5,0.8c-0.3,0.1-0.7,0.1-1.1,0.1c-1,0-1.8-0.4-2.5-1.1c-0.7-0.7-1-1.8-1-3.1
				c0-1.3,0.3-2.3,1-3.2c0.7-0.8,1.6-1.2,2.7-1.2C199.5,102.4,200,102.5,200.6,102.8z M201,106c-0.1-0.6-0.2-1.1-0.4-1.4
				c-0.4-0.7-1-1-1.8-1c-0.6,0-1.1,0.2-1.6,0.7c-0.4,0.4-0.6,1-0.7,1.7H201z"/>
			<path fill="#CCCCCC" d="M208.5,105.7c0.3,0,0.5-0.2,0.6-0.4c0.1-0.1,0.1-0.3,0.1-0.5c0-0.5-0.2-0.8-0.5-1
				c-0.3-0.2-0.8-0.3-1.4-0.3c-0.7,0-1.2,0.2-1.5,0.6c-0.2,0.2-0.3,0.5-0.3,0.9h-1.3c0-1,0.3-1.7,1-2.1c0.6-0.4,1.3-0.6,2.2-0.6
				c0.9,0,1.7,0.2,2.3,0.5c0.6,0.4,0.9,0.9,0.9,1.7v4.6c0,0.1,0,0.3,0.1,0.3c0.1,0.1,0.2,0.1,0.4,0.1c0.1,0,0.1,0,0.2,0s0.2,0,0.2,0
				v1c-0.2,0.1-0.4,0.1-0.5,0.1c-0.1,0-0.3,0-0.5,0c-0.5,0-0.8-0.2-1-0.5c-0.1-0.2-0.2-0.4-0.2-0.7c-0.3,0.4-0.7,0.7-1.2,0.9
				c-0.5,0.3-1.1,0.4-1.7,0.4c-0.7,0-1.4-0.2-1.8-0.7c-0.5-0.5-0.7-1-0.7-1.7c0-0.7,0.2-1.3,0.7-1.7c0.5-0.4,1.1-0.7,1.8-0.8
				L208.5,105.7z M205.6,109.4c0.3,0.2,0.6,0.3,1,0.3c0.5,0,0.9-0.1,1.4-0.3c0.8-0.4,1.1-1,1.1-1.8v-1.1c-0.2,0.1-0.4,0.2-0.6,0.3
				c-0.3,0.1-0.5,0.1-0.8,0.1l-0.8,0.1c-0.5,0.1-0.9,0.2-1.1,0.3c-0.4,0.2-0.6,0.6-0.6,1.1C205.2,108.9,205.3,109.2,205.6,109.4z"/>
			<path fill="#CCCCCC" d="M218.1,103c0.6,0.4,0.9,1.2,1,2.3h-1.3c-0.1-0.5-0.3-0.9-0.6-1.2c-0.3-0.3-0.7-0.5-1.4-0.5
				c-0.9,0-1.5,0.4-1.9,1.3c-0.2,0.6-0.4,1.2-0.4,2c0,0.8,0.2,1.5,0.5,2c0.3,0.6,0.9,0.8,1.6,0.8c0.6,0,1-0.2,1.3-0.5
				c0.3-0.3,0.6-0.8,0.7-1.4h1.3c-0.1,1.1-0.5,1.8-1.1,2.3c-0.6,0.5-1.4,0.7-2.3,0.7c-1.1,0-1.9-0.4-2.5-1.2
				c-0.6-0.8-0.9-1.7-0.9-2.9c0-1.4,0.3-2.5,1-3.3c0.7-0.8,1.6-1.2,2.6-1.2C216.7,102.3,217.5,102.6,218.1,103z"/>
			<path fill="#CCCCCC" d="M220.4,99.5h1.4v4.1c0.3-0.4,0.6-0.7,0.9-0.9c0.4-0.3,1-0.4,1.6-0.4c1.2,0,2,0.4,2.4,1.2
				c0.2,0.4,0.3,1.1,0.3,1.9v5.2h-1.4v-5.1c0-0.6-0.1-1-0.2-1.3c-0.2-0.4-0.7-0.7-1.4-0.7c-0.6,0-1.1,0.2-1.5,0.6
				c-0.5,0.4-0.7,1.1-0.7,2.2v4.3h-1.4V99.5z"/>
			<path fill="#CCCCCC" d="M234.5,103.1c-0.2-0.4-0.2-0.7-0.2-1.1c0-0.7,0.2-1.3,0.7-1.8c0.5-0.5,1.1-0.7,1.9-0.7
				c0.8,0,1.4,0.2,1.8,0.7c0.4,0.4,0.6,1,0.6,1.6c0,0.7-0.2,1.3-0.7,1.9c-0.3,0.3-0.7,0.7-1.3,1.1l2,2.4c0.1-0.4,0.2-0.7,0.3-0.9
				c0.1-0.2,0.1-0.5,0.2-0.8h1.3c-0.1,0.7-0.3,1.4-0.5,2c-0.3,0.7-0.4,0.9-0.4,0.8l2,2.4h-1.7l-1-1.3c-0.4,0.4-0.8,0.8-1.1,1
				c-0.6,0.4-1.3,0.5-2.1,0.5c-1.1,0-2-0.3-2.5-0.9c-0.5-0.6-0.8-1.3-0.8-2.1c0-0.8,0.3-1.5,0.8-2.1c0.3-0.3,0.9-0.8,1.7-1.3
				C235,103.9,234.7,103.5,234.5,103.1z M237.8,109.3c0.4-0.3,0.7-0.5,0.9-0.9l-2.5-3.1c-0.7,0.5-1.2,0.8-1.4,1.1
				c-0.3,0.4-0.5,0.8-0.5,1.4c0,0.6,0.2,1,0.6,1.4c0.4,0.3,0.9,0.5,1.4,0.5C236.9,109.7,237.4,109.6,237.8,109.3z M237.7,103
				c0.3-0.3,0.4-0.7,0.4-1.1c0-0.3-0.1-0.6-0.3-0.8c-0.2-0.2-0.5-0.4-0.9-0.4c-0.6,0-0.9,0.2-1.2,0.6c-0.1,0.2-0.2,0.4-0.2,0.6
				c0,0.3,0.1,0.6,0.3,0.9c0.2,0.3,0.4,0.6,0.8,1.1C237.2,103.5,237.5,103.3,237.7,103z"/>
			<path fill="#CCCCCC" d="M248.2,99.6h8v1.4h-6.6v3.4h6.1v1.3h-6.1v3.8h6.7v1.3h-8.1V99.6z"/>
			<path fill="#CCCCCC" d="M257.8,105.6h3.8v1.4h-3.8V105.6z"/>
			<path fill="#CCCCCC" d="M263.5,99.6h1.5v9.7h5.6v1.3h-7V99.6z"/>
			<path fill="#CCCCCC" d="M276.9,102.8c0.5,0.3,0.9,0.6,1.2,1c0.3,0.4,0.4,0.9,0.5,1.4c0.1,0.4,0.1,1,0.1,1.8h-5.9
				c0,0.8,0.2,1.5,0.6,2c0.4,0.5,0.9,0.7,1.7,0.7c0.7,0,1.3-0.2,1.7-0.7c0.2-0.3,0.4-0.6,0.5-0.9h1.3c0,0.3-0.2,0.6-0.3,1
				c-0.2,0.4-0.4,0.7-0.7,0.9c-0.4,0.4-0.9,0.7-1.5,0.8c-0.3,0.1-0.7,0.1-1.1,0.1c-1,0-1.8-0.4-2.5-1.1c-0.7-0.7-1-1.8-1-3.1
				c0-1.3,0.3-2.3,1-3.2c0.7-0.8,1.6-1.2,2.7-1.2C275.8,102.4,276.3,102.5,276.9,102.8z M277.4,106c-0.1-0.6-0.2-1.1-0.4-1.4
				c-0.4-0.7-1-1-1.8-1c-0.6,0-1.1,0.2-1.6,0.7c-0.4,0.4-0.6,1-0.7,1.7H277.4z"/>
			<path fill="#CCCCCC" d="M284.8,105.7c0.3,0,0.5-0.2,0.6-0.4c0.1-0.1,0.1-0.3,0.1-0.5c0-0.5-0.2-0.8-0.5-1
				c-0.3-0.2-0.8-0.3-1.4-0.3c-0.7,0-1.2,0.2-1.5,0.6c-0.2,0.2-0.3,0.5-0.3,0.9h-1.3c0-1,0.3-1.7,1-2.1c0.6-0.4,1.3-0.6,2.2-0.6
				c0.9,0,1.7,0.2,2.3,0.5c0.6,0.4,0.9,0.9,0.9,1.7v4.6c0,0.1,0,0.3,0.1,0.3c0.1,0.1,0.2,0.1,0.4,0.1c0.1,0,0.1,0,0.2,0
				c0.1,0,0.2,0,0.2,0v1c-0.2,0.1-0.4,0.1-0.5,0.1c-0.1,0-0.3,0-0.5,0c-0.5,0-0.8-0.2-1-0.5c-0.1-0.2-0.2-0.4-0.2-0.7
				c-0.3,0.4-0.7,0.7-1.2,0.9c-0.5,0.3-1.1,0.4-1.7,0.4c-0.7,0-1.4-0.2-1.8-0.7c-0.5-0.5-0.7-1-0.7-1.7c0-0.7,0.2-1.3,0.7-1.7
				c0.5-0.4,1.1-0.7,1.8-0.8L284.8,105.7z M281.9,109.4c0.3,0.2,0.6,0.3,1,0.3c0.5,0,0.9-0.1,1.4-0.3c0.8-0.4,1.1-1,1.1-1.8v-1.1
				c-0.2,0.1-0.4,0.2-0.6,0.3c-0.3,0.1-0.5,0.1-0.8,0.1l-0.8,0.1c-0.5,0.1-0.9,0.2-1.1,0.3c-0.4,0.2-0.6,0.6-0.6,1.1
				C281.5,108.9,281.7,109.2,281.9,109.4z"/>
			<path fill="#CCCCCC" d="M289.1,102.6h1.3v1.4c0.1-0.3,0.4-0.6,0.8-1c0.4-0.4,0.9-0.6,1.4-0.6c0,0,0.1,0,0.1,0c0.1,0,0.2,0,0.3,0
				v1.4c-0.1,0-0.2,0-0.2,0c-0.1,0-0.1,0-0.2,0c-0.7,0-1.2,0.2-1.6,0.7c-0.4,0.4-0.5,0.9-0.5,1.5v4.6h-1.4V102.6z"/>
			<path fill="#CCCCCC" d="M294.2,102.6h1.3v1.1c0.4-0.5,0.8-0.8,1.2-1c0.4-0.2,0.9-0.3,1.4-0.3c1.1,0,1.9,0.4,2.3,1.2
				c0.2,0.4,0.3,1.1,0.3,1.9v5.2h-1.4v-5.1c0-0.5-0.1-0.9-0.2-1.2c-0.2-0.5-0.7-0.8-1.3-0.8c-0.3,0-0.6,0-0.8,0.1
				c-0.4,0.1-0.7,0.3-1,0.7c-0.2,0.3-0.4,0.5-0.4,0.8c-0.1,0.3-0.1,0.7-0.1,1.2v4.2h-1.4V102.6z"/>
			<path fill="#CCCCCC" d="M302.8,99.6h1.4v1.5h-1.4V99.6z M302.8,102.6h1.4v8h-1.4V102.6z"/>
			<path fill="#CCCCCC" d="M306.2,102.6h1.3v1.1c0.4-0.5,0.8-0.8,1.2-1c0.4-0.2,0.9-0.3,1.4-0.3c1.1,0,1.9,0.4,2.3,1.2
				c0.2,0.4,0.3,1.1,0.3,1.9v5.2h-1.4v-5.1c0-0.5-0.1-0.9-0.2-1.2c-0.2-0.5-0.7-0.8-1.3-0.8c-0.3,0-0.6,0-0.8,0.1
				c-0.4,0.1-0.7,0.3-1,0.7c-0.2,0.3-0.4,0.5-0.4,0.8c-0.1,0.3-0.1,0.7-0.1,1.2v4.2h-1.4V102.6z"/>
		</g>
		<g>
			<path fill="#CCCCCC" d="M319.3,102.9c0.3,0.2,0.5,0.4,0.8,0.8v-1h1.3v7.3c0,1-0.1,1.8-0.4,2.4c-0.6,1.1-1.6,1.6-3.2,1.6
				c-0.9,0-1.6-0.2-2.2-0.6c-0.6-0.4-0.9-1-1-1.8h1.4c0.1,0.4,0.2,0.6,0.4,0.8c0.3,0.3,0.8,0.4,1.4,0.4c1,0,1.7-0.4,2-1.1
				c0.2-0.4,0.3-1.2,0.3-2.3c-0.3,0.4-0.6,0.7-1,0.9c-0.4,0.2-0.9,0.3-1.5,0.3c-0.9,0-1.6-0.3-2.3-0.9c-0.7-0.6-1-1.6-1-3.1
				c0-1.3,0.3-2.4,1-3.2c0.7-0.8,1.5-1.1,2.4-1.1C318.2,102.4,318.8,102.6,319.3,102.9z M319.4,104.3c-0.4-0.5-0.9-0.7-1.6-0.7
				c-1,0-1.6,0.4-1.9,1.3c-0.2,0.5-0.3,1.1-0.3,1.9c0,0.9,0.2,1.6,0.6,2.1c0.4,0.5,0.9,0.7,1.5,0.7c1,0,1.7-0.4,2-1.3
				c0.2-0.5,0.3-1.1,0.3-1.7C320,105.6,319.8,104.8,319.4,104.3z"/>
		</g>
		<g>
			<g>
				<path fill="#CCCCCC" d="M25.9,52.3h30.4L54,61.4H23.6c-2.2,9.4-0.8,18.8,7.8,18.8h18l-2.2,9.1H28.6c-6.3,0-11.1-0.5-15.1-4.6
					C9.2,80.4,9.7,67.5,12,58.1C16.5,39.6,27.9,25,44.7,25h18.2l-2.2,9.1h-18C34.7,34.1,28.3,44.1,25.9,52.3"/>
				<path fill="#CCCCCC" d="M117.6,57.1c3.1-12.5,11.2-19.2,24-19.2h14.7l-2,8h-13.4c-6.5,0-9.5,1.1-11.2,7.2h22.8l-2,8h-22.8
					c-1.3,6.3,1.1,7.1,7.6,7.1h13.4l-2,8h-14.7C119.4,76.2,114.5,69.6,117.6,57.1"/>
				<path fill="#CCCCCC" d="M179.7,37.9c11.3,0,15,3.8,12.5,14l-5.9,24.2h-10.1l5.6-23c1.3-5.3,0.7-6.8-5-6.8h-8.1l-7.3,29.8h-10.1
					l9.4-38.3H179.7z"/>
				<path fill="#CCCCCC" d="M213.4,68.2c3.6,0,5.7-1,6.4-3.7c0.7-2.7-0.9-3.8-4.5-3.8h-8.7c-9.3,0-12.8-1.9-10.6-10.8
					c2-8.2,7.2-12,16.4-12h21.7l-2,8h-17.9c-4.6,0-7,0.3-7.8,3.5c-0.6,2.4,0.7,3.4,3.9,3.4h9.2c8.4,0,11.8,4.1,10,11.4
					c-1.8,7.2-7.4,12-13.4,12h-26.1l2-8H213.4z"/>
			</g>
			<polygon fill="#CCCCCC" points="230.8,76.2 240.2,37.9 250.8,37.9 241.4,76.2 			"/>
			<g>
				<path fill="#CCCCCC" d="M266.7,68.6c5.9,0,10.7-4.1,12.6-11.5c1.8-7.4-0.9-11.5-6.9-11.5c-5.9,0-10.7,4.1-12.5,11.5
					C258.1,64.5,260.8,68.6,266.7,68.6 M264.8,76.8c-12.5,0-18.4-7.9-15.5-19.7c2.9-11.9,12.7-19.8,25.2-19.8
					c12.4,0,18.3,7.9,15.4,19.8C287,68.9,277.3,76.8,264.8,76.8"/>
				<path fill="#CCCCCC" d="M316.7,37.9c11.3,0,15,3.8,12.5,14l-6,24.2h-10.1l5.7-23c1.3-5.3,0.7-6.8-5-6.8h-8.1l-7.3,29.8h-10.1
					l9.4-38.3H316.7z"/>
			</g>
			<polygon fill="#CCCCCC" points="253.8,24.9 243.2,24.9 241,34 251.6,34 			"/>
			<polygon fill="#CCCCCC" points="322.3,80.2 320.1,89.2 52.2,89.2 54.4,80.2 			"/>
			<g>
				<path fill="#CCCCCC" d="M84.3,37.9L73.1,49.4l-5.4-11.5H56l9.5,19.2L46.6,76.2h11.8L69.3,65l5.3,11.1h11.8L77,57.3l11.5-11.8
					h9.3l-4.6,18.7c-1.9,7.8,1.3,12,8.6,12h9.2l1.9-7.6h-4.1c-5.2,0-6-2.3-4.7-7.6l3.8-15.5h10.7l1.9-7.6H84.3z"/>
				<path fill="#CCCCCC" d="M92.4,10.7l2.3,23.6h7.1l9.2-16.6l1.2,16.6h7.4L134,10h-6.6l-9.6,17l-1.1-17h-6.8l-9.6,17l-1.1-17H86.2
					l-4.7,19h-5.2c-3.4,0-4-0.8-3.2-4.1L76.8,10h-6.4l-3.9,15.4c-1.6,6.4,0.9,8.9,7.9,8.9h12.1L92.4,10.7z"/>
			</g>
		</g>
	</g>
</g>
</svg>
