<?xml version="1.0" encoding="utf-8"?>
<!-- Generator: Adobe Illustrator 17.1.0, SVG Export Plug-In . SVG Version: 6.00 Build 0)  -->
<!DOCTYPE svg PUBLIC "-//W3C//DTD SVG 1.1//EN" "http://www.w3.org/Graphics/SVG/1.1/DTD/svg11.dtd">
<svg version="1.1" id="Layer_1" xmlns="http://www.w3.org/2000/svg" xmlns:xlink="http://www.w3.org/1999/xlink" x="0px" y="0px"
	 viewBox="0 0 250 59.8" enable-background="new 0 0 250 59.8" xml:space="preserve">
<g>
	<g>
		<path fill="#CCCCCC" d="M37.4,45.2v-5.3c0-0.2,0.2-0.4,0.4-0.4c0.2,0,0.4,0.2,0.4,0.4v5.3c0,0.9,0.3,1.8,2,1.8c1.6,0,2-0.9,2-1.8
			v-5.3c0-0.2,0.2-0.4,0.4-0.4c0.2,0,0.4,0.2,0.4,0.4v5.3c0,1.3-0.5,2.6-2.8,2.6C37.9,47.8,37.4,46.5,37.4,45.2z"/>
		<path fill="#CCCCCC" d="M51.6,39.9v7.4c0,0.2-0.2,0.4-0.4,0.4c-0.1,0-0.3-0.1-0.3-0.2l-4.2-6.3v6.1c0,0.2-0.2,0.4-0.4,0.4
			c-0.2,0-0.4-0.2-0.4-0.4v-7.4c0-0.2,0.2-0.4,0.4-0.4c0.1,0,0.3,0.1,0.3,0.2l4.2,6.3v-6.1c0-0.2,0.2-0.4,0.4-0.4
			C51.4,39.5,51.6,39.7,51.6,39.9z"/>
		<path fill="#CCCCCC" d="M55.3,47.3c0,0.2-0.2,0.4-0.4,0.4c-0.2,0-0.4-0.2-0.4-0.4v-7.4c0-0.2,0.2-0.4,0.4-0.4
			c0.2,0,0.4,0.2,0.4,0.4V47.3z"/>
		<path fill="#CCCCCC" d="M63.2,39.8c0-0.1,0.2-0.3,0.4-0.3c0.2,0,0.4,0.2,0.4,0.4c0,0.1,0,0.1,0,0.2l-2.8,7.4
			c-0.1,0.2-0.2,0.3-0.4,0.3c-0.2,0-0.3-0.1-0.4-0.3l-2.8-7.4c0,0,0-0.1,0-0.2c0-0.2,0.2-0.4,0.4-0.4c0.2,0,0.3,0.2,0.4,0.3l2.4,6.4
			L63.2,39.8z"/>
		<path fill="#CCCCCC" d="M66.6,47.6c-0.2,0-0.4-0.2-0.4-0.4V40c0-0.2,0.2-0.4,0.4-0.4h3.8c0.2,0,0.4,0.2,0.4,0.4
			c0,0.2-0.2,0.4-0.4,0.4H67v2.9h2.6c0.2,0,0.4,0.2,0.4,0.4S69.8,44,69.6,44H67v2.9h3.6c0.2,0,0.4,0.2,0.4,0.4
			c0,0.2-0.2,0.4-0.4,0.4H66.6z"/>
		<path fill="#CCCCCC" d="M74.1,47.3c0,0.2-0.2,0.4-0.4,0.4c-0.2,0-0.4-0.2-0.4-0.4V40c0-0.2,0.2-0.4,0.4-0.4h2.4
			c1.3,0,2.3,1,2.3,2.3c0,1.2-0.8,2.2-2.1,2.3l2.2,2.9c0.1,0.1,0.1,0.2,0.1,0.3c0,0.2-0.2,0.4-0.4,0.4c-0.1,0-0.3,0-0.3-0.2
			l-2.4-3.4h-1.2V47.3z M74.1,43.4h2c0.8,0,1.4-0.7,1.4-1.5c0-0.9-0.6-1.5-1.5-1.5h-2V43.4z"/>
		<path fill="#CCCCCC" d="M83.2,40.2c-1.3,0-1.7,0.6-1.7,1.3c0,2,4.5,1.1,4.5,4c0,1.5-1,2.3-2.9,2.3c-1.4,0-2.4-0.7-2.8-1.5
			c0-0.1-0.1-0.1-0.1-0.2c0-0.2,0.2-0.4,0.4-0.4c0.1,0,0.3,0.1,0.3,0.2c0.4,0.6,1.1,1.1,2.1,1.1c1.3,0,2.1-0.5,2.1-1.6
			c0-2.2-4.5-1.2-4.5-4c0-1.1,0.8-2,2.5-2c1.1,0,2.1,0.5,2.6,1.2c0,0.1,0.1,0.1,0.1,0.2c0,0.2-0.2,0.4-0.4,0.4c-0.1,0-0.2,0-0.3-0.2
			C84.8,40.7,84.3,40.2,83.2,40.2z"/>
		<path fill="#CCCCCC" d="M89.4,47.3c0,0.2-0.2,0.4-0.4,0.4c-0.2,0-0.4-0.2-0.4-0.4v-7.4c0-0.2,0.2-0.4,0.4-0.4
			c0.2,0,0.4,0.2,0.4,0.4V47.3z"/>
		<path fill="#CCCCCC" d="M92,40.4c-0.2,0-0.4-0.2-0.4-0.4c0-0.2,0.2-0.4,0.4-0.4h5.1c0.2,0,0.4,0.2,0.4,0.4c0,0.2-0.2,0.4-0.4,0.4
			H95v7c0,0.2-0.2,0.4-0.4,0.4c-0.2,0-0.4-0.2-0.4-0.4v-7H92z"/>
		<path fill="#CCCCCC" d="M101.9,47.3v-3.4l-2.4-3.8c0-0.1-0.1-0.1-0.1-0.2c0-0.2,0.2-0.4,0.4-0.4c0.1,0,0.3,0.1,0.3,0.2l2.1,3.4
			l2.1-3.4c0.1-0.1,0.2-0.2,0.3-0.2c0.2,0,0.4,0.2,0.4,0.4c0,0.1,0,0.2-0.1,0.2l-2.4,3.8v3.4c0,0.2-0.2,0.4-0.4,0.4
			C102,47.7,101.9,47.6,101.9,47.3z"/>
		<path fill="#CCCCCC" d="M111.1,43.6c0-2.8,1.4-4.2,3.7-4.2c2.3,0,3.7,1.4,3.7,4.2c0,2.8-1.4,4.2-3.7,4.2
			C112.5,47.8,111.1,46.4,111.1,43.6z M111.9,43.6c0,2.3,1.1,3.4,2.9,3.4c1.8,0,2.9-1.1,2.9-3.4c0-2.3-1.1-3.4-2.9-3.4
			C113,40.2,111.9,41.3,111.9,43.6z"/>
		<path fill="#CCCCCC" d="M121.7,47.3c0,0.2-0.2,0.4-0.4,0.4c-0.2,0-0.4-0.2-0.4-0.4V40c0-0.2,0.2-0.4,0.4-0.4h3.8
			c0.2,0,0.4,0.2,0.4,0.4c0,0.2-0.2,0.4-0.4,0.4h-3.4v3h2.6c0.2,0,0.4,0.2,0.4,0.4c0,0.2-0.2,0.4-0.4,0.4h-2.6V47.3z"/>
		<path fill="#CCCCCC" d="M136.2,41.4l-1.7,6.1c0,0.2-0.2,0.3-0.4,0.3c-0.2,0-0.3-0.1-0.4-0.3l-2.1-7.4c0,0,0-0.1,0-0.1
			c0-0.2,0.2-0.4,0.4-0.4s0.4,0.2,0.4,0.3l1.7,6.2l1.7-6.2c0-0.2,0.2-0.3,0.4-0.3s0.3,0.1,0.4,0.3l1.7,6.2l1.7-6.2
			c0-0.1,0.2-0.3,0.4-0.3c0.2,0,0.4,0.2,0.4,0.4c0,0,0,0.1,0,0.1l-2.1,7.4c0,0.2-0.2,0.3-0.4,0.3c-0.2,0-0.3-0.1-0.4-0.3L136.2,41.4
			z"/>
		<path fill="#CCCCCC" d="M143.9,47.3c0,0.2-0.2,0.4-0.4,0.4c-0.2,0-0.4-0.2-0.4-0.4v-7.4c0-0.2,0.2-0.4,0.4-0.4
			c0.2,0,0.4,0.2,0.4,0.4V47.3z"/>
		<path fill="#CCCCCC" d="M149.2,40.2c-1.3,0-1.7,0.6-1.7,1.3c0,2,4.5,1.1,4.5,4c0,1.5-1,2.3-2.9,2.3c-1.4,0-2.4-0.7-2.8-1.5
			c0-0.1-0.1-0.1-0.1-0.2c0-0.2,0.2-0.4,0.4-0.4c0.1,0,0.3,0.1,0.3,0.2c0.4,0.6,1.1,1.1,2.1,1.1c1.3,0,2.1-0.5,2.1-1.6
			c0-2.2-4.5-1.2-4.5-4c0-1.1,0.8-2,2.5-2c1.1,0,2.1,0.5,2.6,1.2c0,0.1,0.1,0.1,0.1,0.2c0,0.2-0.2,0.4-0.4,0.4c-0.1,0-0.2,0-0.3-0.2
			C150.8,40.7,150.2,40.2,149.2,40.2z"/>
		<path fill="#CCCCCC" d="M154.1,43.6c0-2.8,1.4-4.2,3.7-4.2c1.1,0,2.1,0.5,2.7,1.3c0.1,0.1,0.1,0.2,0.1,0.3c0,0.2-0.2,0.4-0.4,0.4
			c-0.1,0-0.2,0-0.3-0.2c-0.4-0.6-1.2-1-2.1-1c-1.8,0-2.9,1.1-2.9,3.4c0,2.5,1,3.4,2.9,3.4c0.8,0,1.6-0.3,2.1-1
			c0.1-0.1,0.2-0.2,0.3-0.2c0.2,0,0.4,0.2,0.4,0.4c0,0.1,0,0.2-0.1,0.2c-0.5,0.8-1.6,1.3-2.7,1.3C155.6,47.8,154.1,46.6,154.1,43.6z
			"/>
		<path fill="#CCCCCC" d="M162.6,43.6c0-2.8,1.4-4.2,3.7-4.2c2.3,0,3.7,1.4,3.7,4.2c0,2.8-1.4,4.2-3.7,4.2
			C164,47.8,162.6,46.4,162.6,43.6z M163.4,43.6c0,2.3,1.1,3.4,2.9,3.4c1.8,0,2.9-1.1,2.9-3.4c0-2.3-1.1-3.4-2.9-3.4
			C164.5,40.2,163.4,41.3,163.4,43.6z"/>
		<path fill="#CCCCCC" d="M178.3,39.9v7.4c0,0.2-0.2,0.4-0.4,0.4c-0.1,0-0.3-0.1-0.3-0.2l-4.2-6.3v6.1c0,0.2-0.2,0.4-0.4,0.4
			c-0.2,0-0.4-0.2-0.4-0.4v-7.4c0-0.2,0.2-0.4,0.4-0.4c0.1,0,0.3,0.1,0.3,0.2l4.2,6.3v-6.1c0-0.2,0.2-0.4,0.4-0.4
			C178.1,39.5,178.3,39.7,178.3,39.9z"/>
		<path fill="#CCCCCC" d="M183.5,40.2c-1.3,0-1.7,0.6-1.7,1.3c0,2,4.5,1.1,4.5,4c0,1.5-1,2.3-2.9,2.3c-1.4,0-2.4-0.7-2.8-1.5
			c0-0.1-0.1-0.1-0.1-0.2c0-0.2,0.2-0.4,0.4-0.4c0.1,0,0.3,0.1,0.3,0.2c0.4,0.6,1.1,1.1,2.1,1.1c1.3,0,2.1-0.5,2.1-1.6
			c0-2.2-4.5-1.2-4.5-4c0-1.1,0.8-2,2.5-2c1.1,0,2.1,0.5,2.6,1.2c0,0.1,0.1,0.1,0.1,0.2c0,0.2-0.2,0.4-0.4,0.4c-0.1,0-0.2,0-0.3-0.2
			C185.1,40.7,184.5,40.2,183.5,40.2z"/>
		<path fill="#CCCCCC" d="M189.7,47.3c0,0.2-0.2,0.4-0.4,0.4c-0.2,0-0.4-0.2-0.4-0.4v-7.4c0-0.2,0.2-0.4,0.4-0.4
			c0.2,0,0.4,0.2,0.4,0.4V47.3z"/>
		<path fill="#CCCCCC" d="M198.3,39.9v7.4c0,0.2-0.2,0.4-0.4,0.4c-0.1,0-0.3-0.1-0.3-0.2l-4.2-6.3v6.1c0,0.2-0.2,0.4-0.4,0.4
			c-0.2,0-0.4-0.2-0.4-0.4v-7.4c0-0.2,0.2-0.4,0.4-0.4c0.1,0,0.3,0.1,0.3,0.2l4.2,6.3v-6.1c0-0.2,0.2-0.4,0.4-0.4
			C198.1,39.5,198.3,39.7,198.3,39.9z"/>
		<path fill="#CCCCCC" d="M207.7,40.2c-1.3,0-1.7,0.6-1.7,1.3c0,2,4.5,1.1,4.5,4c0,1.5-1,2.3-2.9,2.3c-1.4,0-2.4-0.7-2.8-1.5
			c0-0.1-0.1-0.1-0.1-0.2c0-0.2,0.2-0.4,0.4-0.4c0.1,0,0.3,0.1,0.3,0.2c0.4,0.6,1.1,1.1,2.1,1.1c1.3,0,2.1-0.5,2.1-1.6
			c0-2.2-4.5-1.2-4.5-4c0-1.1,0.8-2,2.5-2c1.1,0,2.1,0.5,2.6,1.2c0,0.1,0.1,0.1,0.1,0.2c0,0.2-0.2,0.4-0.4,0.4c-0.1,0-0.2,0-0.3-0.2
			C209.3,40.7,208.7,40.2,207.7,40.2z"/>
		<path fill="#CCCCCC" d="M214.7,47.3v-3.4l-2.4-3.8c0-0.1-0.1-0.1-0.1-0.2c0-0.2,0.2-0.4,0.4-0.4c0.1,0,0.3,0.1,0.3,0.2l2.1,3.4
			l2.1-3.4c0.1-0.1,0.2-0.2,0.3-0.2c0.2,0,0.4,0.2,0.4,0.4c0,0.1,0,0.2-0.1,0.2l-2.4,3.8v3.4c0,0.2-0.2,0.4-0.4,0.4
			S214.7,47.6,214.7,47.3z"/>
		<path fill="#CCCCCC" d="M222.5,40.2c-1.3,0-1.7,0.6-1.7,1.3c0,2,4.5,1.1,4.5,4c0,1.5-1,2.3-2.9,2.3c-1.4,0-2.4-0.7-2.8-1.5
			c0-0.1-0.1-0.1-0.1-0.2c0-0.2,0.2-0.4,0.4-0.4c0.1,0,0.3,0.1,0.3,0.2c0.4,0.6,1.1,1.1,2.1,1.1c1.3,0,2.1-0.5,2.1-1.6
			c0-2.2-4.5-1.2-4.5-4c0-1.1,0.8-2,2.5-2c1.1,0,2.1,0.5,2.6,1.2c0,0.1,0.1,0.1,0.1,0.2c0,0.2-0.2,0.4-0.4,0.4c-0.1,0-0.2,0-0.3-0.2
			C224.1,40.7,223.5,40.2,222.5,40.2z"/>
		<path fill="#CCCCCC" d="M227.5,40.4c-0.2,0-0.4-0.2-0.4-0.4c0-0.2,0.2-0.4,0.4-0.4h5.1c0.2,0,0.4,0.2,0.4,0.4
			c0,0.2-0.2,0.4-0.4,0.4h-2.1v7c0,0.2-0.2,0.4-0.4,0.4c-0.2,0-0.4-0.2-0.4-0.4v-7H227.5z"/>
		<path fill="#CCCCCC" d="M235.7,47.6c-0.2,0-0.4-0.2-0.4-0.4V40c0-0.2,0.2-0.4,0.4-0.4h3.8c0.2,0,0.4,0.2,0.4,0.4
			c0,0.2-0.2,0.4-0.4,0.4h-3.4v2.9h2.6c0.2,0,0.4,0.2,0.4,0.4s-0.2,0.4-0.4,0.4h-2.6v2.9h3.6c0.2,0,0.4,0.2,0.4,0.4
			c0,0.2-0.2,0.4-0.4,0.4H235.7z"/>
		<path fill="#CCCCCC" d="M245.6,46.1l-2.5-4.6v5.9c0,0.2-0.2,0.4-0.4,0.4c-0.2,0-0.4-0.2-0.4-0.4v-7.4c0-0.2,0.2-0.4,0.4-0.4
			c0.2,0,0.3,0.1,0.4,0.2l2.9,5.4l2.9-5.4c0-0.1,0.1-0.2,0.4-0.2c0.2,0,0.4,0.2,0.4,0.4v7.4c0,0.2-0.2,0.4-0.4,0.4
			c-0.2,0-0.4-0.2-0.4-0.4v-5.9l-2.5,4.6c-0.1,0.2-0.2,0.2-0.4,0.2C245.8,46.3,245.7,46.3,245.6,46.1z"/>
	</g>
	<g>
		<path fill="#CCCCCC" d="M86.5,19.8h-1.7v-2.2h1.7v-0.5c0-4.6,3.5-5.2,5.3-5.2c0.6,0,1,0.1,1,0.1v2.3c0,0-0.3-0.1-0.7-0.1
			c-1,0-2.9,0.3-2.9,2.9v0.4h3.3v2.2h-3.3v11.9h-2.7V19.8z M94.9,12.1h2.7v15.3c0,1.7,0.7,2,1.5,2c0.2,0,0.5,0,0.5,0v2.4
			c0,0-0.4,0.1-0.9,0.1c-1.5,0-3.8-0.4-3.8-3.9V12.1z"/>
		<path fill="#CCCCCC" d="M107.3,17.3c4,0,6.1,2.9,6.1,6.6c0,0.4-0.1,1.2-0.1,1.2H103c0.1,3.1,2.3,4.6,4.8,4.6
			c2.4,0,4.2-1.6,4.2-1.6l1.1,2c0,0-2.1,2-5.4,2c-4.4,0-7.4-3.2-7.4-7.4C100.2,20.2,103.3,17.3,107.3,17.3z M110.6,23
			c-0.1-2.4-1.6-3.6-3.4-3.6c-2.1,0-3.7,1.3-4.1,3.6H110.6z"/>
		<path fill="#CCCCCC" d="M127.9,12.1h2.7v2.7h-2.7V12.1z M127.9,17.7h2.7v14h-2.7V17.7z"/>
		<path fill="#CCCCCC" d="M133.5,12.1h2.7v6.4c0,0.7-0.1,1.2-0.1,1.2h0.1c0,0,1.2-2.4,4.5-2.4c3.8,0,6.2,3,6.2,7.4
			c0,4.5-2.7,7.4-6.4,7.4c-3.1,0-4.4-2.4-4.4-2.4H136c0,0,0.1,0.4,0.1,1.1v1h-2.6V12.1z M140.1,29.7c2.2,0,4.1-1.8,4.1-5
			c0-3.1-1.6-5-4-5c-2.1,0-4.1,1.5-4.1,5.1C136.1,27.2,137.4,29.7,140.1,29.7z"/>
		<path fill="#CCCCCC" d="M148.9,12.1h2.7v15.3c0,1.7,0.7,2,1.5,2c0.2,0,0.5,0,0.5,0v2.4c0,0-0.4,0.1-0.9,0.1
			c-1.5,0-3.8-0.4-3.8-3.9V12.1z"/>
		<path fill="#CCCCCC" d="M161.1,17.3c4,0,6.1,2.9,6.1,6.6c0,0.4-0.1,1.2-0.1,1.2h-10.2c0.1,3.1,2.3,4.6,4.8,4.6
			c2.4,0,4.2-1.6,4.2-1.6l1.1,2c0,0-2.1,2-5.4,2c-4.4,0-7.4-3.2-7.4-7.4C154.1,20.2,157.1,17.3,161.1,17.3z M164.5,23
			c-0.1-2.4-1.6-3.6-3.4-3.6c-2.1,0-3.7,1.3-4.1,3.6H164.5z"/>
		<path fill="#CCCCCC" d="M182.8,17.3c4.2,0,7.6,3.1,7.6,7.3c0,4.3-3.4,7.4-7.6,7.4c-4.2,0-7.6-3.1-7.6-7.4
			C175.2,20.4,178.6,17.3,182.8,17.3z M182.8,29.7c2.7,0,4.8-2.1,4.8-5.1c0-2.9-2.2-5-4.8-5c-2.6,0-4.8,2.1-4.8,5
			C177.9,27.6,180.1,29.7,182.8,29.7z"/>
		<path fill="#CCCCCC" d="M191.9,17.7h2.5v1.2c0,0.6-0.1,1-0.1,1h0.1c0,0,1.2-2.6,4.7-2.6c3.8,0,6.2,3,6.2,7.4
			c0,4.5-2.7,7.4-6.4,7.4c-3.1,0-4.3-2.3-4.3-2.3h-0.1c0,0,0.1,0.5,0.1,1.2v6.3h-2.7V17.7z M198.5,29.7c2.2,0,4.1-1.8,4.1-5
			c0-3.1-1.6-5-4-5c-2.1,0-4.1,1.5-4.1,5.1C194.5,27.2,195.9,29.7,198.5,29.7z"/>
		<path fill="#CCCCCC" d="M207.7,19.8h-1.8v-2.2h1.9v-3.9h2.6v3.9h3.4v2.2h-3.4v6.4c0,2.8,2,3.2,3,3.2c0.4,0,0.6-0.1,0.6-0.1v2.4
			c0,0-0.4,0.1-0.9,0.1c-1.8,0-5.4-0.6-5.4-5.2V19.8z"/>
		<path fill="#CCCCCC" d="M215.5,12.1h2.7v2.7h-2.7V12.1z M215.5,17.7h2.7v14h-2.7V17.7z"/>
		<path fill="#CCCCCC" d="M227.8,17.3c4.2,0,7.6,3.1,7.6,7.3c0,4.3-3.4,7.4-7.6,7.4c-4.2,0-7.6-3.1-7.6-7.4
			C220.2,20.4,223.6,17.3,227.8,17.3z M227.8,29.7c2.7,0,4.8-2.1,4.8-5.1c0-2.9-2.2-5-4.8-5c-2.6,0-4.8,2.1-4.8,5
			C223,27.6,225.2,29.7,227.8,29.7z"/>
		<path fill="#CCCCCC" d="M237.3,17.7h2.6v1.9c0,0.6-0.1,1-0.1,1h0.1c0.6-1.2,2.2-3.2,5.3-3.2c3.3,0,4.8,1.8,4.8,5.4v9h-2.7v-8.4
			c0-2-0.4-3.5-2.7-3.5c-2.1,0-3.9,1.4-4.4,3.4c-0.2,0.6-0.2,1.2-0.2,1.9v6.6h-2.7V17.7z"/>
		<polygon fill="#CCCCCC" points="123.2,22.4 126.3,17.7 123.3,17.7 121.7,20.3 		"/>
		<polygon fill="#CCCCCC" points="123.2,26.5 121.7,28.7 123.5,31.7 126.6,31.7 		"/>
		<path fill="#CCCCCC" d="M120.1,26.2L120.1,26.2l1.2-1.7l-1.1-1.7h0c0,0-0.1-0.1-0.2-0.3l-3.2-4.8H114l4.5,6.8l-4.8,7.2h2.8
			l3.5-5.3C120.1,26.3,120.1,26.2,120.1,26.2z"/>
		<g>
			<path fill="#CCCCCC" d="M49.6,25c0,3-1.9,4.8-5,4.8c-3,0-4.9-1.8-4.9-4.7V12h-3.1v13c0,4.5,3.2,7.5,8,7.5c4.8,0,8-3,8-7.5V12
				h-3.1V25z"/>
			<path fill="#CCCCCC" d="M75.6,12l-3.7,14.8c-0.1,0.5-0.2,1.1-0.3,1.5c-0.1-0.4-0.2-0.9-0.3-1.5l-3.9-14.7l0-0.1h-2.7l-3.9,14.8
				c-0.1,0.6-0.3,1.1-0.3,1.5c-0.1-0.4-0.2-0.9-0.3-1.5L56.6,12h-3.1l5.1,20.1l0,0.1h3.4l3.5-13.1c0.2-0.8,0.4-1.7,0.5-2.3
				c0.1,0.6,0.3,1.5,0.5,2.3l3.5,13l0,0.1h3.4L78.8,12H75.6z"/>
		</g>
	</g>
	<path fill="#CCCCCC" d="M0,12v24.8c0,3.7,14.7,8.7,14.7,8.7s14.8-4.9,14.8-8.7V12L0,12z M14.8,19.4l3.7,1.1l-3.7,1.2L11,20.5
		L14.8,19.4z M20.3,24.7L14.8,27l-5.6-2.3l5.5-1.8L20.3,24.7z M3.9,22.6L9,21.1l3.8,1.2L7.5,24L3.9,22.6z M20.6,29.4l-5.9,2.7
		l-5.7-2.6v-3.3l5.8,2.4l5.8-2.4V29.4z M23.5,23.4V30L22,30.6V24l-5.3-1.7l3.8-1.3l5.1,1.5L23.5,23.4z"/>
</g>
</svg>
