<?xml version="1.0" encoding="utf-8"?>
<!-- Generator: Adobe Illustrator 17.1.0, SVG Export Plug-In . SVG Version: 6.00 Build 0)  -->
<!DOCTYPE svg PUBLIC "-//W3C//DTD SVG 1.1//EN" "http://www.w3.org/Graphics/SVG/1.1/DTD/svg11.dtd">
<svg version="1.1" id="Layer_1" xmlns="http://www.w3.org/2000/svg" xmlns:xlink="http://www.w3.org/1999/xlink" x="0px" y="0px"
	 viewBox="0 0 205 59.8" enable-background="new 0 0 205 59.8" xml:space="preserve">
<g>
	<g>
		<path fill="#CCCCCC" d="M28.5,26.3c0,0,27,20.1-28.5,33.5C0,59.8,44.3,49.8,28.5,26.3"/>
		<path fill="#CCCCCC" d="M32.9,0c0,0-27,20.1,28.5,33.5C61.4,33.5,17,23.5,32.9,0"/>
		<path fill="#CCCCCC" d="M40.1,10.4c0,1.7-1.4,3-3,3c-1.7,0-3-1.4-3-3c0-1.7,1.4-3,3-3C38.7,7.4,40.1,8.7,40.1,10.4"/>
	</g>
	<g>
		<path fill="#CCCCCC" d="M58.8,41.7h0.6v2.6h3.2v-2.6h0.6v6.1h-0.6v-2.9h-3.2v2.9h-0.6V41.7z"/>
		<path fill="#CCCCCC" d="M64.8,41.7h3.6v0.6h-3v1.9h2.9v0.6h-2.9v2.4h2.9v0.6h-3.6V41.7z"/>
		<path fill="#CCCCCC" d="M72,41.7l2.9,6.1h-0.7l-1-2h-2.7l-1,2h-0.7l3-6.1H72z M71.9,43l-1.1,2.2H73L71.9,43z"/>
		<path fill="#CCCCCC" d="M75.9,41.7h0.6v5.5h2.4v0.6h-3V41.7z"/>
		<path fill="#CCCCCC" d="M79.3,42.3v-0.6h3.4v0.6h-1.4v5.5h-0.6v-5.5H79.3z"/>
		<path fill="#CCCCCC" d="M83.7,41.7h0.6v2.6h3.2v-2.6h0.6v6.1h-0.6v-2.9h-3.2v2.9h-0.6V41.7z"/>
		<path fill="#CCCCCC" d="M95.8,45.9l0.3,0.4c-0.2,0.2-0.4,0.4-0.6,0.5c0.1,0.1,0.3,0.3,0.5,0.5c0.2,0.2,0.3,0.3,0.5,0.5h-0.7
			l-0.7-0.7c-0.4,0.3-0.8,0.6-1,0.7c-0.3,0.1-0.6,0.2-0.9,0.2c-0.4,0-0.7-0.1-1-0.3c-0.2-0.2-0.4-0.5-0.4-0.8c0-0.3,0.1-0.5,0.2-0.8
			c0.2-0.3,0.5-0.6,1-1c-0.3-0.3-0.5-0.6-0.5-0.7c-0.1-0.2-0.1-0.3-0.1-0.5c0-0.2,0.1-0.5,0.3-0.6c0.2-0.2,0.5-0.3,0.9-0.3
			c0.2,0,0.4,0,0.6,0.1c0.2,0.1,0.3,0.2,0.4,0.3c0.1,0.1,0.1,0.3,0.1,0.5c0,0.2-0.1,0.3-0.2,0.5c-0.1,0.2-0.4,0.4-0.7,0.7l0.8,0.8
			l0.5,0.5C95.4,46.2,95.7,46.1,95.8,45.9z M93.5,45.4c-0.4,0.3-0.7,0.6-0.9,0.8c-0.1,0.2-0.2,0.4-0.2,0.5c0,0.2,0.1,0.4,0.2,0.5
			c0.2,0.1,0.4,0.2,0.6,0.2c0.2,0,0.4,0,0.5-0.1c0.3-0.1,0.6-0.3,1-0.6L94,45.9C93.8,45.8,93.7,45.6,93.5,45.4z M93.6,44.7
			c0.3-0.2,0.4-0.4,0.6-0.6c0.1-0.1,0.1-0.2,0.1-0.3c0-0.1-0.1-0.2-0.2-0.3c-0.1-0.1-0.3-0.1-0.5-0.1c-0.2,0-0.3,0-0.4,0.1
			c-0.1,0.1-0.2,0.2-0.2,0.3c0,0.1,0,0.2,0.1,0.3C93.2,44.3,93.3,44.5,93.6,44.7z"/>
		<path fill="#CCCCCC" d="M99.6,41.7h0.6l1.3,4.4l1.8-4.4h0.1l1.8,4.4l1.3-4.4h0.6l-1.8,6.1h-0.1l-1.9-4.6l-1.9,4.6h-0.1L99.6,41.7z
			"/>
		<path fill="#CCCCCC" d="M108.3,41.7h3.6v0.6h-3v1.9h2.9v0.6h-2.9v2.4h2.9v0.6h-3.6V41.7z"/>
		<path fill="#CCCCCC" d="M113,41.7h0.6v5.5h2.4v0.6h-3V41.7z"/>
		<path fill="#CCCCCC" d="M117,41.7h0.6v5.5h2.4v0.6h-3V41.7z"/>
		<path fill="#CCCCCC" d="M121,47.8v-6.1h0.1l4.2,4.7v-4.7h0.6v6.1h-0.1l-4.1-4.6v4.6H121z"/>
		<path fill="#CCCCCC" d="M127.5,41.7h3.6v0.6h-3v1.9h2.9v0.6h-2.9v2.4h2.9v0.6h-3.6V41.7z"/>
		<path fill="#CCCCCC" d="M131.5,46.6l0.5-0.3c0.4,0.7,0.8,1,1.3,1c0.2,0,0.4,0,0.6-0.1c0.2-0.1,0.3-0.2,0.4-0.4
			c0.1-0.2,0.1-0.3,0.1-0.5c0-0.2-0.1-0.4-0.2-0.6c-0.2-0.3-0.6-0.6-1.1-1c-0.5-0.4-0.8-0.7-1-0.8c-0.2-0.3-0.3-0.6-0.3-0.9
			c0-0.3,0.1-0.5,0.2-0.7c0.1-0.2,0.3-0.4,0.6-0.5c0.2-0.1,0.5-0.2,0.8-0.2c0.3,0,0.6,0.1,0.8,0.2c0.3,0.1,0.5,0.4,0.8,0.8l-0.5,0.4
			c-0.2-0.3-0.4-0.5-0.6-0.6c-0.2-0.1-0.3-0.1-0.5-0.1c-0.3,0-0.5,0.1-0.6,0.2c-0.2,0.1-0.2,0.3-0.2,0.6c0,0.1,0,0.3,0.1,0.4
			c0.1,0.1,0.2,0.3,0.3,0.4c0.1,0.1,0.4,0.3,0.8,0.6c0.5,0.4,0.9,0.7,1.1,1c0.2,0.3,0.3,0.6,0.3,0.9c0,0.4-0.2,0.8-0.5,1.2
			c-0.3,0.3-0.8,0.5-1.3,0.5c-0.4,0-0.7-0.1-1-0.3C132.1,47.4,131.8,47.1,131.5,46.6z"/>
		<path fill="#CCCCCC" d="M135.9,46.6l0.5-0.3c0.4,0.7,0.8,1,1.3,1c0.2,0,0.4,0,0.6-0.1c0.2-0.1,0.3-0.2,0.4-0.4
			c0.1-0.2,0.1-0.3,0.1-0.5c0-0.2-0.1-0.4-0.2-0.6c-0.2-0.3-0.6-0.6-1.1-1c-0.5-0.4-0.8-0.7-1-0.8c-0.2-0.3-0.3-0.6-0.3-0.9
			c0-0.3,0.1-0.5,0.2-0.7c0.1-0.2,0.3-0.4,0.6-0.5c0.2-0.1,0.5-0.2,0.8-0.2c0.3,0,0.6,0.1,0.8,0.2c0.3,0.1,0.5,0.4,0.8,0.8l-0.5,0.4
			c-0.2-0.3-0.4-0.5-0.6-0.6c-0.2-0.1-0.3-0.1-0.5-0.1c-0.3,0-0.5,0.1-0.6,0.2c-0.2,0.1-0.2,0.3-0.2,0.6c0,0.1,0,0.3,0.1,0.4
			c0.1,0.1,0.2,0.3,0.3,0.4c0.1,0.1,0.4,0.3,0.8,0.6c0.5,0.4,0.9,0.7,1.1,1c0.2,0.3,0.3,0.6,0.3,0.9c0,0.4-0.2,0.8-0.5,1.2
			c-0.3,0.3-0.8,0.5-1.3,0.5c-0.4,0-0.7-0.1-1-0.3C136.4,47.4,136.2,47.1,135.9,46.6z"/>
		<path fill="#CCCCCC" d="M143,47.8l0.9-6.1h0.1l2.5,5l2.5-5h0.1l0.9,6.1h-0.6l-0.6-4.4l-2.2,4.4h-0.2l-2.2-4.4l-0.6,4.4H143z"/>
		<path fill="#CCCCCC" d="M153.9,41.7l2.9,6.1h-0.7l-1-2h-2.7l-1,2h-0.7l3-6.1H153.9z M153.8,43l-1.1,2.2h2.1L153.8,43z"/>
		<path fill="#CCCCCC" d="M157.8,47.8v-6.1h0.1l4.2,4.7v-4.7h0.6v6.1h-0.1l-4.1-4.6v4.6H157.8z"/>
		<path fill="#CCCCCC" d="M166.8,41.7l2.9,6.1h-0.7l-1-2h-2.7l-1,2h-0.7l3-6.1H166.8z M166.7,43l-1.1,2.2h2.1L166.7,43z"/>
		<path fill="#CCCCCC" d="M176.8,42.7l-0.5,0.4c-0.4-0.3-0.7-0.6-1.1-0.8c-0.4-0.2-0.8-0.3-1.2-0.3c-0.5,0-1,0.1-1.4,0.4
			c-0.4,0.2-0.8,0.6-1,1c-0.2,0.4-0.4,0.8-0.4,1.3c0,0.5,0.1,0.9,0.4,1.3c0.3,0.4,0.6,0.7,1,1c0.4,0.2,0.9,0.4,1.5,0.4
			c0.6,0,1.2-0.2,1.6-0.5c0.4-0.4,0.7-0.8,0.8-1.4h-2v-0.6h2.7c0,0.9-0.3,1.7-0.9,2.2c-0.6,0.6-1.3,0.8-2.3,0.8
			c-1.2,0-2.1-0.4-2.8-1.2c-0.5-0.6-0.8-1.3-0.8-2c0-0.6,0.2-1.1,0.4-1.6c0.3-0.5,0.7-0.9,1.2-1.2c0.5-0.3,1.1-0.4,1.8-0.4
			c0.5,0,1,0.1,1.5,0.3C175.9,42,176.3,42.3,176.8,42.7z"/>
		<path fill="#CCCCCC" d="M178.3,41.7h3.6v0.6h-3v1.9h2.9v0.6H179v2.4h2.9v0.6h-3.6V41.7z"/>
		<path fill="#CCCCCC" d="M182.7,47.8l0.9-6.1h0.1l2.6,5l2.5-5h0.1l0.9,6.1h-0.6l-0.6-4.4l-2.2,4.4h-0.2l-2.2-4.4l-0.6,4.4H182.7z"
			/>
		<path fill="#CCCCCC" d="M191,41.7h3.6v0.6h-3v1.9h2.9v0.6h-2.9v2.4h2.9v0.6H191V41.7z"/>
		<path fill="#CCCCCC" d="M195.7,47.8v-6.1h0.1l4.2,4.7v-4.7h0.6v6.1h-0.1l-4.1-4.6v4.6H195.7z"/>
		<path fill="#CCCCCC" d="M201.6,42.3v-0.6h3.4v0.6h-1.4v5.5H203v-5.5H201.6z"/>
	</g>
	<g>
		<path fill="#CCCCCC" d="M91.9,6.3h0.8v5c0,0.6,0,1,0,1.1c0,0.3,0.1,0.6,0.3,0.8c0.1,0.2,0.4,0.4,0.7,0.5c0.3,0.1,0.6,0.2,0.9,0.2
			c0.3,0,0.5-0.1,0.8-0.2c0.2-0.1,0.5-0.3,0.6-0.5c0.2-0.2,0.3-0.5,0.4-0.7c0.1-0.2,0.1-0.6,0.1-1.3v-5h0.8v5c0,0.7-0.1,1.3-0.2,1.8
			c-0.1,0.5-0.4,0.8-0.9,1.2c-0.4,0.3-1,0.5-1.6,0.5c-0.7,0-1.2-0.2-1.7-0.5c-0.5-0.3-0.8-0.7-1-1.3c-0.1-0.3-0.2-0.9-0.2-1.7V6.3z"
			/>
		<path fill="#CCCCCC" d="M99.4,14.6V6.3h0.2l5.5,6.3V6.3h0.8v8.2h-0.2l-5.4-6.2v6.2H99.4z"/>
		<path fill="#CCCCCC" d="M107.7,6.3h0.8v8.2h-0.8V6.3z"/>
		<path fill="#CCCCCC" d="M109.8,6.3h0.9l2.7,6.4l2.8-6.4h0.9l-3.6,8.2h-0.2L109.8,6.3z"/>
		<path fill="#CCCCCC" d="M118.5,6.3h4.7v0.8h-3.9v2.6h3.9v0.8h-3.9v3.2h3.9v0.8h-4.7V6.3z"/>
		<path fill="#CCCCCC" d="M124.7,6.3h1.6c0.9,0,1.5,0,1.9,0.1c0.5,0.1,0.9,0.4,1.2,0.7c0.3,0.4,0.5,0.8,0.5,1.4
			c0,0.4-0.1,0.8-0.3,1.2c-0.2,0.3-0.5,0.6-0.9,0.8c-0.4,0.2-0.9,0.3-1.6,0.3l3,3.8h-1l-3-3.8h-0.5v3.8h-0.8V6.3z M125.5,7.2V10
			l1.4,0c0.6,0,1-0.1,1.2-0.2c0.3-0.1,0.5-0.3,0.6-0.5c0.1-0.2,0.2-0.5,0.2-0.8c0-0.3-0.1-0.5-0.2-0.8c-0.1-0.2-0.3-0.4-0.6-0.5
			c-0.2-0.1-0.6-0.1-1.2-0.1H125.5z"/>
		<path fill="#CCCCCC" d="M130.7,13l0.7-0.4c0.5,0.9,1.1,1.4,1.7,1.4c0.3,0,0.5-0.1,0.8-0.2c0.2-0.1,0.4-0.3,0.6-0.5
			c0.1-0.2,0.2-0.4,0.2-0.7c0-0.3-0.1-0.5-0.3-0.8c-0.3-0.4-0.7-0.8-1.4-1.3c-0.7-0.5-1.1-0.9-1.3-1.1c-0.3-0.4-0.4-0.8-0.4-1.3
			c0-0.4,0.1-0.7,0.3-1c0.2-0.3,0.4-0.5,0.7-0.7c0.3-0.2,0.7-0.3,1-0.3c0.4,0,0.8,0.1,1.1,0.3c0.3,0.2,0.7,0.5,1.1,1.1L134.7,8
			c-0.3-0.4-0.6-0.7-0.8-0.8c-0.2-0.1-0.5-0.2-0.7-0.2c-0.3,0-0.6,0.1-0.8,0.3c-0.2,0.2-0.3,0.4-0.3,0.7c0,0.2,0,0.4,0.1,0.5
			c0.1,0.2,0.2,0.4,0.4,0.5c0.1,0.1,0.5,0.4,1.1,0.8c0.7,0.5,1.2,1,1.5,1.4c0.3,0.4,0.4,0.8,0.4,1.2c0,0.6-0.2,1.1-0.7,1.6
			c-0.5,0.4-1,0.7-1.7,0.7c-0.5,0-1-0.1-1.4-0.4C131.4,14.1,131.1,13.7,130.7,13z"/>
		<path fill="#CCCCCC" d="M137.2,6.3h0.8v8.2h-0.8V6.3z"/>
		<path fill="#CCCCCC" d="M139.1,7.2V6.3h4.5v0.8h-1.8v7.4h-0.8V7.2H139.1z"/>
		<path fill="#CCCCCC" d="M144.1,6.3h0.9l2.1,3.4l2.1-3.4h1l-2.6,4.3v3.9h-0.8v-3.9L144.1,6.3z"/>
		<path fill="#CCCCCC" d="M158.6,6.1c1.2,0,2.3,0.4,3.1,1.2c0.8,0.8,1.3,1.9,1.3,3.1c0,1.2-0.4,2.2-1.3,3.1
			c-0.8,0.8-1.9,1.3-3.1,1.3c-1.2,0-2.3-0.4-3.1-1.3c-0.8-0.8-1.3-1.8-1.3-3c0-0.8,0.2-1.5,0.6-2.2c0.4-0.7,0.9-1.2,1.6-1.6
			C157.2,6.3,157.9,6.1,158.6,6.1z M158.7,6.9c-0.6,0-1.2,0.2-1.7,0.5c-0.5,0.3-1,0.7-1.3,1.3c-0.3,0.5-0.5,1.1-0.5,1.8
			c0,1,0.3,1.8,1,2.5c0.7,0.7,1.5,1,2.5,1c0.6,0,1.2-0.2,1.8-0.5c0.5-0.3,1-0.7,1.3-1.3c0.3-0.5,0.5-1.1,0.5-1.8
			c0-0.7-0.2-1.2-0.5-1.8c-0.3-0.5-0.7-1-1.3-1.3C159.9,7.1,159.3,6.9,158.7,6.9z"/>
		<path fill="#CCCCCC" d="M164.7,6.3h4.1v0.8h-3.3v2.6h3.3v0.8h-3.3v4h-0.8V6.3z"/>
		<path fill="#CCCCCC" d="M73.9,19.9h1.6l3.1,10.9l4.3-10.9h0.3l4.3,10.9l3.1-10.9h1.5L87.8,35h-0.3l-4.5-11.4L78.5,35h-0.3
			L73.9,19.9z"/>
		<path fill="#CCCCCC" d="M94.7,19.9h1.5V35h-1.5V19.9z"/>
		<path fill="#CCCCCC" d="M98.2,32.2l1.3-0.8c0.9,1.7,1.9,2.5,3.1,2.5c0.5,0,1-0.1,1.4-0.4c0.4-0.2,0.8-0.6,1-0.9
			c0.2-0.4,0.3-0.8,0.3-1.3c0-0.5-0.2-1-0.5-1.5c-0.5-0.7-1.3-1.5-2.6-2.4c-1.3-1-2-1.6-2.3-2.1c-0.5-0.7-0.8-1.5-0.8-2.3
			c0-0.7,0.2-1.3,0.5-1.8c0.3-0.5,0.8-1,1.3-1.3c0.6-0.3,1.2-0.5,1.9-0.5c0.7,0,1.4,0.2,2,0.5c0.6,0.4,1.3,1,2,1.9l-1.2,0.9
			c-0.6-0.8-1.1-1.2-1.5-1.5c-0.4-0.2-0.8-0.4-1.3-0.4c-0.6,0-1.1,0.2-1.5,0.6c-0.4,0.4-0.6,0.8-0.6,1.4c0,0.3,0.1,0.6,0.2,1
			c0.1,0.3,0.4,0.6,0.8,1c0.2,0.2,0.8,0.7,1.9,1.5c1.3,1,2.2,1.8,2.7,2.6c0.5,0.8,0.7,1.5,0.7,2.3c0,1.1-0.4,2-1.2,2.9
			c-0.8,0.8-1.8,1.2-3,1.2c-0.9,0-1.7-0.2-2.5-0.7C99.6,34.1,98.9,33.3,98.2,32.2z"/>
		<path fill="#CCCCCC" d="M124.3,22.7l-1.2,0.9c-0.7-0.9-1.4-1.5-2.4-1.9c-0.9-0.4-1.9-0.7-3-0.7c-1.2,0-2.3,0.3-3.3,0.9
			c-1,0.6-1.8,1.4-2.4,2.3c-0.6,1-0.8,2.1-0.8,3.3c0,1.8,0.6,3.4,1.9,4.6c1.3,1.2,2.9,1.8,4.8,1.8c2.1,0,3.9-0.8,5.3-2.5l1.2,0.9
			c-0.8,1-1.7,1.7-2.8,2.2c-1.1,0.5-2.4,0.8-3.8,0.8c-2.6,0-4.7-0.9-6.3-2.6c-1.3-1.5-1.9-3.3-1.9-5.4c0-2.2,0.8-4.1,2.3-5.6
			c1.5-1.5,3.5-2.3,5.8-2.3c1.4,0,2.7,0.3,3.8,0.8C122.7,20.9,123.6,21.7,124.3,22.7z"/>
		<path fill="#CCCCCC" d="M134.6,19.5c2.3,0,4.2,0.8,5.7,2.3c1.5,1.5,2.3,3.4,2.3,5.6c0,2.2-0.8,4.1-2.3,5.6
			c-1.5,1.5-3.4,2.3-5.6,2.3c-2.2,0-4.1-0.8-5.7-2.3c-1.5-1.5-2.3-3.4-2.3-5.6c0-1.4,0.4-2.8,1.1-4c0.7-1.2,1.7-2.2,2.9-2.9
			C131.8,19.8,133.1,19.5,134.6,19.5z M134.6,21c-1.1,0-2.2,0.3-3.2,0.9c-1,0.6-1.8,1.4-2.3,2.4c-0.6,1-0.8,2.1-0.8,3.3
			c0,1.8,0.6,3.3,1.9,4.5c1.2,1.2,2.7,1.9,4.5,1.9c1.2,0,2.3-0.3,3.3-0.9c1-0.6,1.8-1.3,2.3-2.3c0.6-1,0.8-2.1,0.8-3.3
			c0-1.2-0.3-2.3-0.8-3.3c-0.6-1-1.3-1.7-2.4-2.3C136.8,21.2,135.8,21,134.6,21z"/>
		<path fill="#CCCCCC" d="M145.6,35V19.9h0.3l10,11.6V19.9h1.5V35h-0.3l-10-11.4V35H145.6z"/>
		<path fill="#CCCCCC" d="M159.8,32.2l1.3-0.8c0.9,1.7,1.9,2.5,3.1,2.5c0.5,0,1-0.1,1.4-0.4c0.4-0.2,0.8-0.6,1-0.9s0.3-0.8,0.3-1.3
			c0-0.5-0.2-1-0.5-1.5c-0.5-0.7-1.3-1.5-2.6-2.4c-1.3-1-2-1.6-2.4-2.1c-0.5-0.7-0.8-1.5-0.8-2.3c0-0.7,0.2-1.3,0.5-1.8
			c0.3-0.5,0.8-1,1.3-1.3c0.6-0.3,1.2-0.5,1.9-0.5c0.7,0,1.4,0.2,2,0.5c0.6,0.4,1.3,1,2,1.9l-1.2,0.9c-0.6-0.8-1.1-1.2-1.5-1.5
			c-0.4-0.2-0.8-0.4-1.3-0.4c-0.6,0-1.1,0.2-1.5,0.6c-0.4,0.4-0.6,0.8-0.6,1.4c0,0.3,0.1,0.6,0.2,1c0.1,0.3,0.4,0.6,0.7,1
			c0.2,0.2,0.8,0.7,2,1.5c1.3,1,2.2,1.8,2.7,2.6c0.5,0.8,0.7,1.5,0.7,2.3c0,1.1-0.4,2-1.2,2.9c-0.8,0.8-1.8,1.2-3,1.2
			c-0.9,0-1.7-0.2-2.5-0.7C161.2,34.1,160.5,33.3,159.8,32.2z"/>
		<path fill="#CCCCCC" d="M171.6,19.9h1.5V35h-1.5V19.9z"/>
		<path fill="#CCCCCC" d="M176.6,35V19.9h0.3l10,11.6V19.9h1.5V35h-0.3l-10-11.4V35H176.6z"/>
	</g>
</g>
</svg>
