<?xml version="1.0" encoding="utf-8"?>
<!-- Generator: Adobe Illustrator 17.1.0, SVG Export Plug-In . SVG Version: 6.00 Build 0)  -->
<!DOCTYPE svg PUBLIC "-//W3C//DTD SVG 1.1//EN" "http://www.w3.org/Graphics/SVG/1.1/DTD/svg11.dtd">
<svg version="1.1" xmlns="http://www.w3.org/2000/svg" xmlns:xlink="http://www.w3.org/1999/xlink" x="0px" y="0px"
	 viewBox="0 0 340 124" enable-background="new 0 0 340 124" xml:space="preserve">
<g id="Layer_2" display="none">
	<rect display="inline" fill="#EBEBEB" width="150" height="62"/>
</g>
<g id="Layer_1">
	<g>
		<g>
			<g>
				<g>
					<g>
						<path fill="#CCCCCC" d="M69.8,95.3c-8.9,0-17.3-3.5-23.7-9.8c-13-13-13-34.3,0-47.3c6.3-6.3,14.7-9.8,23.7-9.8
							c8.9,0,17.3,3.5,23.7,9.8c13,13,13,34.3,0,47.3C87.1,91.8,78.7,95.3,69.8,95.3L69.8,95.3z M69.8,31.5
							c-8.1,0-15.7,3.2-21.4,8.9c-11.8,11.8-11.8,31,0,42.9c5.7,5.7,13.3,8.9,21.4,8.9c8.1,0,15.7-3.2,21.4-8.9
							c11.8-11.8,11.8-31.1,0-42.9C85.5,34.7,77.9,31.5,69.8,31.5L69.8,31.5z"/>
					</g>
				</g>
			</g>
			<g>
				<g>
					<path fill="#EBEBEB" d="M56,61.8c0,10-8.1,18-18,18c-10,0-18-8.1-18-18c0-10,8.1-18,18-18C47.9,43.8,56,51.9,56,61.8z"/>
					<path fill="#CCCCCC" d="M37.9,81.8c-11,0-19.9-8.9-19.9-19.9c0-11,9-20,19.9-20c11,0,19.9,9,19.9,20
						C57.9,72.8,48.9,81.8,37.9,81.8L37.9,81.8z M37.9,45.7c-8.9,0-16.1,7.2-16.1,16.1c0,8.9,7.2,16.1,16.1,16.1
						c8.9,0,16.1-7.2,16.1-16.1C54,53,46.8,45.7,37.9,45.7L37.9,45.7z"/>
				</g>
				<g>
					<path fill="#CCCCCC" d="M43.5,58v-4.1c0-2.9-2.4-5.3-5.3-5.3h-0.6c-2.9,0-5.3,2.4-5.3,5.3V58c-2.3,1.7-3.9,4.5-3.9,7.6
						c0,5.2,4.2,9.4,9.4,9.4c5.2,0,9.4-4.2,9.4-9.4C47.4,62.5,45.8,59.7,43.5,58z M34.2,53.7c0-2.1,1.7-3.8,3.8-3.8
						c2.1,0,3.8,1.7,3.8,3.8V57c-1.2-0.5-2.4-0.8-3.8-0.8c-1.3,0-2.6,0.3-3.8,0.8V53.7z M35.5,62.6c0-1.4,1.1-2.5,2.5-2.5
						c1.4,0,2.5,1.1,2.5,2.5c0,0.8-0.3,1.4-0.9,1.9l1.4,6.6h-6l1.4-6.6C35.8,64,35.5,63.4,35.5,62.6z"/>
				</g>
			</g>
			<g>
				<g>
					<path fill="#EBEBEB" d="M119.7,61.8c0,10-8.1,18-18,18c-10,0-18-8.1-18-18c0-10,8.1-18,18-18C111.6,43.8,119.7,51.9,119.7,61.8
						z"/>
					<path fill="#CCCCCC" d="M101.6,81.8c-11,0-19.9-8.9-19.9-19.9c0-11,8.9-19.9,19.9-19.9c11,0,19.9,9,19.9,19.9
						C121.6,72.8,112.6,81.8,101.6,81.8L101.6,81.8z M101.6,45.7c-8.9,0-16.1,7.2-16.1,16.1c0,8.9,7.2,16.1,16.1,16.1
						c8.9,0,16.1-7.2,16.1-16.1C117.7,53,110.5,45.7,101.6,45.7L101.6,45.7z"/>
				</g>
				<g>
					<path fill="#CCCCCC" d="M110.2,64c0-1.5-1.2-2.7-2.7-2.7c-1.5,0-2.7,1.2-2.7,2.7c0,1.2,0.8,2.2,1.8,2.6v4c0,2-1.6,3.6-3.6,3.6
						c-2,0-3.6-1.6-3.6-3.6v-6.3c2.7-0.1,4.8-2.3,4.8-5v-6.3c0.4-0.3,0.7-0.8,0.7-1.3c0-0.9-0.7-1.6-1.6-1.6c-0.9,0-1.6,0.7-1.6,1.6
						c0,0.6,0.4,1.2,0.9,1.4v6.4c0,2-1.6,3.6-3.6,3.6c-2,0-3.6-1.6-3.6-3.6v-6.4c0.5-0.3,0.8-0.8,0.8-1.4c0-0.9-0.7-1.6-1.6-1.6
						c-0.9,0-1.6,0.7-1.6,1.6c0,0.6,0.3,1.1,0.8,1.4v6.3c0,2.4,1.7,4.4,3.9,4.9v6.3c0,2.7,2.2,5,5,5h0.6c2.7,0,5-2.2,5-5v-3.9
						C109.4,66.3,110.2,65.3,110.2,64z"/>
				</g>
			</g>
			<g>
				<g>
					<path fill="#EBEBEB" d="M87.8,29.9c0,10-8.1,18-18,18c-10,0-18-8.1-18-18c0-10,8.1-18,18-18C79.8,11.9,87.8,20,87.8,29.9z"/>
					<path fill="#CCCCCC" d="M69.8,49.9c-11,0-19.9-8.9-19.9-19.9c0-11,8.9-19.9,19.9-19.9c11,0,19.9,8.9,19.9,19.9
						C89.8,40.9,80.8,49.9,69.8,49.9L69.8,49.9z M69.8,13.8c-8.9,0-16.1,7.2-16.1,16.1c0,8.9,7.2,16.1,16.1,16.1
						c8.9,0,16.1-7.2,16.1-16.1C85.9,21.1,78.7,13.8,69.8,13.8L69.8,13.8z"/>
				</g>
				<g>
					<path fill="#CCCCCC" d="M80.5,32.4c-1,1.2-10.6,10-10.7,10.2l0,0l0,0c-0.1-0.1-9.6-8.8-10.5-9.9h7c0.1,0,0.3-0.1,0.3-0.2
						l0.5-0.9l0.4,1.8c0,0.2,0.2,0.3,0.4,0.3c0.2,0,0.3-0.1,0.4-0.3l0.9-4.4l0.9,8c0,0.2,0.2,0.3,0.4,0.4c0,0,0,0,0,0
						c0.2,0,0.3-0.1,0.4-0.3l0.9-4.1h0.6l0.6,0.9c0.1,0.1,0.2,0.2,0.4,0.2c0.2,0,0.3-0.1,0.3-0.3l0.8-2.5l0.3,1
						c0.1,0.2,0.2,0.3,0.4,0.3L80.5,32.4z M82,26.2c-0.7-3.3-3.7-5.2-6.2-5.2c-2.9,0-4.8,1.7-5.9,3.7c-1.2-2-3.1-3.7-5.9-3.7
						c-2.5,0-5.5,1.9-6.2,5.2c-0.1,0.5-0.2,1-0.2,1.5c0,0.2,0,0.3,0,0.5c0.1,1.5,0.6,2.7,1.2,3.7h7.3l0.9-1.5
						c0.1-0.1,0.2-0.2,0.4-0.2c0.2,0,0.3,0.1,0.3,0.3l0.2,1l1.1-5.2c0-0.2,0.2-0.3,0.4-0.3c0.2,0,0.4,0.2,0.4,0.4l0.9,8.1l0.5-2.1
						c0-0.2,0.2-0.3,0.4-0.3h1.2c0.1,0,0.3,0.1,0.3,0.2l0.2,0.4l0.9-2.8c0.1-0.2,0.2-0.3,0.4-0.3c0.2,0,0.3,0.1,0.4,0.3l0.6,1.9
						l5.4,0l0,0c0.6-0.9,1-2.1,1.1-3.4c0-0.2,0-0.3,0-0.5C82.1,27.1,82.1,26.6,82,26.2z"/>
				</g>
			</g>
			<g>
				<g>
					<path fill="#EBEBEB" d="M87.8,93.8c0,10-8.1,18-18,18c-10,0-18-8.1-18-18c0-10,8.1-18,18-18C79.8,75.7,87.8,83.8,87.8,93.8z"/>
					<path fill="#CCCCCC" d="M69.8,113.7c-11,0-19.9-9-19.9-19.9c0-11,8.9-19.9,19.9-19.9c11,0,19.9,8.9,19.9,19.9
						C89.8,104.7,80.8,113.7,69.8,113.7L69.8,113.7z M69.8,77.6c-8.9,0-16.1,7.2-16.1,16.1c0,8.9,7.2,16.1,16.1,16.1
						c8.9,0,16.1-7.2,16.1-16.1C85.9,84.9,78.7,77.6,69.8,77.6L69.8,77.6z"/>
				</g>
				<g>
					<path fill="#CCCCCC" d="M79.6,101.8c0,1.5-1.2,2.7-2.7,2.7c-0.5,0-0.9-0.1-1.3-0.4l-8.2,8.2l-1.1-1.1l8.2-8.2
						c-0.2-0.4-0.3-0.8-0.3-1.2c0-1.5,1.2-2.7,2.7-2.7C78.4,99.1,79.6,100.3,79.6,101.8z M58.3,96.5c1.5,0,2.7-1.2,2.7-2.7
						c0-1.5-1.2-2.7-2.7-2.7c-1.5,0-2.7,1.2-2.7,2.7c0,0.4,0.1,0.8,0.2,1.1L52,98.7v1.8h1.6v-1.2l3.3-3.3
						C57.3,96.3,57.8,96.5,58.3,96.5z M76.9,91.4c-1.5,0-2.7,1.2-2.7,2.7c0,0.5,0.1,0.9,0.3,1.3l-5.9,5.9h-6.2l13.1-13.1
						c0.4,0.2,0.8,0.4,1.3,0.4c1.5,0,2.7-1.2,2.7-2.7c0-1.5-1.2-2.7-2.7-2.7c-1.5,0-2.7,1.2-2.7,2.7c0,0.4,0.1,0.9,0.3,1.2l-10,10
						v-8.1l2.9-2.9c0.4,0.2,0.9,0.4,1.4,0.4c1.5,0,2.7-1.2,2.7-2.7c0-1.5-1.2-2.7-2.7-2.7c-1.5,0-2.7,1.2-2.7,2.7
						c0,0.4,0.1,0.8,0.3,1.2L63,88.3v10.3l-7,7l1.1,1.1l3.8-3.8h8.4l6.3-6.3c0.4,0.2,0.8,0.3,1.3,0.3c1.5,0,2.7-1.2,2.7-2.7
						C79.6,92.6,78.4,91.4,76.9,91.4z"/>
				</g>
			</g>
		</g>
		<g>
			<path fill="#CCCCCC" d="M144.4,60.4l4.5-11.1l4.5,11.1c2,0,4-0.1,6-0.1l6.1-15.1h-3.1l-5.9,14.9l-6-14.9h-2.9l-6,14.9l-6-14.9
				h-3.1l6,15.1C140.2,60.4,142.3,60.4,144.4,60.4"/>
			<path fill="#CCCCCC" d="M198.5,57.7c-0.1-0.5-0.1-1-0.1-1.5c0-2.4,0.8-4.3,2.5-5.9c1.6-1.6,3.7-2.3,6.2-2.3
				c2.4,0,4.9,0.7,7.4,2.2v-3.3c-2.8-1.2-5.3-1.8-7.6-1.8c-3.3,0-6.1,1.1-8.3,3.2c-2.2,2.1-3.4,4.8-3.4,7.9c0,0.6,0.1,1.2,0.2,1.8
				C196.4,57.9,197.4,57.8,198.5,57.7"/>
			<path fill="#CCCCCC" d="M321.5,51v-5.7h-2.9v4.9C319.9,50.5,320.9,50.8,321.5,51"/>
			<path fill="#CCCCCC" d="M172.8,59.7V45.2h-3.1v14.7C170.8,59.8,171.8,59.8,172.8,59.7"/>
			<path fill="#CCCCCC" d="M182.6,56.4l2.4,1.4c0.5,0.3,0.9,0.6,1.3,1c1.3-0.1,2.5-0.2,3.8-0.3c-0.6-1.2-1.7-2.3-3.3-3.2l-2.4-1.4
				c-1.1-0.6-1.8-1.2-2.3-1.8c-0.5-0.6-0.7-1.2-0.7-1.8c0-0.7,0.3-1.3,1-1.8c0.6-0.5,1.5-0.7,2.5-0.7c1.8,0,3.5,0.7,5,2.3v-3.5
				c-1.5-1-3.2-1.5-5-1.5c-1.9,0-3.4,0.5-4.6,1.6c-1.2,1.1-1.8,2.4-1.8,4.2c0,1.1,0.3,2.1,0.9,3C180,54.6,181.1,55.5,182.6,56.4"/>
			<path fill="#CCCCCC" d="M222.7,55c0.2-1.9,1-3.5,2.3-4.8c1.6-1.5,3.6-2.3,6.1-2.3c2.4,0,4.3,0.8,6,2.3c0.9,0.8,1.5,1.8,1.9,2.9
				c1.1-0.1,2.2-0.3,3.2-0.4c-0.5-1.7-1.5-3.3-2.9-4.6c-2.2-2.1-5-3.2-8.4-3.2c-3.3,0-6.1,1.1-8.3,3.2c-2,2-3.1,4.4-3.2,7.3
				C220.5,55.3,221.6,55.2,222.7,55"/>
			<path fill="#CCCCCC" d="M294.6,47.9v-2.6h-3.1v2.7C292.6,47.9,293.6,47.9,294.6,47.9"/>
			<path fill="#CCCCCC" d="M268.5,49.6v-4.4h-2.9v4.7C266.6,49.8,267.5,49.7,268.5,49.6"/>
			<path fill="#CCCCCC" d="M306.6,48.3l-2.7-3.1h-2.5V48C303.3,48.1,305,48.2,306.6,48.3"/>
			<path fill="#CCCCCC" d="M277.4,48.8c0.1-0.1,0.2-0.2,0.4-0.3c0.6-0.5,1.5-0.7,2.5-0.7c0.9,0,1.8,0.2,2.7,0.6
				c0.8-0.1,1.6-0.1,2.4-0.2v-1.7c-1.5-1-3.2-1.5-5-1.5c-1.9,0-3.4,0.5-4.6,1.6c-0.8,0.7-1.3,1.5-1.5,2.5
				C275.3,49,276.4,48.9,277.4,48.8"/>
			<path opacity="0.8" fill="#CCCCCC" d="M285.3,49.4c-0.2,0-0.4,0-0.6,0c0.2,0.2,0.4,0.3,0.6,0.5V49.4z"/>
			<path fill="#CCCCCC" d="M251.4,51.6v-1.4l1.1,1.2c1.2-0.1,2.4-0.3,3.6-0.4l-5-5.8h-2.5v6.7C249.5,51.8,250.4,51.7,251.4,51.6"/>
			<path fill="#CCCCCC" d="M282.2,55.2l-2.4-1.4c-1.1-0.6-1.8-1.2-2.3-1.8c-0.5-0.6-0.7-1.2-0.7-1.8l0-0.3c-0.9,0.1-1.9,0.1-2.8,0.2
				c0,0.2-0.1,0.3-0.1,0.5c0,1.1,0.3,2.1,0.9,3c0.6,0.9,1.7,1.8,3.2,2.7l2.4,1.4c1.9,1.2,2.8,2.4,2.8,3.7c0,0.8-0.3,1.5-1,2
				c-0.6,0.5-1.5,0.8-2.4,0.8c-2.2,0-4.1-1.1-5.8-3.2v3.9c1.8,1.3,3.7,2,5.8,2c1.9,0,3.4-0.5,4.5-1.6c1.2-1.1,1.7-2.5,1.7-4.2
				C286.2,58.8,284.9,56.8,282.2,55.2"/>
			<path fill="#CCCCCC" d="M265.6,50.9V62l-8.9-10.2c-1.2,0.1-2.4,0.3-3.6,0.4l12.7,14.7h2.7V50.6C267.6,50.7,266.6,50.8,265.6,50.9
				"/>
			<path fill="#CCCCCC" d="M318.5,51.9V62L308.1,50c-2-0.2-4.2-0.4-6.6-0.5v17.4h2.9V50.2l14.5,16.7h2.7V53
				C320.9,52.7,320,52.3,318.5,51.9"/>
			<path fill="#CCCCCC" d="M292.8,49.3c-0.4,0-0.8,0-1.3,0v17.6h3.1V49.3C294,49.3,293.4,49.3,292.8,49.3"/>
			<path fill="#CCCCCC" d="M248.5,52.7v14.1h2.9V52.4C250.4,52.5,249.4,52.6,248.5,52.7"/>
			<path fill="#CCCCCC" d="M200.8,62c-0.9-0.9-1.6-1.9-1.9-3c-1.1,0.1-2.1,0.3-3.2,0.4c0.2,0.8,0.6,1.5,1,2.3c1,1.7,2.3,3,4,4
				c1.7,1,3.7,1.5,6.2,1.5c3,0,5.6-0.6,7.9-1.9v-3.4c-2.5,1.6-5.1,2.4-7.7,2.4C204.4,64.3,202.4,63.5,200.8,62"/>
			<path fill="#CCCCCC" d="M154.7,63.8L156,67h0.7l1.4-3.4C156.9,63.6,155.8,63.7,154.7,63.8"/>
			<path fill="#CCCCCC" d="M239.2,53.9c0.2,0.7,0.3,1.4,0.3,2.1c0,2.4-0.8,4.3-2.4,5.9c-1.6,1.6-3.6,2.4-6,2.4c-2.4,0-4.4-0.8-6-2.3
				c-1.6-1.5-2.4-3.5-2.4-5.8l0-0.2c-1.1,0.1-2.1,0.3-3.2,0.4c0,3.1,1.1,5.6,3.2,7.6c2.2,2.1,4.9,3.1,8.2,3.1c3.4,0,6.2-1,8.5-3.1
				c2.2-2.1,3.4-4.7,3.4-7.9c0-0.9-0.1-1.8-0.3-2.6C241.3,53.6,240.3,53.7,239.2,53.9"/>
			<path fill="#CCCCCC" d="M169.7,62.4v4.5h3.1v-4.8C171.8,62.2,170.8,62.3,169.7,62.4"/>
			<path fill="#CCCCCC" d="M187.5,60.4c0.2,0.4,0.3,0.8,0.3,1.2c0,0.8-0.3,1.5-1,2c-0.6,0.5-1.5,0.8-2.4,0.8c-2.1,0-4-1-5.6-3
				l-0.2,0v3.7c1.8,1.3,3.7,2,5.8,2c1.9,0,3.4-0.5,4.5-1.6c1.2-1.1,1.7-2.5,1.7-4.2c0-0.4-0.1-0.8-0.1-1.3
				C189.5,60.1,188.5,60.3,187.5,60.4"/>
			<path fill="#CCCCCC" d="M141.4,64.4c-0.5,0-1,0-1.4,0l1,2.6h0.7l1.1-2.6C142.3,64.4,141.9,64.4,141.4,64.4"/>
			<path fill="#CCCCCC" d="M292.8,49.3c-35.6,0-119.5,15.1-151.3,15.1c-5.5,0-8.4-0.2-9.1-0.2v0.7c0,0,2.8,0.2,9.3,0.2
				c31.8,0,115.5-15.1,151.2-15.1c23.2,0,29.2,4,29.2,4v-0.8C321.5,52.9,315,49.3,292.8,49.3"/>
		</g>
		<g>
			<g>
				<g>
					<path fill="#CCCCCC" d="M141,28.2h1.6v6.5c0,0.9-0.1,1.5-0.2,2c-0.1,0.4-0.3,0.8-0.5,1.1c-0.2,0.3-0.4,0.6-0.7,0.8
						c-0.9,0.8-2.1,1.2-3.5,1.2c-1.5,0-2.7-0.4-3.6-1.2c-0.3-0.2-0.5-0.5-0.7-0.8c-0.2-0.3-0.3-0.7-0.5-1.1c-0.1-0.4-0.2-1.1-0.2-2
						v-6.4h1.6v6.5c0,1.1,0.1,1.8,0.4,2.2c0.2,0.4,0.6,0.8,1.1,1c0.5,0.3,1.1,0.4,1.8,0.4c1,0,1.8-0.3,2.4-0.8
						c0.3-0.3,0.6-0.6,0.7-1c0.1-0.4,0.2-1,0.2-1.9V28.2z"/>
					<path fill="#CCCCCC" d="M155.7,28.2h1.5v11.4h-1.4l-7.6-8.8v8.8h-1.5V28.2h1.3l7.7,8.8V28.2z"/>
					<path fill="#CCCCCC" d="M161.4,28.2h1.6v11.4h-1.6V28.2z"/>
					<path fill="#CCCCCC" d="M174.5,28.2h1.6l-4.8,11.4H171l-4.9-11.4h1.6l3.4,8L174.5,28.2z"/>
					<path fill="#CCCCCC" d="M179.1,28.2h6.4v1.4h-4.8v3.5h4.7v1.5h-4.7v3.5h5v1.4h-6.6V28.2z"/>
					<path fill="#CCCCCC" d="M189.3,39.5V28.2h2.8c1.2,0,2.1,0.3,2.7,0.9c0.7,0.6,1,1.3,1,2.3c0,0.7-0.2,1.2-0.5,1.7
						c-0.3,0.5-0.8,0.8-1.4,1.1c0.4,0.2,0.7,0.6,1.1,1c0.3,0.4,0.8,1.1,1.5,2.2c0.4,0.6,0.7,1.1,1,1.5l0.6,0.8h-1.9l-0.5-0.7
						c0,0,0-0.1-0.1-0.1l-0.3-0.4l-0.5-0.8l-0.5-0.9c-0.3-0.5-0.6-0.8-0.9-1.1c-0.3-0.3-0.5-0.5-0.8-0.6c-0.2-0.1-0.6-0.2-1.1-0.2
						h-0.4v4.9H189.3z M191.4,29.6h-0.5v3.6h0.6c0.8,0,1.4-0.1,1.7-0.2c0.3-0.1,0.5-0.4,0.7-0.6c0.2-0.3,0.3-0.6,0.3-1
						c0-0.4-0.1-0.7-0.3-1c-0.2-0.3-0.5-0.5-0.8-0.6C192.7,29.6,192.2,29.6,191.4,29.6z"/>
					<path fill="#CCCCCC" d="M203.8,34.8l-1.2-0.8c-0.8-0.5-1.3-0.9-1.7-1.4c-0.3-0.5-0.5-1-0.5-1.6c0-0.9,0.3-1.6,0.9-2.2
						c0.6-0.6,1.4-0.8,2.4-0.8c0.9,0,1.8,0.3,2.6,0.8v1.8c-0.8-0.8-1.7-1.2-2.6-1.2c-0.5,0-1,0.1-1.3,0.4c-0.3,0.2-0.5,0.6-0.5,0.9
						c0,0.3,0.1,0.7,0.4,1c0.3,0.3,0.7,0.6,1.2,0.9l1.2,0.7c1.4,0.8,2.1,1.9,2.1,3.2c0,0.9-0.3,1.7-0.9,2.2
						c-0.6,0.6-1.4,0.9-2.4,0.9c-1.1,0-2.1-0.3-3.1-1v-2.1c0.9,1.1,1.9,1.7,3.1,1.7c0.5,0,0.9-0.1,1.3-0.4c0.3-0.3,0.5-0.6,0.5-1.1
						C205.3,36.1,204.8,35.4,203.8,34.8z"/>
					<path fill="#CCCCCC" d="M210.4,28.2h1.6v11.4h-1.6V28.2z"/>
					<path fill="#CCCCCC" d="M215.4,28.2h9.5v1.4h-4v9.9h-1.6v-9.9h-3.9V28.2z"/>
					<path fill="#CCCCCC" d="M235,28.2h2l-4.2,5.4v6h-1.7v-6l-4.2-5.4h2l3,3.9L235,28.2z"/>
					<path fill="#CCCCCC" d="M251.9,28c1.8,0,3.2,0.6,4.4,1.7c1.2,1.1,1.8,2.5,1.8,4.2c0,1.7-0.6,3.1-1.8,4.2
						c-1.2,1.1-2.7,1.6-4.5,1.6c-1.7,0-3.1-0.5-4.3-1.6c-1.1-1.1-1.7-2.5-1.7-4.1c0-1.7,0.6-3.1,1.7-4.2
						C248.7,28.6,250.2,28,251.9,28z M252,29.6c-1.3,0-2.4,0.4-3.2,1.2c-0.8,0.8-1.3,1.9-1.3,3.1c0,1.2,0.4,2.2,1.3,3.1
						c0.8,0.8,1.9,1.2,3.2,1.2c1.3,0,2.3-0.4,3.2-1.2c0.8-0.8,1.3-1.9,1.3-3.1c0-1.2-0.4-2.2-1.3-3C254.3,30,253.2,29.6,252,29.6z"
						/>
					<path fill="#CCCCCC" d="M261.8,28.2h6.1v1.4h-4.4v3.2h4.4v1.4h-4.4v5.3h-1.6V28.2z"/>
				</g>
			</g>
		</g>
		<g>
			<path fill="#CCCCCC" d="M133.4,74.2h0.9v3.6h4.4v-3.6h0.9v8.5h-0.9v-4.1h-4.4v4.1h-0.9V74.2z"/>
			<path fill="#CCCCCC" d="M141.7,74.2h5V75h-4.1v2.7h4.1v0.8h-4.1v3.3h4.1v0.8h-5V74.2z"/>
			<path fill="#CCCCCC" d="M151.8,74.2l4.1,8.5h-0.9l-1.4-2.8h-3.8l-1.4,2.8h-1l4.1-8.5H151.8z M151.7,76l-1.5,3.1h3L151.7,76z"/>
			<path fill="#CCCCCC" d="M157.2,74.2h0.9v7.6h3.4v0.8h-4.2V74.2z"/>
			<path fill="#CCCCCC" d="M162,75v-0.8h4.8V75h-1.9v7.6h-0.9V75H162z"/>
			<path fill="#CCCCCC" d="M168,74.2h0.9v3.6h4.4v-3.6h0.9v8.5h-0.9v-4.1h-4.4v4.1H168V74.2z"/>
			<path fill="#CCCCCC" d="M179.5,74.2h0.9v8.5h-0.9V74.2z"/>
			<path fill="#CCCCCC" d="M182.4,82.6v-8.5h0.2l5.8,6.5v-6.5h0.9v8.5h-0.2l-5.8-6.4v6.4H182.4z"/>
			<path fill="#CCCCCC" d="M191.4,74.2h4.4V75h-3.5v2.7h3.5v0.8h-3.5v4.2h-0.9V74.2z"/>
			<path fill="#CCCCCC" d="M201.4,74c1.3,0,2.4,0.4,3.3,1.3c0.9,0.9,1.3,1.9,1.3,3.2c0,1.2-0.4,2.3-1.3,3.2c-0.9,0.9-2,1.3-3.2,1.3
				c-1.3,0-2.4-0.4-3.3-1.3c-0.9-0.9-1.3-1.9-1.3-3.1c0-0.8,0.2-1.6,0.6-2.3c0.4-0.7,1-1.2,1.7-1.6C199.8,74.1,200.6,74,201.4,74z
				 M201.5,74.8c-0.6,0-1.3,0.2-1.8,0.5c-0.6,0.3-1,0.8-1.4,1.3c-0.3,0.6-0.5,1.2-0.5,1.8c0,1,0.4,1.9,1.1,2.5c0.7,0.7,1.6,1,2.6,1
				c0.7,0,1.3-0.2,1.9-0.5c0.6-0.3,1-0.8,1.3-1.3c0.3-0.6,0.5-1.2,0.5-1.8c0-0.7-0.2-1.3-0.5-1.8c-0.3-0.5-0.8-1-1.4-1.3
				C202.7,74.9,202.1,74.8,201.5,74.8z"/>
			<path fill="#CCCCCC" d="M207.9,74.2h1.7c1,0,1.6,0,2,0.1c0.5,0.1,0.9,0.4,1.3,0.7c0.3,0.4,0.5,0.8,0.5,1.4c0,0.5-0.1,0.9-0.3,1.2
				c-0.2,0.3-0.5,0.6-1,0.8c-0.4,0.2-1,0.3-1.7,0.3l3.1,3.9h-1.1l-3.1-3.9h-0.5v3.9h-0.9V74.2z M208.7,75v2.9l1.5,0
				c0.6,0,1-0.1,1.3-0.2c0.3-0.1,0.5-0.3,0.7-0.5c0.2-0.2,0.2-0.5,0.2-0.8c0-0.3-0.1-0.5-0.2-0.8c-0.2-0.2-0.4-0.4-0.6-0.5
				c-0.3-0.1-0.7-0.1-1.3-0.1H208.7z"/>
			<path fill="#CCCCCC" d="M214.8,82.6l1.2-8.5h0.1l3.5,6.9l3.5-6.9h0.1l1.3,8.5h-0.9l-0.9-6.1l-3.1,6.1h-0.2l-3.1-6.1l-0.9,6.1
				H214.8z"/>
			<path fill="#CCCCCC" d="M229.9,74.2l4.1,8.5H233l-1.4-2.8h-3.8l-1.4,2.8h-1l4.1-8.5H229.9z M229.8,76l-1.5,3.1h3L229.8,76z"/>
			<path fill="#CCCCCC" d="M234.5,75v-0.8h4.8V75h-1.9v7.6h-0.9V75H234.5z"/>
			<path fill="#CCCCCC" d="M240.4,74.2h0.9v8.5h-0.9V74.2z"/>
			<path fill="#CCCCCC" d="M247.4,74c1.3,0,2.4,0.4,3.3,1.3c0.9,0.9,1.3,1.9,1.3,3.2c0,1.2-0.4,2.3-1.3,3.2c-0.9,0.9-2,1.3-3.2,1.3
				c-1.3,0-2.4-0.4-3.3-1.3c-0.9-0.9-1.3-1.9-1.3-3.1c0-0.8,0.2-1.6,0.6-2.3c0.4-0.7,1-1.2,1.7-1.6C245.8,74.1,246.6,74,247.4,74z
				 M247.4,74.8c-0.6,0-1.3,0.2-1.8,0.5c-0.6,0.3-1,0.8-1.4,1.3c-0.3,0.6-0.5,1.2-0.5,1.8c0,1,0.4,1.9,1.1,2.5c0.7,0.7,1.6,1,2.6,1
				c0.7,0,1.3-0.2,1.9-0.5c0.6-0.3,1-0.8,1.3-1.3c0.3-0.6,0.5-1.2,0.5-1.8c0-0.7-0.2-1.3-0.5-1.8c-0.3-0.5-0.8-1-1.4-1.3
				C248.7,74.9,248.1,74.8,247.4,74.8z"/>
			<path fill="#CCCCCC" d="M253.8,82.6v-8.5h0.2l5.8,6.5v-6.5h0.9v8.5h-0.2l-5.8-6.4v6.4H253.8z"/>
			<path fill="#CCCCCC" d="M133,94.1l1.2-8.5h0.1l3.5,6.9l3.5-6.9h0.1l1.3,8.5H142l-0.9-6.1l-3.1,6.1h-0.2l-3.1-6.1l-0.9,6.1H133z"
				/>
			<path fill="#CCCCCC" d="M148.1,85.6l4.1,8.5h-0.9l-1.4-2.8h-3.8l-1.4,2.8h-1l4.1-8.5H148.1z M148,87.4l-1.5,3.1h3L148,87.4z"/>
			<path fill="#CCCCCC" d="M153.6,94.1v-8.5h0.2l5.8,6.5v-6.5h0.9v8.5h-0.2l-5.8-6.4v6.4H153.6z"/>
			<path fill="#CCCCCC" d="M166.1,85.6l4.1,8.5h-0.9l-1.4-2.8h-3.8l-1.4,2.8h-1l4.1-8.5H166.1z M166,87.4l-1.5,3.1h3L166,87.4z"/>
			<path fill="#CCCCCC" d="M179.9,87.1l-0.7,0.6c-0.5-0.5-1-0.8-1.6-1.1c-0.6-0.2-1.1-0.4-1.7-0.4c-0.7,0-1.3,0.2-2,0.5
				c-0.6,0.3-1.1,0.8-1.4,1.3c-0.3,0.6-0.5,1.1-0.5,1.8c0,0.6,0.2,1.2,0.5,1.8c0.4,0.6,0.8,1,1.5,1.4c0.6,0.3,1.3,0.5,2,0.5
				c0.9,0,1.7-0.2,2.3-0.7c0.6-0.5,1-1.1,1.1-1.9h-2.8V90h3.8c0,1.3-0.4,2.3-1.2,3.1c-0.8,0.8-1.9,1.2-3.2,1.2
				c-1.6,0-2.9-0.5-3.8-1.6c-0.7-0.8-1.1-1.8-1.1-2.8c0-0.8,0.2-1.5,0.6-2.2c0.4-0.7,1-1.2,1.7-1.6c0.7-0.4,1.5-0.6,2.5-0.6
				c0.7,0,1.4,0.1,2.1,0.4C178.7,86.1,179.3,86.5,179.9,87.1z"/>
			<path fill="#CCCCCC" d="M182.1,85.6h5v0.8H183v2.7h4.1v0.8H183v3.3h4.1v0.8h-5V85.6z"/>
			<path fill="#CCCCCC" d="M188.2,94.1l1.2-8.5h0.1l3.5,6.9l3.5-6.9h0.1l1.3,8.5h-0.9l-0.9-6.1l-3.1,6.1h-0.2l-3.1-6.1l-0.9,6.1
				H188.2z"/>
			<path fill="#CCCCCC" d="M199.8,85.6h5v0.8h-4.1v2.7h4.1v0.8h-4.1v3.3h4.1v0.8h-5V85.6z"/>
			<path fill="#CCCCCC" d="M206.3,94.1v-8.5h0.2l5.8,6.5v-6.5h0.9v8.5H213l-5.8-6.4v6.4H206.3z"/>
			<path fill="#CCCCCC" d="M214.4,86.5v-0.8h4.8v0.8h-1.9v7.6h-0.9v-7.6H214.4z"/>
			<path fill="#CCCCCC" d="M230.4,91l0.6,0.6c-0.4,0.3-0.7,0.6-1.1,0.8c0.2,0.2,0.5,0.5,0.9,0.9c0.3,0.3,0.6,0.6,0.8,0.8h-1.2
				l-1.2-1.2c-0.7,0.6-1.3,0.9-1.8,1.1c-0.5,0.2-0.9,0.3-1.4,0.3c-0.7,0-1.2-0.2-1.6-0.6c-0.4-0.4-0.6-0.8-0.6-1.4
				c0-0.4,0.1-0.8,0.4-1.3c0.3-0.4,0.8-1,1.7-1.6c-0.5-0.6-0.8-1-0.9-1.2c-0.1-0.3-0.2-0.5-0.2-0.8c0-0.4,0.2-0.8,0.5-1
				c0.4-0.3,0.9-0.5,1.4-0.5c0.4,0,0.7,0.1,1,0.2c0.3,0.1,0.5,0.3,0.7,0.6c0.2,0.2,0.2,0.5,0.2,0.8c0,0.3-0.1,0.6-0.3,0.9
				c-0.2,0.3-0.6,0.7-1.2,1.2l1.3,1.3l0.9,0.9C229.8,91.5,230.1,91.2,230.4,91z M226.5,90.1c-0.7,0.5-1.2,1-1.5,1.3
				c-0.2,0.3-0.3,0.6-0.3,0.9c0,0.3,0.1,0.6,0.4,0.9c0.3,0.2,0.6,0.4,1,0.4c0.3,0,0.6-0.1,0.9-0.2c0.5-0.2,1-0.5,1.6-1l-1.4-1.4
				C227,90.7,226.8,90.4,226.5,90.1z M226.6,89c0.4-0.3,0.7-0.6,1-0.9c0.2-0.2,0.2-0.4,0.2-0.6c0-0.2-0.1-0.4-0.3-0.5
				c-0.2-0.1-0.5-0.2-0.8-0.2c-0.3,0-0.6,0.1-0.8,0.2c-0.2,0.1-0.3,0.3-0.3,0.5c0,0.2,0,0.3,0.1,0.4C226,88.2,226.2,88.6,226.6,89z"
				/>
			<path fill="#CCCCCC" d="M235.5,86.5v-0.8h4.8v0.8h-1.9v7.6h-0.9v-7.6H235.5z"/>
			<path fill="#CCCCCC" d="M241.5,85.6h5v0.8h-4.1v2.7h4.1v0.8h-4.1v3.3h4.1v0.8h-5V85.6z"/>
			<path fill="#CCCCCC" d="M256.2,87.2l-0.7,0.5c-0.4-0.5-0.8-0.8-1.4-1.1c-0.5-0.2-1.1-0.4-1.8-0.4c-0.7,0-1.3,0.2-1.9,0.5
				c-0.6,0.3-1.1,0.8-1.4,1.3c-0.3,0.5-0.5,1.2-0.5,1.8c0,1,0.4,1.9,1.1,2.6c0.7,0.7,1.6,1,2.8,1c1.2,0,2.2-0.5,3.1-1.4l0.7,0.5
				c-0.4,0.5-1,1-1.6,1.2c-0.6,0.3-1.4,0.4-2.2,0.4c-1.5,0-2.7-0.5-3.6-1.5c-0.7-0.8-1.1-1.8-1.1-3c0-1.2,0.4-2.3,1.3-3.1
				c0.9-0.8,2-1.3,3.4-1.3c0.8,0,1.5,0.2,2.2,0.5C255.2,86.2,255.8,86.6,256.2,87.2z"/>
			<path fill="#CCCCCC" d="M257.9,85.6h0.9v3.6h4.4v-3.6h0.9v8.5h-0.9V90h-4.4v4.1h-0.9V85.6z"/>
			<path fill="#CCCCCC" d="M266.2,94.1v-8.5h0.2l5.8,6.5v-6.5h0.9v8.5h-0.2l-5.8-6.4v6.4H266.2z"/>
			<path fill="#CCCCCC" d="M279.4,85.4c1.3,0,2.4,0.4,3.3,1.3c0.9,0.9,1.3,1.9,1.3,3.2c0,1.2-0.4,2.3-1.3,3.2
				c-0.9,0.9-2,1.3-3.2,1.3c-1.3,0-2.4-0.4-3.3-1.3c-0.9-0.9-1.3-1.9-1.3-3.1c0-0.8,0.2-1.6,0.6-2.3c0.4-0.7,1-1.2,1.7-1.6
				C277.8,85.6,278.5,85.4,279.4,85.4z M279.4,86.2c-0.6,0-1.3,0.2-1.8,0.5c-0.6,0.3-1,0.8-1.4,1.3c-0.3,0.6-0.5,1.2-0.5,1.8
				c0,1,0.4,1.9,1.1,2.5c0.7,0.7,1.6,1,2.6,1c0.7,0,1.3-0.2,1.9-0.5c0.6-0.3,1-0.8,1.3-1.3c0.3-0.6,0.5-1.2,0.5-1.8
				c0-0.7-0.2-1.3-0.5-1.8c-0.3-0.5-0.8-1-1.4-1.3C280.7,86.4,280,86.2,279.4,86.2z"/>
			<path fill="#CCCCCC" d="M285.8,85.6h0.9v7.6h3.4v0.8h-4.2V85.6z"/>
			<path fill="#CCCCCC" d="M295.5,85.4c1.3,0,2.4,0.4,3.3,1.3c0.9,0.9,1.3,1.9,1.3,3.2c0,1.2-0.4,2.3-1.3,3.2
				c-0.9,0.9-2,1.3-3.2,1.3c-1.3,0-2.4-0.4-3.3-1.3c-0.9-0.9-1.3-1.9-1.3-3.1c0-0.8,0.2-1.6,0.6-2.3c0.4-0.7,1-1.2,1.7-1.6
				C293.9,85.6,294.7,85.4,295.5,85.4z M295.6,86.2c-0.6,0-1.3,0.2-1.8,0.5c-0.6,0.3-1,0.8-1.4,1.3c-0.3,0.6-0.5,1.2-0.5,1.8
				c0,1,0.4,1.9,1.1,2.5c0.7,0.7,1.6,1,2.6,1c0.7,0,1.3-0.2,1.9-0.5c0.6-0.3,1-0.8,1.3-1.3c0.3-0.6,0.5-1.2,0.5-1.8
				c0-0.7-0.2-1.3-0.5-1.8c-0.3-0.5-0.8-1-1.4-1.3C296.8,86.4,296.2,86.2,295.6,86.2z"/>
			<path fill="#CCCCCC" d="M310.3,87.1l-0.7,0.6c-0.5-0.5-1-0.8-1.6-1.1c-0.6-0.2-1.1-0.4-1.7-0.4c-0.7,0-1.3,0.2-2,0.5
				c-0.6,0.3-1.1,0.8-1.4,1.3c-0.3,0.6-0.5,1.1-0.5,1.8c0,0.6,0.2,1.2,0.5,1.8c0.4,0.6,0.8,1,1.5,1.4c0.6,0.3,1.3,0.5,2,0.5
				c0.9,0,1.7-0.2,2.3-0.7c0.6-0.5,1-1.1,1.1-1.9h-2.8V90h3.8c0,1.3-0.4,2.3-1.2,3.1c-0.8,0.8-1.9,1.2-3.2,1.2
				c-1.6,0-2.9-0.5-3.8-1.6c-0.7-0.8-1.1-1.8-1.1-2.8c0-0.8,0.2-1.5,0.6-2.2c0.4-0.7,1-1.2,1.7-1.6c0.7-0.4,1.5-0.6,2.5-0.6
				c0.7,0,1.4,0.1,2.1,0.4C309.1,86.1,309.7,86.5,310.3,87.1z"/>
			<path fill="#CCCCCC" d="M311.8,85.6h1l2.2,3.5l2.2-3.5h1l-2.8,4.4v4h-0.9v-4L311.8,85.6z"/>
		</g>
	</g>
</g>
</svg>
