<?xml version="1.0" encoding="utf-8"?>
<!-- Generator: Adobe Illustrator 17.1.0, SVG Export Plug-In . SVG Version: 6.00 Build 0)  -->
<!DOCTYPE svg PUBLIC "-//W3C//DTD SVG 1.1//EN" "http://www.w3.org/Graphics/SVG/1.1/DTD/svg11.dtd">
<svg version="1.1" id="Layer_1" xmlns="http://www.w3.org/2000/svg" xmlns:xlink="http://www.w3.org/1999/xlink" x="0px" y="0px"
	 viewBox="0 0 250 59.8" enable-background="new 0 0 250 59.8" xml:space="preserve">
<g>
	<g>
		<path fill="#CCCCCC" d="M24.5,54.4C11,54.4,0,43.4,0,29.9C0,16.4,11,5.4,24.5,5.4C38,5.4,49,16.4,49,29.9
			C49,43.4,38,54.4,24.5,54.4z M24.5,7.4C12.1,7.4,2,17.5,2,29.9c0,12.4,10.1,22.5,22.5,22.5C36.9,52.4,47,42.3,47,29.9
			C47,17.5,36.9,7.4,24.5,7.4z"/>
	</g>
	<rect x="17.2" y="14.2" fill="#CCCCCC" width="4.9" height="4.9"/>
	<rect x="31.6" y="40.1" fill="#CCCCCC" width="4.9" height="4.9"/>
	<rect x="24.4" y="14.2" fill="#CCCCCC" width="4.9" height="30.5"/>
	<rect x="17.2" y="21.3" fill="#CCCCCC" width="4.9" height="23.3"/>
	<g>
		<g>
			<path fill="#CCCCCC" d="M72.7,19v3.8c0,0.5,0.1,0.9,0.2,1.1c0.4,0.7,1,0.8,1.3,0.8c0.3,0,0.9-0.1,1.3-0.8
				c0.1-0.3,0.2-0.7,0.2-1.1V19h0.6v3.8c0,0.5-0.1,1-0.2,1.3c-0.4,0.9-1.3,1.2-1.9,1.2c-0.6,0-1.4-0.2-1.9-1.2
				c-0.2-0.3-0.2-0.8-0.2-1.3V19H72.7z"/>
			<path fill="#CCCCCC" d="M77.6,19h0.8l3.4,5.1h0V19h0.6v6.2h-0.6l-3.7-5.4h0v5.4h-0.6V19z"/>
			<path fill="#CCCCCC" d="M83.8,19h0.6v6.2h-0.6V19z"/>
			<path fill="#CCCCCC" d="M85.1,19h0.7l2.2,5.4l2.2-5.4h0.7l-2.6,6.2h-0.6L85.1,19z"/>
			<path fill="#CCCCCC" d="M91.5,19h3.4v0.6h-2.8v2.2h2.7v0.6h-2.7v2.3h2.8v0.6h-3.4V19z"/>
			<path fill="#CCCCCC" d="M96,19h1.6c0.8,0,1.2,0.1,1.5,0.2c0.7,0.3,1.1,1,1.1,1.8c0,0.9-0.6,1.8-1.8,1.9l1.7,2.3h-0.8l-2.1-2.8
				c0.8,0,1.1,0,1.3-0.1c0.7-0.2,1-0.8,1-1.3c0-0.5-0.3-1-0.7-1.2c-0.4-0.2-0.7-0.2-1.2-0.2h-1.1v5.6H96V19z"/>
			<path fill="#CCCCCC" d="M101.4,23.4c0,0.8,0.5,1.3,1.3,1.3c0.7,0,1.2-0.5,1.2-1.2c0-1-1-1.2-1.4-1.3c-0.6-0.2-1.6-0.4-1.6-1.6
				c0-1,0.8-1.7,1.7-1.7c1,0,1.7,0.8,1.7,1.7h-0.6c0-0.6-0.5-1.1-1.1-1.1c-0.7,0-1.1,0.5-1.1,1.1c0,0.8,0.7,0.9,1.5,1.2
				c1.5,0.4,1.5,1.6,1.5,1.8c0,1-0.8,1.8-1.9,1.8c-0.8,0-1.9-0.5-1.9-1.8H101.4z"/>
			<path fill="#CCCCCC" d="M105.4,19h0.6v6.2h-0.6V19z"/>
			<path fill="#CCCCCC" d="M108.1,19.5h-1.4V19h3.4v0.6h-1.4v5.6h-0.6V19.5z"/>
			<path fill="#CCCCCC" d="M112.4,23.1l-2.1-4.1h0.7l1.8,3.5l1.8-3.5h0.7l-2.2,4.1v2.1h-0.6V23.1z"/>
			<path fill="#CCCCCC" d="M121.2,18.9c1.7,0,3.3,1.4,3.3,3.2s-1.5,3.2-3.3,3.2c-1.8,0-3.3-1.4-3.3-3.2
				C117.9,20.2,119.5,18.9,121.2,18.9z M121.2,24.7c1.4,0,2.7-1.2,2.7-2.6c0-1.4-1.2-2.6-2.7-2.6c-1.4,0-2.6,1.1-2.6,2.7
				C118.5,23.5,119.7,24.7,121.2,24.7z"/>
			<path fill="#CCCCCC" d="M125.4,19h3.1v0.6H126v2.2h2.4v0.6H126v2.8h-0.6V19z"/>
			<path fill="#CCCCCC" d="M131.3,19h0.6l1.5,5.4h0L135,19h0.6l1.5,5.4h0l1.5-5.4h0.6l-1.8,6.2h-0.8l-1.4-5.1h0l-1.4,5.1h-0.8
				L131.3,19z"/>
			<path fill="#CCCCCC" d="M139.9,19h0.6v6.2h-0.6V19z"/>
			<path fill="#CCCCCC" d="M142,23.4c0,0.8,0.5,1.3,1.3,1.3c0.7,0,1.2-0.5,1.2-1.2c0-1-1-1.2-1.4-1.3c-0.6-0.2-1.6-0.4-1.6-1.6
				c0-1,0.8-1.7,1.7-1.7c1,0,1.7,0.8,1.7,1.7h-0.6c0-0.6-0.5-1.1-1.1-1.1c-0.7,0-1.1,0.5-1.1,1.1c0,0.8,0.7,0.9,1.5,1.2
				c1.5,0.4,1.5,1.6,1.5,1.8c0,1-0.8,1.8-1.9,1.8c-0.8,0-1.9-0.5-1.9-1.8H142z"/>
			<path fill="#CCCCCC" d="M151.8,23.5c-0.7,1.2-1.9,1.7-2.8,1.7c-1.7,0-3.2-1.4-3.2-3.2c0-1.8,1.5-3.2,3.2-3.2
				c1.6,0,2.6,1.1,2.8,1.7h-0.7c-0.7-1-1.8-1.1-2.1-1.1c-1.4,0-2.6,1.3-2.6,2.6c0,1.4,1.3,2.6,2.6,2.6c0.3,0,1.3,0,2.2-1.2H151.8z"
				/>
			<path fill="#CCCCCC" d="M155.8,18.9c1.7,0,3.3,1.4,3.3,3.2s-1.5,3.2-3.3,3.2c-1.8,0-3.3-1.4-3.3-3.2
				C152.6,20.2,154.2,18.9,155.8,18.9z M155.8,24.7c1.4,0,2.7-1.2,2.7-2.6c0-1.4-1.2-2.6-2.7-2.6c-1.4,0-2.6,1.1-2.6,2.7
				C153.2,23.5,154.4,24.7,155.8,24.7z"/>
			<path fill="#CCCCCC" d="M160.1,19h0.8l3.4,5.1h0V19h0.6v6.2h-0.6l-3.7-5.4h0v5.4h-0.6V19z"/>
			<path fill="#CCCCCC" d="M166.5,23.4c0,0.8,0.5,1.3,1.3,1.3c0.7,0,1.2-0.5,1.2-1.2c0-1-1-1.2-1.4-1.3c-0.6-0.2-1.6-0.4-1.6-1.6
				c0-1,0.8-1.7,1.7-1.7c1,0,1.7,0.8,1.7,1.7h-0.6c0-0.6-0.5-1.1-1.1-1.1c-0.7,0-1.1,0.5-1.1,1.1c0,0.8,0.7,0.9,1.5,1.2
				c1.5,0.4,1.5,1.6,1.5,1.8c0,1-0.8,1.8-1.9,1.8c-0.8,0-1.9-0.5-1.9-1.8H166.5z"/>
			<path fill="#CCCCCC" d="M170.5,19h0.6v6.2h-0.6V19z"/>
			<path fill="#CCCCCC" d="M172.4,19h0.8l3.4,5.1h0V19h0.6v6.2h-0.6l-3.7-5.4h0v5.4h-0.6V19z"/>
		</g>
		<g>
			<path fill="#CCCCCC" d="M71.9,42.3V30.7h2.3v11.6H71.9z"/>
			<path fill="#CCCCCC" d="M78.4,42.3h-2.2V30.7h2.1l4.8,7.4v-7.4h2.2v11.6h-2.1l-4.8-7.6V42.3z"/>
			<path fill="#CCCCCC" d="M91.3,42.3h-3.9V30.7h3.9c1,0,1.9,0.1,2.5,0.3c0.6,0.2,1.2,0.6,1.7,1.1c0.5,0.5,1,1.2,1.2,1.9
				c0.3,0.8,0.4,1.6,0.4,2.5c0,1-0.2,2-0.6,2.8c-0.4,0.8-1,1.5-1.7,2c-0.4,0.3-0.9,0.5-1.4,0.7C92.9,42.2,92.2,42.3,91.3,42.3z
				 M91.1,40.3c1.3,0,2.2-0.3,2.8-0.9c0.6-0.6,0.9-1.6,0.9-2.9c0-1.2-0.3-2.1-1-2.8c-0.6-0.7-1.6-1-2.7-1h-1.5v7.6H91.1z"/>
			<path fill="#CCCCCC" d="M104.8,42.3h-6.2V30.7h6.2v2h-4v2.6h4v2h-4v2.9h4V42.3z"/>
			<path fill="#CCCCCC" d="M109.1,42.3h-2.3V30.7h2.9c0.7,0,1.3,0,1.7,0.1c0.4,0.1,0.8,0.2,1,0.4c0.5,0.3,0.9,0.7,1.1,1.3
				c0.3,0.5,0.4,1.1,0.4,1.7c0,1.1-0.4,2-1.1,2.7c-0.7,0.7-1.7,1-3,1h-0.8V42.3z M109.1,35.9h0.6c0.6,0,1.1-0.1,1.5-0.4
				c0.3-0.3,0.5-0.7,0.5-1.2c0-0.5-0.2-0.9-0.5-1.2c-0.3-0.3-0.8-0.4-1.5-0.4h-0.6V35.9z"/>
			<path fill="#CCCCCC" d="M121.5,42.3h-6.2V30.7h6.2v2h-4v2.6h4v2h-4v2.9h4V42.3z"/>
			<path fill="#CCCCCC" d="M125.8,42.3h-2.2V30.7h2.1l4.8,7.4v-7.4h2.2v11.6h-2.1l-4.8-7.6V42.3z"/>
			<path fill="#CCCCCC" d="M138.7,42.3h-3.9V30.7h3.9c1,0,1.9,0.1,2.5,0.3c0.6,0.2,1.2,0.6,1.7,1.1c0.5,0.5,1,1.2,1.2,1.9
				c0.3,0.8,0.4,1.6,0.4,2.5c0,1-0.2,2-0.6,2.8c-0.4,0.8-1,1.5-1.7,2c-0.4,0.3-0.9,0.5-1.4,0.7C140.3,42.2,139.5,42.3,138.7,42.3z
				 M138.5,40.3c1.3,0,2.2-0.3,2.8-0.9c0.6-0.6,0.9-1.6,0.9-2.9c0-1.2-0.3-2.1-1-2.8c-0.6-0.7-1.6-1-2.7-1H137v7.6H138.5z"/>
			<path fill="#CCCCCC" d="M152.2,42.3H146V30.7h6.2v2h-4v2.6h4v2h-4v2.9h4V42.3z"/>
			<path fill="#CCCCCC" d="M156.4,42.3h-2.2V30.7h2.1l4.8,7.4v-7.4h2.2v11.6h-2.1l-4.8-7.6V42.3z"/>
			<path fill="#CCCCCC" d="M171.2,30.7v2H169v9.5h-2.3v-9.5h-2.2v-2H171.2z"/>
			<path fill="#CCCCCC" d="M183,42.3h-5.9V30.7h2.2v9.5h3.6V42.3z"/>
			<path fill="#CCCCCC" d="M190.7,42.3h-6.2V30.7h6.2v2h-4v2.6h4v2h-4v2.9h4V42.3z"/>
			<path fill="#CCCCCC" d="M194.3,39.9l-0.9,2.4h-2.3l4.5-11.6h2l4.4,11.6h-2.4l-0.9-2.4H194.3z M197.9,37.7l-1.4-3.7l-1.4,3.7
				H197.9z"/>
			<path fill="#CCCCCC" d="M204.8,42.3h-2.3V30.7h2.7c0.9,0,1.5,0,2,0.1c0.4,0.1,0.8,0.2,1.1,0.3c0.7,0.3,1.2,0.7,1.5,1.3
				c0.3,0.6,0.5,1.2,0.5,1.9c0,0.9-0.2,1.7-0.7,2.3c-0.5,0.6-1.2,1-2,1.2l2.9,4.5h-2.7l-3-5.4V42.3z M204.8,36.3h0.5
				c0.9,0,1.6-0.2,2.1-0.5c0.5-0.3,0.7-0.8,0.7-1.5c0-0.6-0.2-1.1-0.6-1.4c-0.4-0.3-1-0.4-1.9-0.4h-0.8V36.3z"/>
			<path fill="#CCCCCC" d="M214.1,42.3h-2.2V30.7h2.1l4.8,7.4v-7.4h2.2v11.6H219l-4.8-7.6V42.3z"/>
			<path fill="#CCCCCC" d="M223.1,42.3V30.7h2.3v11.6H223.1z"/>
			<path fill="#CCCCCC" d="M229.6,42.3h-2.2V30.7h2.1l4.8,7.4v-7.4h2.2v11.6h-2.1l-4.8-7.6V42.3z"/>
			<path fill="#CCCCCC" d="M250,36.1c0,0,0,0.1,0,0.2c0,0.1,0,0.2,0,0.2c0,0.5,0,1-0.1,1.4c-0.1,0.4-0.2,0.8-0.4,1.2
				c-0.5,1.1-1.3,1.9-2.2,2.5c-0.9,0.6-2,0.9-3.2,0.9c-0.9,0-1.7-0.2-2.4-0.5c-0.7-0.3-1.4-0.8-2-1.5c-0.5-0.6-0.9-1.2-1.1-1.9
				c-0.3-0.7-0.4-1.4-0.4-2.2c0-0.8,0.2-1.6,0.5-2.3c0.3-0.7,0.8-1.4,1.4-2c0.6-0.6,1.2-1,1.9-1.3c0.7-0.3,1.5-0.4,2.3-0.4
				c1.2,0,2.3,0.3,3.2,0.9c0.9,0.6,1.6,1.5,2.1,2.7h-2.7c-0.3-0.4-0.7-0.7-1.2-0.9c-0.5-0.2-1-0.3-1.5-0.3c-1,0-1.8,0.4-2.5,1.1
				c-0.7,0.7-1,1.6-1,2.6c0,1,0.3,1.9,1,2.6c0.7,0.7,1.6,1.1,2.6,1.1c0.7,0,1.3-0.2,1.9-0.6c0.6-0.4,1-0.9,1.3-1.5h-4.5v-1.9H250z"
				/>
		</g>
	</g>
</g>
</svg>
