<?xml version="1.0" encoding="utf-8"?>
<!-- Generator: Adobe Illustrator 17.1.0, SVG Export Plug-In . SVG Version: 6.00 Build 0)  -->
<!DOCTYPE svg PUBLIC "-//W3C//DTD SVG 1.1//EN" "http://www.w3.org/Graphics/SVG/1.1/DTD/svg11.dtd">
<svg version="1.1" id="Layer_1" xmlns="http://www.w3.org/2000/svg" xmlns:xlink="http://www.w3.org/1999/xlink" x="0px" y="0px"
	 viewBox="0 0 250 59.8" enable-background="new 0 0 250 59.8" xml:space="preserve">
<g>
	<g>
		<path fill="#CCCCCC" d="M82,34.9l4.3-10.5l4.2,10.5c1.9,0,3.8-0.1,5.7-0.1l5.7-14.3H99l-5.6,14.1l-5.7-14.1h-2.8l-5.7,14.1
			l-5.6-14.1h-3l5.7,14.3C78.1,34.8,80,34.9,82,34.9"/>
		<path fill="#CCCCCC" d="M133.2,32.3c-0.1-0.5-0.1-1-0.1-1.5c0-2.2,0.8-4.1,2.3-5.6c1.5-1.5,3.5-2.2,5.8-2.2c2.3,0,4.6,0.7,7,2.1
			V22c-2.6-1.1-5-1.7-7.2-1.7c-3.1,0-5.7,1-7.9,3.1c-2.1,2-3.2,4.5-3.2,7.5c0,0.6,0.1,1.2,0.2,1.7C131.2,32.5,132.2,32.4,133.2,32.3
			"/>
		<path fill="#CCCCCC" d="M249.5,26v-5.4h-2.8v4.6C248.1,25.5,249,25.8,249.5,26"/>
		<path fill="#CCCCCC" d="M108.9,34.2V20.5H106v13.9C107,34.3,107.9,34.3,108.9,34.2"/>
		<path fill="#CCCCCC" d="M118.1,31.1l2.2,1.3c0.5,0.3,0.9,0.6,1.2,0.9c1.2-0.1,2.4-0.2,3.5-0.3c-0.6-1.2-1.6-2.2-3.1-3l-2.2-1.3
			c-1-0.6-1.7-1.1-2.2-1.7c-0.5-0.5-0.7-1.1-0.7-1.7c0-0.7,0.3-1.3,0.9-1.7c0.6-0.4,1.4-0.7,2.4-0.7c1.7,0,3.3,0.7,4.8,2.1v-3.3
			c-1.4-1-3-1.4-4.7-1.4c-1.8,0-3.2,0.5-4.4,1.5c-1.1,1-1.7,2.3-1.7,3.9c0,1.1,0.3,2,0.9,2.8C115.7,29.4,116.7,30.2,118.1,31.1"/>
		<path fill="#CCCCCC" d="M156,29.8c0.2-1.8,0.9-3.3,2.2-4.6c1.5-1.5,3.4-2.2,5.8-2.2c2.2,0,4.1,0.7,5.6,2.2
			c0.8,0.8,1.4,1.7,1.8,2.7c1-0.1,2-0.2,3.1-0.4c-0.5-1.6-1.4-3.1-2.7-4.3c-2.1-2-4.7-3-7.9-3c-3.2,0-5.8,1-7.8,3
			c-1.9,1.9-2.9,4.2-3.1,6.9C154,30,155,29.9,156,29.8"/>
		<path fill="#CCCCCC" d="M224.1,23v-2.5h-2.9v2.5C222.2,23,223.1,23,224.1,23"/>
		<path fill="#CCCCCC" d="M199.4,24.7v-4.2h-2.8V25C197.6,24.9,198.5,24.8,199.4,24.7"/>
		<path fill="#CCCCCC" d="M235.5,23.5l-2.5-2.9h-2.4v2.6C232.3,23.2,233.9,23.3,235.5,23.5"/>
		<path fill="#CCCCCC" d="M207.8,23.9c0.1-0.1,0.2-0.2,0.4-0.3c0.6-0.4,1.4-0.7,2.4-0.7c0.9,0,1.7,0.2,2.5,0.6
			c0.8-0.1,1.5-0.1,2.2-0.1v-1.6c-1.4-1-3-1.4-4.7-1.4c-1.8,0-3.2,0.5-4.4,1.5c-0.7,0.7-1.2,1.5-1.5,2.4
			C205.8,24.1,206.8,24,207.8,23.9"/>
		<path fill="#CCCCCC" d="M215.3,24.5c-0.2,0-0.4,0-0.6,0c0.2,0.2,0.4,0.3,0.6,0.5V24.5z"/>
		<path fill="#CCCCCC" d="M183.2,26.5v-1.3l1,1.2c1.1-0.1,2.3-0.3,3.4-0.4l-4.8-5.5h-2.4v6.3C181.4,26.7,182.3,26.6,183.2,26.5"/>
		<path fill="#CCCCCC" d="M212.4,30l-2.2-1.3c-1-0.6-1.7-1.1-2.2-1.7c-0.5-0.5-0.7-1.1-0.7-1.7l0-0.3c-0.9,0.1-1.8,0.1-2.7,0.2
			c0,0.2,0,0.3,0,0.5c0,1.1,0.3,2,0.9,2.8c0.6,0.8,1.6,1.7,3,2.5l2.2,1.4c1.8,1.1,2.7,2.3,2.7,3.5c0,0.8-0.3,1.4-0.9,1.9
			c-0.6,0.5-1.4,0.8-2.3,0.8c-2.1,0-3.9-1-5.5-3v3.7c1.7,1.2,3.5,1.9,5.5,1.9c1.8,0,3.2-0.5,4.3-1.5c1.1-1,1.6-2.4,1.6-4
			C216.1,33.4,214.9,31.5,212.4,30"/>
		<path fill="#CCCCCC" d="M196.6,25.9v10.5l-8.4-9.7c-1.1,0.1-2.2,0.2-3.4,0.4l12,13.9h2.5V25.7C198.5,25.7,197.6,25.8,196.6,25.9"
			/>
		<path fill="#CCCCCC" d="M246.7,26.8v9.6L236.8,25c-1.8-0.2-3.9-0.4-6.3-0.5V41h2.8V25.2L247,41h2.5V27.9
			C249,27.6,248.1,27.2,246.7,26.8"/>
		<path fill="#CCCCCC" d="M222.4,24.4c-0.4,0-0.8,0-1.2,0V41h2.9V24.4C223.5,24.4,223,24.4,222.4,24.4"/>
		<path fill="#CCCCCC" d="M180.4,27.6V41h2.8V27.3C182.3,27.4,181.4,27.5,180.4,27.6"/>
		<path fill="#CCCCCC" d="M135.3,36.4c-0.9-0.8-1.5-1.8-1.8-2.8c-1,0.1-2,0.2-3,0.4c0.2,0.7,0.5,1.5,0.9,2.2
			c0.9,1.6,2.2,2.9,3.8,3.8c1.6,0.9,3.5,1.4,5.8,1.4c2.8,0,5.3-0.6,7.4-1.8v-3.2c-2.4,1.5-4.8,2.3-7.3,2.3
			C138.8,38.5,136.9,37.8,135.3,36.4"/>
		<path fill="#CCCCCC" d="M91.8,38.1l1.2,3h0.6l1.3-3.2C93.8,37.9,92.8,38,91.8,38.1"/>
		<path fill="#CCCCCC" d="M171.7,28.7c0.2,0.6,0.3,1.3,0.3,2c0,2.2-0.8,4.1-2.3,5.6c-1.5,1.5-3.4,2.2-5.7,2.2
			c-2.3,0-4.2-0.7-5.7-2.2c-1.5-1.5-2.3-3.3-2.3-5.5l0-0.2c-1,0.1-2,0.3-3,0.4c0,2.9,1.1,5.3,3.1,7.2c2.1,2,4.6,3,7.7,3
			c3.2,0,5.9-1,8-3c2.1-2,3.2-4.5,3.2-7.5c0-0.9-0.1-1.7-0.3-2.5C173.7,28.4,172.7,28.6,171.7,28.7"/>
		<path fill="#CCCCCC" d="M106,36.8V41h2.9v-4.5C107.9,36.6,107,36.7,106,36.8"/>
		<path fill="#CCCCCC" d="M122.8,34.9c0.2,0.4,0.3,0.7,0.3,1.1c0,0.8-0.3,1.4-0.9,1.9c-0.6,0.5-1.4,0.8-2.3,0.8
			c-2,0-3.8-0.9-5.3-2.8l-0.2,0v3.5c1.7,1.2,3.5,1.9,5.5,1.9c1.8,0,3.2-0.5,4.3-1.5c1.1-1,1.7-2.4,1.7-4c0-0.4-0.1-0.8-0.1-1.2
			C124.7,34.6,123.7,34.8,122.8,34.9"/>
		<path fill="#CCCCCC" d="M79.2,38.6c-0.5,0-0.9,0-1.3,0l1,2.4h0.6l1-2.5C80.1,38.6,79.6,38.6,79.2,38.6"/>
		<path fill="#CCCCCC" d="M222.4,24.4c-33.7,0-113.1,14.3-143.1,14.3c-5.2,0-7.9-0.2-8.6-0.2v0.7c0,0,2.6,0.2,8.7,0.2
			c30,0,109.3-14.3,143-14.3c21.9,0,27.6,3.8,27.6,3.8v-0.7C249.5,27.8,243.4,24.4,222.4,24.4"/>
	</g>
	<g>
		<g>
			<g>
				<path fill="#CCCCCC" d="M78.8,4.4h1.5v6.1c0,0.8-0.1,1.4-0.2,1.9c-0.1,0.4-0.3,0.8-0.4,1.1c-0.2,0.3-0.4,0.5-0.6,0.8
					c-0.9,0.7-2,1.1-3.3,1.1c-1.4,0-2.5-0.4-3.4-1.1c-0.3-0.2-0.5-0.5-0.7-0.8c-0.2-0.3-0.3-0.6-0.4-1c-0.1-0.4-0.2-1-0.2-1.9V4.4
					h1.5v6.1c0,1,0.1,1.7,0.3,2.1c0.2,0.4,0.6,0.7,1.1,1c0.5,0.2,1,0.4,1.7,0.4c0.9,0,1.7-0.2,2.2-0.7c0.3-0.3,0.5-0.6,0.7-0.9
					c0.1-0.3,0.2-0.9,0.2-1.8V4.4z"/>
				<path fill="#CCCCCC" d="M92.7,4.4h1.5v10.8h-1.3l-7.2-8.3v8.3h-1.4V4.4h1.2l7.3,8.4V4.4z"/>
				<path fill="#CCCCCC" d="M98.1,4.4h1.5v10.8h-1.5V4.4z"/>
				<path fill="#CCCCCC" d="M110.5,4.4h1.5l-4.5,10.8h-0.3l-4.6-10.8h1.5l3.2,7.6L110.5,4.4z"/>
				<path fill="#CCCCCC" d="M114.9,4.4h6.1v1.4h-4.6v3.3h4.4v1.4h-4.4v3.3h4.7v1.4h-6.2V4.4z"/>
				<path fill="#CCCCCC" d="M124.4,15.2V4.4h2.7c1.1,0,2,0.3,2.6,0.8c0.6,0.5,1,1.3,1,2.2c0,0.6-0.2,1.2-0.5,1.6
					c-0.3,0.5-0.8,0.8-1.3,1c0.3,0.2,0.7,0.5,1,0.9c0.3,0.4,0.8,1.1,1.4,2c0.4,0.6,0.7,1.1,0.9,1.4l0.6,0.8h-1.8l-0.5-0.7
					c0,0,0-0.1-0.1-0.1l-0.3-0.4l-0.5-0.8l-0.5-0.8c-0.3-0.4-0.6-0.8-0.9-1.1s-0.5-0.4-0.7-0.6c-0.2-0.1-0.6-0.2-1.1-0.2H126v4.7
					H124.4z M126.4,5.7H126v3.4h0.6c0.8,0,1.3-0.1,1.6-0.2c0.3-0.1,0.5-0.3,0.7-0.6c0.2-0.3,0.2-0.6,0.2-0.9c0-0.3-0.1-0.6-0.3-0.9
					c-0.2-0.3-0.4-0.5-0.8-0.6C127.7,5.8,127.2,5.7,126.4,5.7z"/>
				<path fill="#CCCCCC" d="M138.2,10.7l-1.2-0.7c-0.7-0.4-1.3-0.9-1.6-1.3c-0.3-0.4-0.5-0.9-0.5-1.5c0-0.8,0.3-1.5,0.9-2.1
					c0.6-0.5,1.4-0.8,2.3-0.8c0.9,0,1.7,0.3,2.5,0.8v1.7c-0.8-0.7-1.6-1.1-2.5-1.1c-0.5,0-0.9,0.1-1.2,0.3c-0.3,0.2-0.5,0.5-0.5,0.9
					c0,0.3,0.1,0.6,0.4,0.9c0.2,0.3,0.6,0.6,1.1,0.9l1.2,0.7c1.3,0.8,2,1.8,2,3c0,0.9-0.3,1.6-0.9,2.1c-0.6,0.5-1.3,0.8-2.3,0.8
					c-1.1,0-2-0.3-2.9-1v-2c0.8,1.1,1.8,1.6,2.9,1.6c0.5,0,0.9-0.1,1.2-0.4c0.3-0.3,0.5-0.6,0.5-1C139.6,11.9,139.2,11.2,138.2,10.7
					z"/>
				<path fill="#CCCCCC" d="M144.5,4.4h1.5v10.8h-1.5V4.4z"/>
				<path fill="#CCCCCC" d="M149.1,4.4h9v1.4h-3.7v9.4h-1.5V5.8h-3.7V4.4z"/>
				<path fill="#CCCCCC" d="M167.7,4.4h1.9l-4,5.1v5.7H164V9.5l-4-5.1h1.9l2.9,3.7L167.7,4.4z"/>
				<path fill="#CCCCCC" d="M183.7,4.2c1.7,0,3,0.5,4.2,1.6c1.1,1.1,1.7,2.4,1.7,4c0,1.6-0.6,2.9-1.7,3.9c-1.1,1-2.5,1.6-4.2,1.6
					c-1.6,0-3-0.5-4-1.6c-1.1-1-1.6-2.3-1.6-3.9c0-1.6,0.5-2.9,1.6-4C180.7,4.8,182,4.2,183.7,4.2z M183.8,5.7c-1.2,0-2.2,0.4-3,1.2
					c-0.8,0.8-1.2,1.8-1.2,2.9c0,1.2,0.4,2.1,1.2,2.9c0.8,0.8,1.8,1.2,3,1.2c1.2,0,2.2-0.4,3-1.2c0.8-0.8,1.2-1.8,1.2-2.9
					c0-1.1-0.4-2.1-1.2-2.9C185.9,6.1,184.9,5.7,183.8,5.7z"/>
				<path fill="#CCCCCC" d="M193.1,4.4h5.7v1.4h-4.2v3h4.2v1.4h-4.2v5h-1.5V4.4z"/>
			</g>
		</g>
	</g>
	<g>
		<path fill="#CCCCCC" d="M70.8,55.7l0.6-0.4c0.4,0.8,1,1.2,1.6,1.2c0.3,0,0.5-0.1,0.7-0.2c0.2-0.1,0.4-0.3,0.5-0.5
			c0.1-0.2,0.2-0.4,0.2-0.6c0-0.3-0.1-0.5-0.3-0.7c-0.2-0.3-0.7-0.7-1.3-1.2c-0.6-0.5-1-0.8-1.2-1c-0.3-0.4-0.4-0.7-0.4-1.1
			c0-0.3,0.1-0.6,0.2-0.9c0.2-0.3,0.4-0.5,0.7-0.6c0.3-0.2,0.6-0.2,0.9-0.2c0.4,0,0.7,0.1,1,0.3c0.3,0.2,0.6,0.5,1,1l-0.6,0.5
			c-0.3-0.4-0.5-0.6-0.7-0.7c-0.2-0.1-0.4-0.2-0.6-0.2c-0.3,0-0.5,0.1-0.7,0.3c-0.2,0.2-0.3,0.4-0.3,0.7c0,0.2,0,0.3,0.1,0.5
			c0.1,0.2,0.2,0.3,0.4,0.5c0.1,0.1,0.4,0.3,1,0.7c0.6,0.5,1.1,0.9,1.3,1.3c0.2,0.4,0.4,0.7,0.4,1.1c0,0.5-0.2,1-0.6,1.4
			c-0.4,0.4-0.9,0.6-1.5,0.6c-0.5,0-0.9-0.1-1.2-0.4C71.5,56.7,71.2,56.3,70.8,55.7"/>
		<path fill="#CCCCCC" d="M76.8,49.6h0.7v4.5c0,0.5,0,0.9,0,1c0,0.3,0.1,0.5,0.3,0.7c0.1,0.2,0.3,0.4,0.6,0.5
			c0.3,0.1,0.6,0.2,0.8,0.2c0.2,0,0.5-0.1,0.7-0.2c0.2-0.1,0.4-0.3,0.6-0.4c0.2-0.2,0.3-0.4,0.3-0.7c0.1-0.2,0.1-0.6,0.1-1.2v-4.5
			h0.7v4.5c0,0.7-0.1,1.2-0.2,1.6c-0.1,0.4-0.4,0.8-0.8,1.1c-0.4,0.3-0.9,0.5-1.4,0.5c-0.6,0-1.1-0.1-1.6-0.4
			c-0.4-0.3-0.7-0.7-0.9-1.1c-0.1-0.3-0.1-0.8-0.1-1.6V49.6z"/>
		<path fill="#CCCCCC" d="M82.9,55.7l0.6-0.4c0.4,0.8,1,1.2,1.6,1.2c0.3,0,0.5-0.1,0.7-0.2c0.2-0.1,0.4-0.3,0.5-0.5
			c0.1-0.2,0.2-0.4,0.2-0.6c0-0.3-0.1-0.5-0.3-0.7c-0.2-0.3-0.7-0.7-1.3-1.2c-0.6-0.5-1-0.8-1.2-1c-0.3-0.4-0.4-0.7-0.4-1.1
			c0-0.3,0.1-0.6,0.2-0.9c0.2-0.3,0.4-0.5,0.7-0.6c0.3-0.2,0.6-0.2,0.9-0.2c0.4,0,0.7,0.1,1,0.3s0.6,0.5,1,1l-0.6,0.5
			c-0.3-0.4-0.5-0.6-0.7-0.7c-0.2-0.1-0.4-0.2-0.6-0.2c-0.3,0-0.5,0.1-0.7,0.3c-0.2,0.2-0.3,0.4-0.3,0.7c0,0.2,0,0.3,0.1,0.5
			c0.1,0.2,0.2,0.3,0.4,0.5c0.1,0.1,0.4,0.3,1,0.7c0.6,0.5,1.1,0.9,1.3,1.3c0.2,0.4,0.4,0.7,0.4,1.1c0,0.5-0.2,1-0.6,1.4
			c-0.4,0.4-0.9,0.6-1.5,0.6c-0.5,0-0.9-0.1-1.2-0.4C83.5,56.7,83.2,56.3,82.9,55.7"/>
		<polygon fill="#CCCCCC" points="88.1,50.4 88.1,49.6 92.2,49.6 92.2,50.4 90.5,50.4 90.5,57.1 89.8,57.1 89.8,50.4 		"/>
		<path fill="#CCCCCC" d="M95.4,51.2l-1.3,2.7h2.6L95.4,51.2z M95.5,49.6l3.5,7.5h-0.8L97,54.7h-3.2l-1.2,2.5h-0.8l3.5-7.5H95.5z"/>
		<rect x="100" y="49.6" fill="#CCCCCC" width="0.7" height="7.5"/>
		<polygon fill="#CCCCCC" points="102.5,57.1 102.5,49.6 102.7,49.6 107.7,55.4 107.7,49.6 108.4,49.6 108.4,57.1 108.2,57.1 
			103.3,51.4 103.3,57.1 		"/>
		<path fill="#CCCCCC" d="M113.2,51.2l-1.3,2.7h2.6L113.2,51.2z M113.3,49.6l3.5,7.5H116l-1.2-2.5h-3.2l-1.2,2.5h-0.8l3.5-7.5H113.3
			z"/>
		<path fill="#CCCCCC" d="M118.7,53.5v2.9h0.9c0.5,0,0.9-0.1,1.2-0.2c0.3-0.1,0.5-0.3,0.6-0.5c0.2-0.2,0.2-0.5,0.2-0.7
			c0-0.3-0.1-0.6-0.3-0.9c-0.2-0.2-0.5-0.4-0.9-0.5c-0.3-0.1-0.7-0.1-1.3-0.1H118.7z M118.7,50.4v2.4h0.4c0.5,0,0.9,0,1.1-0.1
			c0.2-0.1,0.4-0.2,0.6-0.5c0.1-0.2,0.2-0.4,0.2-0.7c0-0.3-0.1-0.6-0.4-0.8c-0.2-0.2-0.6-0.3-1.1-0.3H118.7z M118,49.6h1.5
			c0.6,0,1.1,0.1,1.4,0.2c0.3,0.1,0.6,0.4,0.8,0.6c0.2,0.3,0.3,0.6,0.3,1c0,0.3-0.1,0.6-0.2,0.9c-0.2,0.3-0.4,0.5-0.7,0.7
			c0.4,0.1,0.7,0.3,0.9,0.5c0.2,0.2,0.4,0.4,0.5,0.6c0.1,0.3,0.2,0.5,0.2,0.8c0,0.6-0.2,1.1-0.7,1.5c-0.4,0.4-1,0.6-1.8,0.6H118
			V49.6z"/>
		<polygon fill="#CCCCCC" points="123.9,49.6 124.7,49.6 124.7,56.4 127.5,56.4 127.5,57.1 123.9,57.1 		"/>
		<polygon fill="#CCCCCC" points="128.7,49.6 133,49.6 133,50.4 129.5,50.4 129.5,52.7 133,52.7 133,53.4 129.5,53.4 129.5,56.4 
			133,56.4 133,57.1 128.7,57.1 		"/>
		<polygon fill="#CCCCCC" points="138.1,57.1 139.2,49.6 139.3,49.6 142.3,55.8 145.4,49.6 145.5,49.6 146.6,57.1 145.8,57.1 
			145.1,51.8 142.4,57.1 142.2,57.1 139.6,51.7 138.8,57.1 		"/>
		<path fill="#CCCCCC" d="M151,51.2l-1.3,2.7h2.6L151,51.2z M151.1,49.6l3.5,7.5h-0.8l-1.2-2.5h-3.2l-1.2,2.5h-0.8l3.5-7.5H151.1z"
			/>
		<polygon fill="#CCCCCC" points="155.8,57.1 155.8,49.6 155.9,49.6 160.9,55.4 160.9,49.6 161.6,49.6 161.6,57.1 161.5,57.1 
			156.5,51.4 156.5,57.1 		"/>
		<path fill="#CCCCCC" d="M166.4,51.2l-1.3,2.7h2.6L166.4,51.2z M166.5,49.6l3.5,7.5h-0.8l-1.2-2.5h-3.2l-1.2,2.5h-0.8l3.5-7.5
			H166.5z"/>
		<path fill="#CCCCCC" d="M178.4,50.9l-0.6,0.5c-0.4-0.4-0.9-0.7-1.4-0.9c-0.5-0.2-1-0.3-1.5-0.3c-0.6,0-1.1,0.1-1.7,0.4
			c-0.5,0.3-0.9,0.7-1.2,1.2c-0.3,0.5-0.4,1-0.4,1.6c0,0.6,0.2,1.1,0.5,1.6c0.3,0.5,0.7,0.9,1.3,1.2c0.5,0.3,1.1,0.4,1.8,0.4
			c0.8,0,1.4-0.2,2-0.7c0.5-0.4,0.8-1,0.9-1.7h-2.4v-0.7h3.2c0,1.2-0.4,2.1-1,2.8c-0.7,0.7-1.6,1-2.7,1c-1.4,0-2.5-0.5-3.3-1.4
			c-0.6-0.7-0.9-1.6-0.9-2.5c0-0.7,0.2-1.4,0.5-2c0.4-0.6,0.8-1.1,1.5-1.4c0.6-0.3,1.3-0.5,2.1-0.5c0.6,0,1.2,0.1,1.8,0.3
			C177.3,50,177.9,50.4,178.4,50.9"/>
		<polygon fill="#CCCCCC" points="180.3,49.6 184.6,49.6 184.6,50.4 181,50.4 181,52.7 184.5,52.7 184.5,53.4 181,53.4 181,56.4 
			184.5,56.4 184.5,57.1 180.3,57.1 		"/>
		<polygon fill="#CCCCCC" points="185.5,57.1 186.6,49.6 186.7,49.6 189.8,55.8 192.8,49.6 192.9,49.6 194,57.1 193.2,57.1 
			192.5,51.8 189.8,57.1 189.7,57.1 187,51.7 186.2,57.1 		"/>
		<polygon fill="#CCCCCC" points="195.4,49.6 199.7,49.6 199.7,50.4 196.2,50.4 196.2,52.7 199.7,52.7 199.7,53.4 196.2,53.4 
			196.2,56.4 199.7,56.4 199.7,57.1 195.4,57.1 		"/>
		<polygon fill="#CCCCCC" points="201,57.1 201,49.6 201.2,49.6 206.2,55.4 206.2,49.6 206.9,49.6 206.9,57.1 206.8,57.1 
			201.8,51.4 201.8,57.1 		"/>
		<polygon fill="#CCCCCC" points="208,50.4 208,49.6 212.1,49.6 212.1,50.4 210.4,50.4 210.4,57.1 209.7,57.1 209.7,50.4 		"/>
	</g>
	<g>
		<g>
			<path fill="#FFFFFF" d="M14,34.3c5.1-4.2,10.3-3.2,19.5,1.9C44.3,42.3,56,42.7,64,33.8c0.2-1.2,0.2-2.4,0.2-3.6
				c0-15.3-12.4-27.8-27.8-27.8S8.7,14.8,8.7,30.2c0,3.4,0.6,6.6,1.7,9.5C10.2,37.4,11.8,36,14,34.3"/>
		</g>
		<g opacity="0.7">
			
				<radialGradient id="SVGID_1_" cx="121.3663" cy="6.1061" r="37.3193" gradientTransform="matrix(0.6387 0 0 0.6387 -41.0672 17.6325)" gradientUnits="userSpaceOnUse">
				<stop  offset="0" style="stop-color:#E8E8E8"/>
				<stop  offset="0.5227" style="stop-color:#E6E6E6"/>
				<stop  offset="0.711" style="stop-color:#DFDFDF"/>
				<stop  offset="0.8447" style="stop-color:#D4D4D4"/>
				<stop  offset="0.9" style="stop-color:#CCCCCC"/>
			</radialGradient>
			<path fill="url(#SVGID_1_)" d="M14,34.3c5.1-4.2,10.3-3.2,19.5,1.9C44.3,42.3,56,42.7,64,33.8c0.2-1.2,0.2-2.4,0.2-3.6
				c0-15.3-12.4-27.8-27.8-27.8S8.7,14.8,8.7,30.2c0,3.4,0.6,6.6,1.7,9.5C10.2,37.4,11.8,36,14,34.3"/>
		</g>
		<g opacity="0.8">
			<g>
				<defs>
					<rect id="SVGID_2_" x="8.2" y="2" width="56.9" height="39.5"/>
				</defs>
				<clipPath id="SVGID_3_">
					<use xlink:href="#SVGID_2_"  overflow="visible"/>
				</clipPath>
			</g>
		</g>
		<g>
			<path fill="#CCCCCC" d="M58,36.6c-0.7-0.4-1.1-1.2-1.4-1.9c-0.2-0.7-1.1-1.2-1.8-1.4c-0.7-0.2-1.2-0.8-1.4-1.1
				c-0.2-0.4-0.5-0.6-1-0.6c-0.5,0-1.2,0.1-1.6-0.1c-0.4-0.2-0.4-0.9-1.9-0.3c-1.4,0.6-1.5,0.7-2.1,0.6c-0.6-0.1-0.7-0.6-0.9-0.6
				c-0.2-0.1-1.4-0.1-1.5-0.4c-0.1-0.3-0.1-1.7-0.5-1.9c-0.4-0.2-1.7-0.6-1.7-1c-0.1-0.4,0.1-1.7-0.3-1.7c-0.4,0-1.4,0.4-1.8,0.7
				c-0.4,0.4-0.4,0.9-0.9,0.6c-0.5-0.3-2.1-1.4-1.4-3.2c0.6-1.8,1.7-2.4,3.8-1.9c2.1,0.5,2.4,0.6,2.4,1.1c0.1,0.4,0.7,1.7,0.8,1.1
				c0.1-0.6-0.6-2.7-0.2-3.2c0.4-0.5,1.1-1.1,1.3-1.7c0.2-0.6,0.7-2.7,1-3.2c0.3-0.6-0.2-0.5,0.3-0.6c0.5-0.1,0.1-0.2,0.5-0.4
				c0.4-0.1,1-0.3,0.8-0.7c-0.2-0.4-0.4-0.9-0.8-1.1c-0.4-0.2-0.6-0.4-0.6-0.4l1.7-1c-0.2-0.3-1.7-1.2-2-1.6
				c-0.4-0.4-1.7-1.3-2.2-1.3c-0.5,0-1.8-0.3-2.1,0c-0.3,0.3,0.2,1.1,0.2,1.4c0,0.3,0.2,1,0,1.3C42.5,12,42.8,12,42.5,12
				c-0.4,0-1.9-1.3-2.2-1.5c-0.3-0.2-1.1-0.4-1.1-1.1c-0.1-0.6,0.2-0.9,0.6-1.6c0.4-0.6,0.8-0.9,0.1-1.1c-0.6-0.1-1.3-0.1-1.9-0.1
				c-0.6,0-2.2-0.4-2.7-0.5c-0.4-0.1-1.9-0.6-2.8-0.8c-0.9-0.1-1.4-1-2.2-0.8c-0.8,0.2-1.5,0.2-1.9,0.5c-0.4,0.3-0.9,0.4-1.3,0.4
				c0,0-0.1,0.2-0.6,0.4c-0.6,0.2-1.6,0.1-1.8,0.6c-0.1,0.5-0.6,0.4-0.9,0.9c-0.4,0.4-0.8,0.6,0.4,0.5c1.2-0.1,2.1-0.6,2.5-0.8
				C27.2,7,26.7,6.4,27.2,7c0.5,0.6,0.8,0.6,0.7,0.9c-0.1,0.3-0.1,0.6-0.1,0.9c0.1,0.4,0.3,0.1,0.3,1v1.2c0,0,0.6,0.4,0.9,0.4
				c0.3,0.1,0.6,0.6,0.6,0.6s0,0.1-0.1,0.7c-0.1,0.6-0.6,2.7-0.6,3.2c0,0.5-0.3,1.9,0,2.4c0.3,0.5,0.9,2.1,1.1,2.6
				c0.1,0.5,0.6,1.7,0.8,1.9c0.2,0.2,1.1,0.6,1.4,1.1c0.2,0.6,0.9,1.4,0.9,0.7c-0.1-0.6-0.4-1.9-0.8-2.2c-0.4-0.3-0.9-2-0.7-2.2
				c0.2-0.1,1.3,1.3,1.5,1.7c0.2,0.4,1,1.8,1.4,2.5c0.4,0.7,0.7,2.2,0.9,2.7c0.2,0.5,2.2,1.7,2.8,2.1c0.6,0.4,1.8,0.9,2.9,1.1
				c1.1,0.3,2.2,0.9,2.7,1.2c0.6,0.3,1.1,0.9,1.6,1.1c0.4,0.3,0.9,0.3,1.3,0.3c0.4,0,0.1-0.6,0.8,0.2c0.6,0.9,0.3,1.2,0,1.7
				c-0.3,0.4-1.7,3.3-1.8,4c0,0.3,0.1,0.8,0.2,1.5c4.6,0.6,9.1-0.1,13-2.4C58.6,37.8,58.6,36.9,58,36.6 M39.5,6.1
				c0.4,0.3,0.1,0.4,1.1,0.5c1,0.1,1.5,0,1.6,0.4c0.1,0.4-0.5,0.2-0.5,0.5c0.1,0.3,0.3,0.4,1.1,0.6c0.9,0.2,2,0.9,1.8,0.4
				c-0.3-0.5-0.5-0.9-0.5-1.1C44,7.1,43,6.6,42.3,6.2c-0.7-0.4-1.4-0.7-1.9-0.7c-0.5,0-1.4-0.5-1.7-0.1C38.4,5.8,39.2,5.8,39.5,6.1
				 M45.6,25.2c-0.3-0.1-0.8-0.1-1-0.3c-0.2-0.2-0.5-0.3-0.7-0.3c-0.3,0.1-0.6,0-0.6,0.2c0,0.2-0.3,0.3,0.1,0.5
				c0.4,0.2,0.6,0.2,1.1,0.4c0.5,0.1,0.8,0.3,1,0.5c0.2,0.1,0.5,0.1,0.6,0c0.1-0.1,0.3-0.3,0.1-0.4C45.9,25.5,45.9,25.3,45.6,25.2
				 M43.8,5.5c0.4,0.3,1.1,0.9,1.3,1.3c0.2,0.3,0,0.3,0.9,0.8c0.9,0.5,1.1,1,1.7,0.9c0.6-0.1,0.8-0.4,0.4-0.7
				c-0.4-0.4-0.6-1.3-0.9-1.7c-0.4-0.4-1.7-1.4-2.4-1.6C44,4.2,42.5,3.7,42,3.7c-0.5,0-1.1,0-1.3,0.3c-0.1,0.3-0.1,0.1-0.1,0.3
				C40.6,4.7,43.4,5.2,43.8,5.5 M49.5,13.9c0.5,0.1,1.2,0.6,0.8-0.1c-0.4-0.7-0.5-0.8-0.6-0.9c-0.4-0.1-0.9,0-0.9,0.2
				C48.8,13.4,49.1,13.8,49.5,13.9 M48.4,26.1c-0.1,0.1-0.6,0.2-0.7,0.4c0,0.2,0.3,0.1,0.7,0.2c0.3,0.1,0.9,0.1,1.1,0
				c0.2,0,0.2,0,0.3-0.1c0.1-0.1,0-0.3-0.1-0.4c-0.1-0.1-0.5-0.3-0.7-0.3C48.8,25.8,48.6,26,48.4,26.1"/>
			<path fill="#CCCCCC" d="M33.7,37.8c-8.9-5-14.7-6.3-19.7-2.2c-1.5,1.2-1.9,2.3-2.5,3.6l0,0c4.9-0.6,9.1,1.2,17.4,7.2
				c10.5,7.7,18.6,3.5,20.4,2.1c1.9-1.7,3.6-3.5,3.6-3.5s-1.3,2.3-3.6,4.1c-2,1.5-9.7,5.7-20.6-1.7c-1.4-1-2.8-1.8-4.1-2.5
				c-0.9-0.6-6.8-4.2-11.1-3.9c-2.7,0.2-2.8,0.6-7.2,1.8C3,43.7,2,42.1,2,42.1S1.7,43,1,43.3c-0.7,0.4-1,0.4-1,0.4s0.8,0.6,3.7,0.6
				c2.5,0,4.7-1.6,7.8-2.1c0.4,1.3,1.2,2.8,2.7,4.8c1.1,1.4,2.4,2.7,3.9,3.9c12,10.1,30.5,8.9,40-3.5c3.6-4.7,4.6-7.1,5.5-12.2
				C56,44.6,44.6,44,33.7,37.8"/>
		</g>
	</g>
</g>
</svg>
